<?xml version="1.0" encoding="utf-8" standalone="no"?>
<!DOCTYPE svg PUBLIC "-//W3C//DTD SVG 1.1//EN"
  "http://www.w3.org/Graphics/SVG/1.1/DTD/svg11.dtd">
<svg xmlns:xlink="http://www.w3.org/1999/xlink" width="460.8pt" height="345.6pt" viewBox="0 0 460.8 345.6" xmlns="http://www.w3.org/2000/svg" version="1.1">
 <metadata>
  <rdf:RDF xmlns:dc="http://purl.org/dc/elements/1.1/" xmlns:cc="http://creativecommons.org/ns#" xmlns:rdf="http://www.w3.org/1999/02/22-rdf-syntax-ns#">
   <cc:Work>
    <dc:type rdf:resource="http://purl.org/dc/dcmitype/StillImage"/>
    <dc:date>2025-03-25T23:11:47.985545</dc:date>
    <dc:format>image/svg+xml</dc:format>
    <dc:creator>
     <cc:Agent>
      <dc:title>Matplotlib v3.9.2, https://matplotlib.org/</dc:title>
     </cc:Agent>
    </dc:creator>
   </cc:Work>
  </rdf:RDF>
 </metadata>
 <defs>
  <style type="text/css">*{stroke-linejoin: round; stroke-linecap: butt}</style>
 </defs>
 <g id="figure_1">
  <g id="patch_1">
   <path d="M 0 345.6 
L 460.8 345.6 
L 460.8 0 
L 0 0 
z
" style="fill: #ffffff"/>
  </g>
  <g id="axes_1">
   <g id="patch_2">
    <path d="M 57.6 307.584 
L 414.72 307.584 
L 414.72 41.472 
L 57.6 41.472 
z
" style="fill: #ffffff"/>
   </g>
   <g id="matplotlib.axis_1">
    <g id="xtick_1">
     <g id="line2d_1">
      <defs>
       <path id="m5041b22cdc" d="M 0 0 
L 0 3.5 
" style="stroke: #000000; stroke-width: 0.8"/>
      </defs>
      <g>
       <use xlink:href="#m5041b22cdc" x="57.6" y="307.584" style="stroke: #000000; stroke-width: 0.8"/>
      </g>
     </g>
     <g id="text_1">
      <!-- 0.0 -->
      <g transform="translate(49.648438 322.182437) scale(0.1 -0.1)">
       <defs>
        <path id="DejaVuSans-30" d="M 2034 4250 
Q 1547 4250 1301 3770 
Q 1056 3291 1056 2328 
Q 1056 1369 1301 889 
Q 1547 409 2034 409 
Q 2525 409 2770 889 
Q 3016 1369 3016 2328 
Q 3016 3291 2770 3770 
Q 2525 4250 2034 4250 
z
M 2034 4750 
Q 2819 4750 3233 4129 
Q 3647 3509 3647 2328 
Q 3647 1150 3233 529 
Q 2819 -91 2034 -91 
Q 1250 -91 836 529 
Q 422 1150 422 2328 
Q 422 3509 836 4129 
Q 1250 4750 2034 4750 
z
" transform="scale(0.015625)"/>
        <path id="DejaVuSans-2e" d="M 684 794 
L 1344 794 
L 1344 0 
L 684 0 
L 684 794 
z
" transform="scale(0.015625)"/>
       </defs>
       <use xlink:href="#DejaVuSans-30"/>
       <use xlink:href="#DejaVuSans-2e" x="63.623047"/>
       <use xlink:href="#DejaVuSans-30" x="95.410156"/>
      </g>
     </g>
    </g>
    <g id="xtick_2">
     <g id="line2d_2">
      <g>
       <use xlink:href="#m5041b22cdc" x="129.024" y="307.584" style="stroke: #000000; stroke-width: 0.8"/>
      </g>
     </g>
     <g id="text_2">
      <!-- 0.2 -->
      <g transform="translate(121.072438 322.182437) scale(0.1 -0.1)">
       <defs>
        <path id="DejaVuSans-32" d="M 1228 531 
L 3431 531 
L 3431 0 
L 469 0 
L 469 531 
Q 828 903 1448 1529 
Q 2069 2156 2228 2338 
Q 2531 2678 2651 2914 
Q 2772 3150 2772 3378 
Q 2772 3750 2511 3984 
Q 2250 4219 1831 4219 
Q 1534 4219 1204 4116 
Q 875 4013 500 3803 
L 500 4441 
Q 881 4594 1212 4672 
Q 1544 4750 1819 4750 
Q 2544 4750 2975 4387 
Q 3406 4025 3406 3419 
Q 3406 3131 3298 2873 
Q 3191 2616 2906 2266 
Q 2828 2175 2409 1742 
Q 1991 1309 1228 531 
z
" transform="scale(0.015625)"/>
       </defs>
       <use xlink:href="#DejaVuSans-30"/>
       <use xlink:href="#DejaVuSans-2e" x="63.623047"/>
       <use xlink:href="#DejaVuSans-32" x="95.410156"/>
      </g>
     </g>
    </g>
    <g id="xtick_3">
     <g id="line2d_3">
      <g>
       <use xlink:href="#m5041b22cdc" x="200.448" y="307.584" style="stroke: #000000; stroke-width: 0.8"/>
      </g>
     </g>
     <g id="text_3">
      <!-- 0.4 -->
      <g transform="translate(192.496438 322.182437) scale(0.1 -0.1)">
       <defs>
        <path id="DejaVuSans-34" d="M 2419 4116 
L 825 1625 
L 2419 1625 
L 2419 4116 
z
M 2253 4666 
L 3047 4666 
L 3047 1625 
L 3713 1625 
L 3713 1100 
L 3047 1100 
L 3047 0 
L 2419 0 
L 2419 1100 
L 313 1100 
L 313 1709 
L 2253 4666 
z
" transform="scale(0.015625)"/>
       </defs>
       <use xlink:href="#DejaVuSans-30"/>
       <use xlink:href="#DejaVuSans-2e" x="63.623047"/>
       <use xlink:href="#DejaVuSans-34" x="95.410156"/>
      </g>
     </g>
    </g>
    <g id="xtick_4">
     <g id="line2d_4">
      <g>
       <use xlink:href="#m5041b22cdc" x="271.872" y="307.584" style="stroke: #000000; stroke-width: 0.8"/>
      </g>
     </g>
     <g id="text_4">
      <!-- 0.6 -->
      <g transform="translate(263.920438 322.182437) scale(0.1 -0.1)">
       <defs>
        <path id="DejaVuSans-36" d="M 2113 2584 
Q 1688 2584 1439 2293 
Q 1191 2003 1191 1497 
Q 1191 994 1439 701 
Q 1688 409 2113 409 
Q 2538 409 2786 701 
Q 3034 994 3034 1497 
Q 3034 2003 2786 2293 
Q 2538 2584 2113 2584 
z
M 3366 4563 
L 3366 3988 
Q 3128 4100 2886 4159 
Q 2644 4219 2406 4219 
Q 1781 4219 1451 3797 
Q 1122 3375 1075 2522 
Q 1259 2794 1537 2939 
Q 1816 3084 2150 3084 
Q 2853 3084 3261 2657 
Q 3669 2231 3669 1497 
Q 3669 778 3244 343 
Q 2819 -91 2113 -91 
Q 1303 -91 875 529 
Q 447 1150 447 2328 
Q 447 3434 972 4092 
Q 1497 4750 2381 4750 
Q 2619 4750 2861 4703 
Q 3103 4656 3366 4563 
z
" transform="scale(0.015625)"/>
       </defs>
       <use xlink:href="#DejaVuSans-30"/>
       <use xlink:href="#DejaVuSans-2e" x="63.623047"/>
       <use xlink:href="#DejaVuSans-36" x="95.410156"/>
      </g>
     </g>
    </g>
    <g id="xtick_5">
     <g id="line2d_5">
      <g>
       <use xlink:href="#m5041b22cdc" x="343.296" y="307.584" style="stroke: #000000; stroke-width: 0.8"/>
      </g>
     </g>
     <g id="text_5">
      <!-- 0.8 -->
      <g transform="translate(335.344438 322.182437) scale(0.1 -0.1)">
       <defs>
        <path id="DejaVuSans-38" d="M 2034 2216 
Q 1584 2216 1326 1975 
Q 1069 1734 1069 1313 
Q 1069 891 1326 650 
Q 1584 409 2034 409 
Q 2484 409 2743 651 
Q 3003 894 3003 1313 
Q 3003 1734 2745 1975 
Q 2488 2216 2034 2216 
z
M 1403 2484 
Q 997 2584 770 2862 
Q 544 3141 544 3541 
Q 544 4100 942 4425 
Q 1341 4750 2034 4750 
Q 2731 4750 3128 4425 
Q 3525 4100 3525 3541 
Q 3525 3141 3298 2862 
Q 3072 2584 2669 2484 
Q 3125 2378 3379 2068 
Q 3634 1759 3634 1313 
Q 3634 634 3220 271 
Q 2806 -91 2034 -91 
Q 1263 -91 848 271 
Q 434 634 434 1313 
Q 434 1759 690 2068 
Q 947 2378 1403 2484 
z
M 1172 3481 
Q 1172 3119 1398 2916 
Q 1625 2713 2034 2713 
Q 2441 2713 2670 2916 
Q 2900 3119 2900 3481 
Q 2900 3844 2670 4047 
Q 2441 4250 2034 4250 
Q 1625 4250 1398 4047 
Q 1172 3844 1172 3481 
z
" transform="scale(0.015625)"/>
       </defs>
       <use xlink:href="#DejaVuSans-30"/>
       <use xlink:href="#DejaVuSans-2e" x="63.623047"/>
       <use xlink:href="#DejaVuSans-38" x="95.410156"/>
      </g>
     </g>
    </g>
    <g id="xtick_6">
     <g id="line2d_6">
      <g>
       <use xlink:href="#m5041b22cdc" x="414.72" y="307.584" style="stroke: #000000; stroke-width: 0.8"/>
      </g>
     </g>
     <g id="text_6">
      <!-- 1.0 -->
      <g transform="translate(406.768438 322.182437) scale(0.1 -0.1)">
       <defs>
        <path id="DejaVuSans-31" d="M 794 531 
L 1825 531 
L 1825 4091 
L 703 3866 
L 703 4441 
L 1819 4666 
L 2450 4666 
L 2450 531 
L 3481 531 
L 3481 0 
L 794 0 
L 794 531 
z
" transform="scale(0.015625)"/>
       </defs>
       <use xlink:href="#DejaVuSans-31"/>
       <use xlink:href="#DejaVuSans-2e" x="63.623047"/>
       <use xlink:href="#DejaVuSans-30" x="95.410156"/>
      </g>
     </g>
    </g>
    <g id="text_7">
     <!-- False Positive Rate -->
     <g transform="translate(189.693594 335.860562) scale(0.1 -0.1)">
      <defs>
       <path id="DejaVuSans-46" d="M 628 4666 
L 3309 4666 
L 3309 4134 
L 1259 4134 
L 1259 2759 
L 3109 2759 
L 3109 2228 
L 1259 2228 
L 1259 0 
L 628 0 
L 628 4666 
z
" transform="scale(0.015625)"/>
       <path id="DejaVuSans-61" d="M 2194 1759 
Q 1497 1759 1228 1600 
Q 959 1441 959 1056 
Q 959 750 1161 570 
Q 1363 391 1709 391 
Q 2188 391 2477 730 
Q 2766 1069 2766 1631 
L 2766 1759 
L 2194 1759 
z
M 3341 1997 
L 3341 0 
L 2766 0 
L 2766 531 
Q 2569 213 2275 61 
Q 1981 -91 1556 -91 
Q 1019 -91 701 211 
Q 384 513 384 1019 
Q 384 1609 779 1909 
Q 1175 2209 1959 2209 
L 2766 2209 
L 2766 2266 
Q 2766 2663 2505 2880 
Q 2244 3097 1772 3097 
Q 1472 3097 1187 3025 
Q 903 2953 641 2809 
L 641 3341 
Q 956 3463 1253 3523 
Q 1550 3584 1831 3584 
Q 2591 3584 2966 3190 
Q 3341 2797 3341 1997 
z
" transform="scale(0.015625)"/>
       <path id="DejaVuSans-6c" d="M 603 4863 
L 1178 4863 
L 1178 0 
L 603 0 
L 603 4863 
z
" transform="scale(0.015625)"/>
       <path id="DejaVuSans-73" d="M 2834 3397 
L 2834 2853 
Q 2591 2978 2328 3040 
Q 2066 3103 1784 3103 
Q 1356 3103 1142 2972 
Q 928 2841 928 2578 
Q 928 2378 1081 2264 
Q 1234 2150 1697 2047 
L 1894 2003 
Q 2506 1872 2764 1633 
Q 3022 1394 3022 966 
Q 3022 478 2636 193 
Q 2250 -91 1575 -91 
Q 1294 -91 989 -36 
Q 684 19 347 128 
L 347 722 
Q 666 556 975 473 
Q 1284 391 1588 391 
Q 1994 391 2212 530 
Q 2431 669 2431 922 
Q 2431 1156 2273 1281 
Q 2116 1406 1581 1522 
L 1381 1569 
Q 847 1681 609 1914 
Q 372 2147 372 2553 
Q 372 3047 722 3315 
Q 1072 3584 1716 3584 
Q 2034 3584 2315 3537 
Q 2597 3491 2834 3397 
z
" transform="scale(0.015625)"/>
       <path id="DejaVuSans-65" d="M 3597 1894 
L 3597 1613 
L 953 1613 
Q 991 1019 1311 708 
Q 1631 397 2203 397 
Q 2534 397 2845 478 
Q 3156 559 3463 722 
L 3463 178 
Q 3153 47 2828 -22 
Q 2503 -91 2169 -91 
Q 1331 -91 842 396 
Q 353 884 353 1716 
Q 353 2575 817 3079 
Q 1281 3584 2069 3584 
Q 2775 3584 3186 3129 
Q 3597 2675 3597 1894 
z
M 3022 2063 
Q 3016 2534 2758 2815 
Q 2500 3097 2075 3097 
Q 1594 3097 1305 2825 
Q 1016 2553 972 2059 
L 3022 2063 
z
" transform="scale(0.015625)"/>
       <path id="DejaVuSans-20" transform="scale(0.015625)"/>
       <path id="DejaVuSans-50" d="M 1259 4147 
L 1259 2394 
L 2053 2394 
Q 2494 2394 2734 2622 
Q 2975 2850 2975 3272 
Q 2975 3691 2734 3919 
Q 2494 4147 2053 4147 
L 1259 4147 
z
M 628 4666 
L 2053 4666 
Q 2838 4666 3239 4311 
Q 3641 3956 3641 3272 
Q 3641 2581 3239 2228 
Q 2838 1875 2053 1875 
L 1259 1875 
L 1259 0 
L 628 0 
L 628 4666 
z
" transform="scale(0.015625)"/>
       <path id="DejaVuSans-6f" d="M 1959 3097 
Q 1497 3097 1228 2736 
Q 959 2375 959 1747 
Q 959 1119 1226 758 
Q 1494 397 1959 397 
Q 2419 397 2687 759 
Q 2956 1122 2956 1747 
Q 2956 2369 2687 2733 
Q 2419 3097 1959 3097 
z
M 1959 3584 
Q 2709 3584 3137 3096 
Q 3566 2609 3566 1747 
Q 3566 888 3137 398 
Q 2709 -91 1959 -91 
Q 1206 -91 779 398 
Q 353 888 353 1747 
Q 353 2609 779 3096 
Q 1206 3584 1959 3584 
z
" transform="scale(0.015625)"/>
       <path id="DejaVuSans-69" d="M 603 3500 
L 1178 3500 
L 1178 0 
L 603 0 
L 603 3500 
z
M 603 4863 
L 1178 4863 
L 1178 4134 
L 603 4134 
L 603 4863 
z
" transform="scale(0.015625)"/>
       <path id="DejaVuSans-74" d="M 1172 4494 
L 1172 3500 
L 2356 3500 
L 2356 3053 
L 1172 3053 
L 1172 1153 
Q 1172 725 1289 603 
Q 1406 481 1766 481 
L 2356 481 
L 2356 0 
L 1766 0 
Q 1100 0 847 248 
Q 594 497 594 1153 
L 594 3053 
L 172 3053 
L 172 3500 
L 594 3500 
L 594 4494 
L 1172 4494 
z
" transform="scale(0.015625)"/>
       <path id="DejaVuSans-76" d="M 191 3500 
L 800 3500 
L 1894 563 
L 2988 3500 
L 3597 3500 
L 2284 0 
L 1503 0 
L 191 3500 
z
" transform="scale(0.015625)"/>
       <path id="DejaVuSans-52" d="M 2841 2188 
Q 3044 2119 3236 1894 
Q 3428 1669 3622 1275 
L 4263 0 
L 3584 0 
L 2988 1197 
Q 2756 1666 2539 1819 
Q 2322 1972 1947 1972 
L 1259 1972 
L 1259 0 
L 628 0 
L 628 4666 
L 2053 4666 
Q 2853 4666 3247 4331 
Q 3641 3997 3641 3322 
Q 3641 2881 3436 2590 
Q 3231 2300 2841 2188 
z
M 1259 4147 
L 1259 2491 
L 2053 2491 
Q 2509 2491 2742 2702 
Q 2975 2913 2975 3322 
Q 2975 3731 2742 3939 
Q 2509 4147 2053 4147 
L 1259 4147 
z
" transform="scale(0.015625)"/>
      </defs>
      <use xlink:href="#DejaVuSans-46"/>
      <use xlink:href="#DejaVuSans-61" x="48.394531"/>
      <use xlink:href="#DejaVuSans-6c" x="109.673828"/>
      <use xlink:href="#DejaVuSans-73" x="137.457031"/>
      <use xlink:href="#DejaVuSans-65" x="189.556641"/>
      <use xlink:href="#DejaVuSans-20" x="251.080078"/>
      <use xlink:href="#DejaVuSans-50" x="282.867188"/>
      <use xlink:href="#DejaVuSans-6f" x="339.544922"/>
      <use xlink:href="#DejaVuSans-73" x="400.726562"/>
      <use xlink:href="#DejaVuSans-69" x="452.826172"/>
      <use xlink:href="#DejaVuSans-74" x="480.609375"/>
      <use xlink:href="#DejaVuSans-69" x="519.818359"/>
      <use xlink:href="#DejaVuSans-76" x="547.601562"/>
      <use xlink:href="#DejaVuSans-65" x="606.78125"/>
      <use xlink:href="#DejaVuSans-20" x="668.304688"/>
      <use xlink:href="#DejaVuSans-52" x="700.091797"/>
      <use xlink:href="#DejaVuSans-61" x="767.324219"/>
      <use xlink:href="#DejaVuSans-74" x="828.603516"/>
      <use xlink:href="#DejaVuSans-65" x="867.8125"/>
     </g>
    </g>
   </g>
   <g id="matplotlib.axis_2">
    <g id="ytick_1">
     <g id="line2d_7">
      <defs>
       <path id="m8165d547e0" d="M 0 0 
L -3.5 0 
" style="stroke: #000000; stroke-width: 0.8"/>
      </defs>
      <g>
       <use xlink:href="#m8165d547e0" x="57.6" y="307.584" style="stroke: #000000; stroke-width: 0.8"/>
      </g>
     </g>
     <g id="text_8">
      <!-- 0.0 -->
      <g transform="translate(34.696875 311.383219) scale(0.1 -0.1)">
       <use xlink:href="#DejaVuSans-30"/>
       <use xlink:href="#DejaVuSans-2e" x="63.623047"/>
       <use xlink:href="#DejaVuSans-30" x="95.410156"/>
      </g>
     </g>
    </g>
    <g id="ytick_2">
     <g id="line2d_8">
      <g>
       <use xlink:href="#m8165d547e0" x="57.6" y="256.896" style="stroke: #000000; stroke-width: 0.8"/>
      </g>
     </g>
     <g id="text_9">
      <!-- 0.2 -->
      <g transform="translate(34.696875 260.695219) scale(0.1 -0.1)">
       <use xlink:href="#DejaVuSans-30"/>
       <use xlink:href="#DejaVuSans-2e" x="63.623047"/>
       <use xlink:href="#DejaVuSans-32" x="95.410156"/>
      </g>
     </g>
    </g>
    <g id="ytick_3">
     <g id="line2d_9">
      <g>
       <use xlink:href="#m8165d547e0" x="57.6" y="206.208" style="stroke: #000000; stroke-width: 0.8"/>
      </g>
     </g>
     <g id="text_10">
      <!-- 0.4 -->
      <g transform="translate(34.696875 210.007219) scale(0.1 -0.1)">
       <use xlink:href="#DejaVuSans-30"/>
       <use xlink:href="#DejaVuSans-2e" x="63.623047"/>
       <use xlink:href="#DejaVuSans-34" x="95.410156"/>
      </g>
     </g>
    </g>
    <g id="ytick_4">
     <g id="line2d_10">
      <g>
       <use xlink:href="#m8165d547e0" x="57.6" y="155.52" style="stroke: #000000; stroke-width: 0.8"/>
      </g>
     </g>
     <g id="text_11">
      <!-- 0.6 -->
      <g transform="translate(34.696875 159.319219) scale(0.1 -0.1)">
       <use xlink:href="#DejaVuSans-30"/>
       <use xlink:href="#DejaVuSans-2e" x="63.623047"/>
       <use xlink:href="#DejaVuSans-36" x="95.410156"/>
      </g>
     </g>
    </g>
    <g id="ytick_5">
     <g id="line2d_11">
      <g>
       <use xlink:href="#m8165d547e0" x="57.6" y="104.832" style="stroke: #000000; stroke-width: 0.8"/>
      </g>
     </g>
     <g id="text_12">
      <!-- 0.8 -->
      <g transform="translate(34.696875 108.631219) scale(0.1 -0.1)">
       <use xlink:href="#DejaVuSans-30"/>
       <use xlink:href="#DejaVuSans-2e" x="63.623047"/>
       <use xlink:href="#DejaVuSans-38" x="95.410156"/>
      </g>
     </g>
    </g>
    <g id="ytick_6">
     <g id="line2d_12">
      <g>
       <use xlink:href="#m8165d547e0" x="57.6" y="54.144" style="stroke: #000000; stroke-width: 0.8"/>
      </g>
     </g>
     <g id="text_13">
      <!-- 1.0 -->
      <g transform="translate(34.696875 57.943219) scale(0.1 -0.1)">
       <use xlink:href="#DejaVuSans-31"/>
       <use xlink:href="#DejaVuSans-2e" x="63.623047"/>
       <use xlink:href="#DejaVuSans-30" x="95.410156"/>
      </g>
     </g>
    </g>
    <g id="text_14">
     <!-- True Positive Rate -->
     <g transform="translate(28.617187 219.057687) rotate(-90) scale(0.1 -0.1)">
      <defs>
       <path id="DejaVuSans-54" d="M -19 4666 
L 3928 4666 
L 3928 4134 
L 2272 4134 
L 2272 0 
L 1638 0 
L 1638 4134 
L -19 4134 
L -19 4666 
z
" transform="scale(0.015625)"/>
       <path id="DejaVuSans-72" d="M 2631 2963 
Q 2534 3019 2420 3045 
Q 2306 3072 2169 3072 
Q 1681 3072 1420 2755 
Q 1159 2438 1159 1844 
L 1159 0 
L 581 0 
L 581 3500 
L 1159 3500 
L 1159 2956 
Q 1341 3275 1631 3429 
Q 1922 3584 2338 3584 
Q 2397 3584 2469 3576 
Q 2541 3569 2628 3553 
L 2631 2963 
z
" transform="scale(0.015625)"/>
       <path id="DejaVuSans-75" d="M 544 1381 
L 544 3500 
L 1119 3500 
L 1119 1403 
Q 1119 906 1312 657 
Q 1506 409 1894 409 
Q 2359 409 2629 706 
Q 2900 1003 2900 1516 
L 2900 3500 
L 3475 3500 
L 3475 0 
L 2900 0 
L 2900 538 
Q 2691 219 2414 64 
Q 2138 -91 1772 -91 
Q 1169 -91 856 284 
Q 544 659 544 1381 
z
M 1991 3584 
L 1991 3584 
z
" transform="scale(0.015625)"/>
      </defs>
      <use xlink:href="#DejaVuSans-54"/>
      <use xlink:href="#DejaVuSans-72" x="46.333984"/>
      <use xlink:href="#DejaVuSans-75" x="87.447266"/>
      <use xlink:href="#DejaVuSans-65" x="150.826172"/>
      <use xlink:href="#DejaVuSans-20" x="212.349609"/>
      <use xlink:href="#DejaVuSans-50" x="244.136719"/>
      <use xlink:href="#DejaVuSans-6f" x="300.814453"/>
      <use xlink:href="#DejaVuSans-73" x="361.996094"/>
      <use xlink:href="#DejaVuSans-69" x="414.095703"/>
      <use xlink:href="#DejaVuSans-74" x="441.878906"/>
      <use xlink:href="#DejaVuSans-69" x="481.087891"/>
      <use xlink:href="#DejaVuSans-76" x="508.871094"/>
      <use xlink:href="#DejaVuSans-65" x="568.050781"/>
      <use xlink:href="#DejaVuSans-20" x="629.574219"/>
      <use xlink:href="#DejaVuSans-52" x="661.361328"/>
      <use xlink:href="#DejaVuSans-61" x="728.59375"/>
      <use xlink:href="#DejaVuSans-74" x="789.873047"/>
      <use xlink:href="#DejaVuSans-65" x="829.082031"/>
     </g>
    </g>
   </g>
   <g id="line2d_13">
    <path d="M 57.6 307.584 
L 57.707136 306.266112 
L 57.742848 306.266112 
L 57.849984 305.911296 
L 57.885696 305.911296 
L 57.992832 305.708544 
L 58.099968 305.607168 
L 58.171392 305.328384 
L 58.278528 305.252352 
L 58.385664 305.17632 
L 58.564224 305.100288 
L 58.67136 304.973568 
L 58.885632 304.897536 
L 58.921344 304.770816 
L 59.135616 304.720128 
L 59.242752 304.466688 
L 59.421312 304.365312 
L 59.457024 304.28928 
L 59.707008 304.187904 
L 59.778432 304.03584 
L 60.135552 303.934464 
L 60.135552 303.90912 
L 60.385536 303.807744 
L 60.385536 303.7824 
L 60.921216 303.681024 
L 61.028352 303.604992 
L 61.52832 303.503616 
L 61.635456 303.427584 
L 61.956864 303.326208 
L 62.064 303.27552 
L 62.42112 303.224832 
L 62.42112 303.098112 
L 63.099648 302.996736 
L 63.13536 302.89536 
L 63.385344 302.844672 
L 63.385344 302.717952 
L 64.242432 302.616576 
L 64.349568 302.5152 
L 64.492416 302.439168 
L 64.492416 302.38848 
L 65.063808 302.287104 
L 65.063808 302.26176 
L 65.885184 302.160384 
L 65.885184 302.13504 
L 66.70656 302.033664 
L 66.70656 302.00832 
L 67.706496 301.957632 
L 67.813632 301.856256 
L 68.13504 301.75488 
L 68.206464 301.678848 
L 69.634944 301.577472 
L 69.634944 301.552128 
L 70.0992 301.450752 
L 70.206336 301.400064 
L 70.599168 301.324032 
L 70.599168 301.273344 
L 71.17056 301.171968 
L 71.17056 301.12128 
L 71.52768 301.019904 
L 71.52768 300.969216 
L 72.706176 300.86784 
L 72.741888 300.791808 
L 73.6704 300.690432 
L 73.741824 300.6144 
L 75.705984 300.513024 
L 75.81312 300.386304 
L 76.563072 300.310272 
L 76.634496 300.23424 
L 77.170176 300.132864 
L 77.277312 300.082176 
L 77.848704 299.9808 
L 77.848704 299.955456 
L 79.0272 299.85408 
L 79.0272 299.828736 
L 80.384256 299.72736 
L 80.419968 299.676672 
L 81.741312 299.575296 
L 81.741312 299.524608 
L 82.634112 299.423232 
L 82.669824 299.372544 
L 84.348288 299.271168 
L 84.348288 299.245824 
L 86.1696 299.144448 
L 86.1696 299.09376 
L 87.41952 298.992384 
L 87.41952 298.96704 
L 88.31232 298.865664 
L 88.31232 298.84032 
L 89.419392 298.738944 
L 89.455104 298.688256 
L 90.526464 298.58688 
L 90.526464 298.561536 
L 91.240704 298.510848 
L 91.240704 298.434816 
L 92.169216 298.384128 
L 92.169216 298.308096 
L 93.419136 298.232064 
L 93.419136 298.181376 
L 94.347648 298.08 
L 94.419072 298.029312 
L 95.419008 297.927936 
L 95.419008 297.877248 
L 96.204672 297.775872 
L 96.204672 297.750528 
L 97.133184 297.649152 
L 97.204608 297.598464 
L 99.133056 297.497088 
L 99.133056 297.471744 
L 100.132992 297.370368 
L 100.132992 297.345024 
L 101.204352 297.243648 
L 101.204352 297.218304 
L 101.990016 297.116928 
L 101.990016 297.06624 
L 102.882816 296.990208 
L 102.882816 296.93952 
L 104.347008 296.838144 
L 104.418432 296.762112 
L 105.739776 296.660736 
L 105.846912 296.610048 
L 107.096832 296.508672 
L 107.096832 296.483328 
L 108.739584 296.381952 
L 108.775296 296.331264 
L 109.810944 296.229888 
L 109.810944 296.204544 
L 111.275136 296.103168 
L 111.382272 296.027136 
L 113.632128 295.92576 
L 113.632128 295.900416 
L 115.27488 295.79904 
L 115.27488 295.773696 
L 116.060544 295.67232 
L 116.060544 295.646976 
L 116.846208 295.621632 
L 116.846208 295.520256 
L 118.560384 295.41888 
L 118.596096 295.368192 
L 119.488896 295.266816 
L 119.488896 295.241472 
L 120.738816 295.140096 
L 120.738816 295.114752 
L 122.452992 295.013376 
L 122.452992 294.988032 
L 124.488576 294.886656 
L 124.524288 294.835968 
L 125.381376 294.734592 
L 125.4528 294.683904 
L 126.559872 294.582528 
L 126.559872 294.557184 
L 127.2384 294.455808 
L 127.345536 294.379776 
L 128.84544 294.2784 
L 128.84544 294.253056 
L 130.09536 294.15168 
L 130.09536 294.126336 
L 130.916736 294.02496 
L 130.916736 293.999616 
L 132.559488 293.89824 
L 132.559488 293.872896 
L 133.702272 293.77152 
L 133.702272 293.746176 
L 135.559296 293.6448 
L 135.559296 293.619456 
L 137.0592 293.51808 
L 137.0592 293.492736 
L 137.916288 293.39136 
L 137.916288 293.366016 
L 138.559104 293.26464 
L 138.559104 293.239296 
L 140.201856 293.13792 
L 140.27328 293.087232 
L 141.273216 293.0112 
L 141.273216 292.960512 
L 143.808768 292.859136 
L 143.84448 292.808448 
L 145.522944 292.707072 
L 145.522944 292.681728 
L 146.808576 292.580352 
L 146.808576 292.555008 
L 147.41568 292.453632 
L 147.487104 292.352256 
L 148.558464 292.25088 
L 148.558464 292.225536 
L 150.236928 292.12416 
L 150.344064 291.972096 
L 151.451136 291.87072 
L 151.486848 291.820032 
L 153.66528 291.744 
L 153.66528 291.693312 
L 155.772288 291.591936 
L 155.772288 291.566592 
L 158.12928 291.465216 
L 158.12928 291.439872 
L 159.093504 291.338496 
L 159.093504 291.313152 
L 159.950592 291.211776 
L 160.022016 291.161088 
L 160.664832 291.059712 
L 160.664832 291.034368 
L 161.093376 290.932992 
L 161.200512 290.806272 
L 162.379008 290.704896 
L 162.379008 290.654208 
L 163.271808 290.552832 
L 163.271808 290.527488 
L 165.09312 290.426112 
L 165.128832 290.375424 
L 167.092992 290.274048 
L 167.092992 290.248704 
L 169.592832 290.172672 
L 169.592832 290.121984 
L 170.27136 290.020608 
L 170.342784 289.96992 
L 171.8784 289.868544 
L 171.914112 289.817856 
L 172.985472 289.71648 
L 172.985472 289.691136 
L 175.056768 289.58976 
L 175.056768 289.564416 
L 176.128128 289.46304 
L 176.128128 289.437696 
L 178.235136 289.33632 
L 178.30656 289.285632 
L 179.949312 289.184256 
L 179.949312 289.158912 
L 180.592128 289.057536 
L 180.663552 289.006848 
L 181.592064 288.905472 
L 181.592064 288.880128 
L 182.841984 288.778752 
L 182.841984 288.753408 
L 185.056128 288.652032 
L 185.056128 288.626688 
L 187.305984 288.525312 
L 187.305984 288.499968 
L 188.30592 288.423936 
L 188.413056 288.32256 
L 190.305792 288.221184 
L 190.305792 288.19584 
L 191.305728 288.094464 
L 191.377152 288.043776 
L 192.877056 287.9424 
L 192.877056 287.917056 
L 195.0912 287.81568 
L 195.162624 287.739648 
L 196.912512 287.638272 
L 196.912512 287.612928 
L 198.590976 287.511552 
L 198.590976 287.486208 
L 199.805184 287.384832 
L 199.805184 287.359488 
L 200.769408 287.258112 
L 200.840832 287.156736 
L 201.305088 287.05536 
L 201.305088 287.030016 
L 202.59072 286.92864 
L 202.59072 286.903296 
L 204.162048 286.80192 
L 204.269184 286.700544 
L 205.054848 286.599168 
L 205.09056 286.54848 
L 205.697664 286.447104 
L 205.769088 286.396416 
L 207.090432 286.29504 
L 207.090432 286.269696 
L 207.483264 286.16832 
L 207.483264 286.142976 
L 208.733184 286.0416 
L 208.84032 285.990912 
L 209.983104 285.889536 
L 209.983104 285.838848 
L 211.590144 285.737472 
L 211.590144 285.712128 
L 213.625728 285.610752 
L 213.625728 285.585408 
L 214.339968 285.484032 
L 214.37568 285.433344 
L 215.589888 285.331968 
L 215.589888 285.306624 
L 216.554112 285.205248 
L 216.554112 285.179904 
L 217.875456 285.078528 
L 217.875456 285.053184 
L 218.768256 284.951808 
L 218.875392 284.850432 
L 220.196736 284.749056 
L 220.196736 284.723712 
L 222.518016 284.622336 
L 222.518016 284.596992 
L 223.48224 284.495616 
L 223.48224 284.444928 
L 224.875008 284.343552 
L 224.875008 284.318208 
L 225.553536 284.216832 
L 225.589248 284.166144 
L 226.267776 284.064768 
L 226.267776 284.039424 
L 226.69632 283.938048 
L 226.767744 283.836672 
L 227.339136 283.735296 
L 227.339136 283.659264 
L 229.124736 283.557888 
L 229.124736 283.532544 
L 230.44608 283.431168 
L 230.44608 283.405824 
L 231.446016 283.304448 
L 231.446016 283.279104 
L 232.267392 283.177728 
L 232.267392 283.152384 
L 232.803072 283.051008 
L 232.803072 283.00032 
L 234.160128 282.898944 
L 234.160128 282.8736 
L 235.08864 282.772224 
L 235.08864 282.74688 
L 235.874304 282.645504 
L 235.945728 282.468096 
L 237.659904 282.36672 
L 237.76704 282.316032 
L 238.909824 282.24 
L 238.909824 282.189312 
L 240.481152 282.087936 
L 240.588288 282.037248 
L 241.838208 281.935872 
L 241.909632 281.885184 
L 243.48096 281.783808 
L 243.588096 281.73312 
L 244.266624 281.631744 
L 244.37376 281.555712 
L 244.945152 281.454336 
L 245.052288 281.378304 
L 246.552192 281.276928 
L 246.623616 281.22624 
L 247.302144 281.124864 
L 247.40928 281.074176 
L 248.409216 280.9728 
L 248.409216 280.947456 
L 249.37344 280.84608 
L 249.480576 280.744704 
L 249.980544 280.668672 
L 249.980544 280.617984 
L 251.016192 280.516608 
L 251.016192 280.491264 
L 251.373312 280.415232 
L 251.480448 280.3392 
L 252.908928 280.237824 
L 252.908928 280.21248 
L 253.908864 280.111104 
L 253.944576 280.035072 
L 255.587328 279.933696 
L 255.587328 279.908352 
L 257.801472 279.806976 
L 257.801472 279.781632 
L 259.087104 279.680256 
L 259.158528 279.604224 
L 259.944192 279.502848 
L 259.944192 279.477504 
L 260.97984 279.376128 
L 260.97984 279.300096 
L 262.122624 279.224064 
L 262.122624 279.173376 
L 263.051136 279.072 
L 263.158272 278.995968 
L 263.693952 278.894592 
L 263.801088 278.843904 
L 265.193856 278.742528 
L 265.193856 278.717184 
L 266.193792 278.615808 
L 266.193792 278.590464 
L 267.443712 278.489088 
L 267.479424 278.4384 
L 268.65792 278.337024 
L 268.729344 278.286336 
L 271.51488 278.18496 
L 271.550592 278.134272 
L 272.300544 278.032896 
L 272.40768 277.982208 
L 273.229056 277.880832 
L 273.229056 277.855488 
L 273.729024 277.754112 
L 273.83616 277.703424 
L 274.407552 277.602048 
L 274.407552 277.576704 
L 276.050304 277.475328 
L 276.15744 277.42464 
L 276.264576 277.323264 
L 276.371712 277.247232 
L 276.835968 277.145856 
L 276.835968 277.120512 
L 278.050176 277.019136 
L 278.050176 276.993792 
L 278.585856 276.91776 
L 278.621568 276.841728 
L 279.0144 276.740352 
L 279.085824 276.689664 
L 279.72864 276.613632 
L 279.835776 276.5376 
L 280.478592 276.436224 
L 280.514304 276.385536 
L 281.87136 276.28416 
L 281.978496 276.182784 
L 282.514176 276.081408 
L 282.5856 275.980032 
L 284.3712 275.878656 
L 284.478336 275.827968 
L 284.90688 275.726592 
L 284.90688 275.701248 
L 285.871104 275.599872 
L 285.871104 275.574528 
L 287.085312 275.498496 
L 287.192448 275.422464 
L 288.442368 275.346432 
L 288.442368 275.295744 
L 289.263744 275.194368 
L 289.263744 275.14368 
L 290.227968 275.067648 
L 290.335104 274.991616 
L 291.763584 274.89024 
L 291.763584 274.864896 
L 292.799232 274.76352 
L 292.799232 274.738176 
L 294.227712 274.6368 
L 294.227712 274.611456 
L 294.54912 274.535424 
L 294.620544 274.434048 
L 295.763328 274.332672 
L 295.79904 274.25664 
L 296.477568 274.180608 
L 296.477568 274.104576 
L 297.084672 274.0032 
L 297.191808 273.927168 
L 298.941696 273.825792 
L 298.941696 273.800448 
L 299.584512 273.699072 
L 299.620224 273.648384 
L 300.334464 273.547008 
L 300.334464 273.521664 
L 301.655808 273.420288 
L 301.762944 273.318912 
L 302.441472 273.217536 
L 302.441472 273.192192 
L 302.977152 273.090816 
L 303.048576 273.040128 
L 303.869952 272.938752 
L 303.905664 272.86272 
L 305.048448 272.761344 
L 305.08416 272.685312 
L 305.584128 272.583936 
L 305.584128 272.558592 
L 306.51264 272.507904 
L 306.51264 272.431872 
L 307.798272 272.330496 
L 307.905408 272.203776 
L 308.405376 272.1024 
L 308.405376 272.077056 
L 308.976768 271.97568 
L 308.976768 271.950336 
L 310.298112 271.84896 
L 310.405248 271.798272 
L 311.405184 271.696896 
L 311.405184 271.671552 
L 311.905152 271.570176 
L 311.905152 271.544832 
L 312.58368 271.443456 
L 312.58368 271.418112 
L 313.440768 271.316736 
L 313.440768 271.291392 
L 313.976448 271.21536 
L 313.976448 271.164672 
L 314.654976 271.08864 
L 314.7264 270.987264 
L 315.369216 270.885888 
L 315.369216 270.8352 
L 315.79776 270.784512 
L 315.869184 270.657792 
L 316.761984 270.556416 
L 316.761984 270.531072 
L 317.04768 270.45504 
L 317.154816 270.379008 
L 318.011904 270.277632 
L 318.083328 270.226944 
L 319.1904 270.125568 
L 319.261824 270.049536 
L 319.976064 269.94816 
L 320.011776 269.872128 
L 321.047424 269.770752 
L 321.047424 269.745408 
L 322.011648 269.644032 
L 322.011648 269.618688 
L 322.654464 269.517312 
L 322.654464 269.491968 
L 323.511552 269.390592 
L 323.618688 269.31456 
L 324.868608 269.213184 
L 324.90432 269.162496 
L 325.26144 269.06112 
L 325.332864 268.909056 
L 325.79712 268.80768 
L 325.904256 268.731648 
L 326.404224 268.630272 
L 326.404224 268.604928 
L 327.189888 268.503552 
L 327.261312 268.402176 
L 328.046976 268.3008 
L 328.046976 268.275456 
L 329.154048 268.17408 
L 329.261184 268.072704 
L 329.689728 267.971328 
L 329.796864 267.92064 
L 330.225408 267.819264 
L 330.332544 267.6672 
L 330.832512 267.565824 
L 330.903936 267.515136 
L 331.6896 267.41376 
L 331.761024 267.261696 
L 332.618112 267.16032 
L 332.653824 267.0336 
L 333.225216 266.932224 
L 333.225216 266.90688 
L 333.83232 266.805504 
L 333.939456 266.754816 
L 334.439424 266.65344 
L 334.439424 266.602752 
L 334.72512 266.501376 
L 334.832256 266.425344 
L 335.153664 266.323968 
L 335.225088 266.27328 
L 335.510784 266.197248 
L 335.510784 266.14656 
L 336.33216 266.045184 
L 336.439296 265.994496 
L 336.653568 265.918464 
L 336.653568 265.867776 
L 337.546368 265.7664 
L 337.653504 265.690368 
L 338.082048 265.588992 
L 338.189184 265.487616 
L 338.796288 265.38624 
L 338.796288 265.360896 
L 339.974784 265.25952 
L 340.046208 265.1328 
L 341.438976 265.031424 
L 341.438976 264.955392 
L 341.831808 264.854016 
L 341.831808 264.777984 
L 342.117504 264.701952 
L 342.117504 264.651264 
L 343.224576 264.549888 
L 343.331712 264.423168 
L 343.581696 264.321792 
L 343.688832 264.195072 
L 344.438784 264.093696 
L 344.54592 264.017664 
L 345.153024 263.916288 
L 345.188736 263.840256 
L 345.581568 263.73888 
L 345.581568 263.637504 
L 346.295808 263.536128 
L 346.402944 263.460096 
L 346.831488 263.35872 
L 346.938624 263.282688 
L 347.438592 263.181312 
L 347.438592 263.155968 
L 348.009984 263.054592 
L 348.11712 262.97856 
L 348.367104 262.927872 
L 348.402816 262.775808 
L 348.974208 262.674432 
L 349.00992 262.5984 
L 349.509888 262.497024 
L 349.581312 262.395648 
L 349.759872 262.319616 
L 349.867008 262.192896 
L 350.331264 262.142208 
L 350.4384 262.015488 
L 350.688384 261.914112 
L 350.79552 261.83808 
L 351.15264 261.736704 
L 351.259776 261.686016 
L 351.438336 261.58464 
L 351.50976 261.432576 
L 352.224 261.356544 
L 352.331136 261.255168 
L 352.795392 261.153792 
L 352.902528 261.07776 
L 353.366784 260.976384 
L 353.402496 260.925696 
L 353.616768 260.82432 
L 353.688192 260.773632 
L 354.116736 260.672256 
L 354.116736 260.646912 
L 354.36672 260.596224 
L 354.473856 260.44416 
L 355.116672 260.342784 
L 355.188096 260.292096 
L 355.509504 260.19072 
L 355.509504 260.165376 
L 356.080896 260.064 
L 356.080896 260.013312 
L 356.937984 259.911936 
L 357.04512 259.759872 
L 357.687936 259.658496 
L 357.795072 259.55712 
L 358.11648 259.455744 
L 358.152192 259.405056 
L 358.509312 259.379712 
L 358.616448 259.075584 
L 359.00928 258.974208 
L 359.116416 258.847488 
L 359.616384 258.771456 
L 359.652096 258.695424 
L 360.652032 258.594048 
L 360.723456 258.441984 
L 360.866304 258.365952 
L 360.937728 258.264576 
L 361.294848 258.1632 
L 361.401984 258.087168 
L 361.759104 258.011136 
L 361.86624 257.859072 
L 362.366208 257.757696 
L 362.366208 257.732352 
L 362.866176 257.630976 
L 362.973312 257.5296 
L 363.366144 257.428224 
L 363.47328 257.326848 
L 363.758976 257.225472 
L 363.866112 257.124096 
L 364.080384 257.048064 
L 364.151808 256.870656 
L 364.687488 256.76928 
L 364.794624 256.667904 
L 365.151744 256.566528 
L 365.25888 256.490496 
L 365.544576 256.38912 
L 365.544576 256.363776 
L 366.223104 256.287744 
L 366.33024 256.161024 
L 366.830208 256.059648 
L 366.901632 256.00896 
L 367.330176 255.907584 
L 367.4016 255.730176 
L 367.794432 255.6288 
L 367.865856 255.552768 
L 368.401536 255.451392 
L 368.47296 255.37536 
L 369.080064 255.273984 
L 369.151488 255.172608 
L 369.437184 255.096576 
L 369.437184 255.045888 
L 369.865728 254.944512 
L 369.865728 254.919168 
L 370.25856 254.843136 
L 370.365696 254.767104 
L 371.544192 254.665728 
L 371.579904 254.61504 
L 372.008448 254.513664 
L 372.079872 254.462976 
L 372.365568 254.412288 
L 372.472704 254.133504 
L 372.57984 254.057472 
L 372.686976 253.930752 
L 372.829824 253.829376 
L 372.901248 253.702656 
L 373.079808 253.60128 
L 373.186944 253.499904 
L 373.794048 253.423872 
L 373.901184 253.22112 
L 374.151168 253.22112 
L 374.151168 253.0944 
L 374.758272 252.993024 
L 374.758272 252.96768 
L 375.115392 252.866304 
L 375.186816 252.790272 
L 375.686784 252.688896 
L 375.758208 252.612864 
L 375.97248 252.58752 
L 375.97248 252.486144 
L 376.3296 252.384768 
L 376.401024 252.308736 
L 376.651008 252.20736 
L 376.758144 252.055296 
L 377.150976 251.979264 
L 377.2224 251.776512 
L 377.829504 251.675136 
L 377.829504 251.649792 
L 377.972352 251.649792 
L 378.079488 251.44704 
L 378.543744 251.345664 
L 378.543744 251.32032 
L 378.972288 251.218944 
L 379.079424 251.016192 
L 379.436544 250.914816 
L 379.507968 250.838784 
L 379.972224 250.737408 
L 380.007936 250.68672 
L 380.400768 250.585344 
L 380.472192 250.43328 
L 380.757888 250.357248 
L 380.865024 250.230528 
L 381.15072 250.129152 
L 381.257856 249.977088 
L 381.293568 249.977088 
L 381.400704 249.79968 
L 381.543552 249.698304 
L 381.614976 249.622272 
L 381.86496 249.54624 
L 381.86496 249.444864 
L 382.436352 249.368832 
L 382.543488 249.242112 
L 382.75776 249.191424 
L 382.864896 249.064704 
L 383.186304 248.963328 
L 383.257728 248.861952 
L 383.686272 248.760576 
L 383.793408 248.583168 
L 383.936256 248.481792 
L 384.043392 248.329728 
L 384.221952 248.253696 
L 384.293376 248.0256 
L 384.471936 247.949568 
L 384.507648 247.797504 
L 384.686208 247.746816 
L 384.72192 247.620096 
L 385.221888 247.594752 
L 385.329024 247.341312 
L 385.471872 247.239936 
L 385.579008 247.062528 
L 385.864704 247.037184 
L 385.97184 246.783744 
L 386.078976 246.682368 
L 386.078976 246.657024 
L 386.50752 246.555648 
L 386.614656 246.403584 
L 386.68608 246.37824 
L 386.721792 246.200832 
L 386.971776 246.099456 
L 387.078912 245.896704 
L 387.40032 245.795328 
L 387.40032 245.719296 
L 387.828864 245.61792 
L 387.900288 245.567232 
L 388.150272 245.465856 
L 388.221696 245.389824 
L 388.435968 245.313792 
L 388.507392 245.161728 
L 388.793088 245.060352 
L 388.793088 245.035008 
L 389.18592 244.933632 
L 389.293056 244.832256 
L 389.400192 244.756224 
L 389.435904 244.654848 
L 389.685888 244.553472 
L 389.793024 244.300032 
L 390.07872 244.198656 
L 390.150144 244.09728 
L 390.507264 244.021248 
L 390.6144 243.84384 
L 390.828672 243.767808 
L 390.935808 243.615744 
L 391.185792 243.514368 
L 391.292928 243.311616 
L 391.471488 243.21024 
L 391.542912 243.032832 
L 391.721472 243.007488 
L 391.792896 242.83008 
L 391.900032 242.779392 
L 391.971456 242.601984 
L 392.22144 242.500608 
L 392.328576 242.424576 
L 392.435712 242.399232 
L 392.507136 242.247168 
L 392.649984 242.171136 
L 392.75712 241.968384 
L 392.864256 241.94304 
L 392.971392 241.664256 
L 393.399936 241.56288 
L 393.435648 241.461504 
L 393.757056 241.385472 
L 393.757056 241.334784 
L 394.114176 241.284096 
L 394.221312 240.954624 
L 394.435584 240.853248 
L 394.507008 240.625152 
L 394.792704 240.523776 
L 394.792704 240.498432 
L 394.971264 240.4224 
L 395.0784 240.194304 
L 395.43552 240.092928 
L 395.506944 240.04224 
L 395.61408 239.966208 
L 395.685504 239.763456 
L 395.864064 239.66208 
L 395.9712 239.357952 
L 396.185472 239.256576 
L 396.292608 238.977792 
L 396.364032 238.927104 
L 396.435456 238.825728 
L 396.828288 238.724352 
L 396.935424 238.369536 
L 397.006848 238.26816 
L 397.006848 238.242816 
L 397.185408 238.166784 
L 397.256832 237.710592 
L 397.39968 237.609216 
L 397.506816 237.406464 
L 397.649664 237.330432 
L 397.649664 237.279744 
L 397.792512 237.279744 
L 397.863936 237.051648 
L 397.971072 237.00096 
L 398.078208 236.696832 
L 398.399616 236.595456 
L 398.506752 236.392704 
L 398.542464 236.392704 
L 398.613888 236.139264 
L 398.721024 236.063232 
L 398.792448 235.86048 
L 398.935296 235.784448 
L 399.042432 235.632384 
L 399.292416 235.556352 
L 399.399552 235.328256 
L 399.470976 235.22688 
L 399.578112 234.998784 
L 399.649536 234.897408 
L 399.756672 234.745344 
L 399.863808 234.643968 
L 399.863808 234.59328 
L 400.220928 234.567936 
L 400.292352 234.365184 
L 400.542336 234.289152 
L 400.649472 234.137088 
L 400.828032 234.035712 
L 400.935168 233.680896 
L 401.078016 233.57952 
L 401.14944 233.376768 
L 401.292288 233.300736 
L 401.399424 233.047296 
L 401.435136 233.047296 
L 401.542272 232.869888 
L 401.577984 232.869888 
L 401.613696 232.515072 
L 401.827968 232.43904 
L 401.935104 232.286976 
L 402.113664 232.1856 
L 402.2208 232.008192 
L 402.292224 231.906816 
L 402.363648 231.830784 
L 402.506496 231.729408 
L 402.613632 231.628032 
L 402.75648 231.526656 
L 402.863616 231.273216 
L 402.93504 231.247872 
L 403.042176 230.9184 
L 403.29216 230.817024 
L 403.399296 230.588928 
L 403.47072 230.487552 
L 403.506432 230.335488 
L 403.684992 230.234112 
L 403.756416 229.929984 
L 403.970688 229.828608 
L 404.077824 229.752576 
L 404.18496 229.6512 
L 404.256384 229.549824 
L 404.434944 229.473792 
L 404.54208 229.372416 
L 404.613504 229.296384 
L 404.72064 229.042944 
L 404.792064 228.966912 
L 404.8992 228.561408 
L 405.042048 228.460032 
L 405.149184 228.155904 
L 405.292032 228.105216 
L 405.399168 227.927808 
L 405.542016 227.826432 
L 405.649152 227.649024 
L 405.756288 227.547648 
L 405.863424 227.319552 
L 406.006272 227.319552 
L 406.113408 227.015424 
L 406.184832 227.015424 
L 406.291968 226.711296 
L 406.363392 226.685952 
L 406.470528 226.305792 
L 406.50624 226.305792 
L 406.613376 225.874944 
L 406.6848 225.773568 
L 406.791936 225.621504 
L 406.827648 225.621504 
L 406.899072 225.418752 
L 407.04192 225.393408 
L 407.149056 224.911872 
L 407.184768 224.911872 
L 407.291904 224.70912 
L 407.506176 224.633088 
L 407.613312 223.9488 
L 407.827584 223.872768 
L 407.93472 223.3152 
L 408.041856 223.239168 
L 408.148992 222.859008 
L 408.184704 222.859008 
L 408.29184 222.42816 
L 408.327552 222.42816 
L 408.434688 221.997312 
L 408.577536 221.895936 
L 408.684672 221.439744 
L 408.791808 221.338368 
L 408.898944 221.084928 
L 408.934656 221.084928 
L 409.041792 220.223232 
L 409.113216 220.172544 
L 409.220352 219.285504 
L 409.291776 219.209472 
L 409.398912 218.905344 
L 409.434624 218.905344 
L 409.54176 217.86624 
L 409.648896 217.764864 
L 409.756032 217.435392 
L 409.827456 217.435392 
L 409.934592 216.497664 
L 409.970304 216.497664 
L 410.07744 215.230464 
L 410.148864 215.154432 
L 410.256 214.368768 
L 410.327424 214.368768 
L 410.43456 213.8112 
L 410.505984 213.785856 
L 410.61312 213.1776 
L 410.648832 213.1776 
L 410.720256 212.772096 
L 410.79168 212.772096 
L 410.898816 211.074048 
L 410.97024 211.074048 
L 411.077376 210.26304 
L 411.1488 210.237696 
L 411.255936 209.933568 
L 411.32736 209.933568 
L 411.434496 208.666368 
L 411.470208 208.666368 
L 411.577344 207.60192 
L 411.613056 207.60192 
L 411.720192 206.96832 
L 411.791616 206.96832 
L 411.898752 206.385408 
L 411.970176 206.309376 
L 412.077312 203.774976 
L 412.148736 203.6736 
L 412.255872 202.203648 
L 412.291584 202.203648 
L 412.39872 201.494016 
L 412.434432 201.494016 
L 412.541568 200.530944 
L 412.57728 200.530944 
L 412.684416 199.314432 
L 412.720128 199.314432 
L 412.827264 197.540352 
L 412.862976 197.540352 
L 412.970112 196.121088 
L 413.005824 196.121088 
L 413.11296 195.05664 
L 413.148672 195.05664 
L 413.255808 193.586688 
L 413.29152 193.586688 
L 413.398656 192.218112 
L 413.434368 192.218112 
L 413.541504 190.165248 
L 413.577216 190.165248 
L 413.684352 187.32672 
L 413.720064 187.32672 
L 413.8272 183.981312 
L 413.862912 183.981312 
L 413.970048 179.5968 
L 414.041472 179.495424 
L 414.148608 171.664128 
L 414.18432 171.664128 
L 414.291456 168.293376 
L 414.327168 168.293376 
L 414.434304 158.738688 
L 414.470016 158.738688 
L 414.577152 146.39616 
L 414.612864 146.39616 
L 414.72 54.144 
L 414.72 54.144 
" clip-path="url(#p6da8803180)" style="fill: none; stroke: #0000ff; stroke-width: 2; stroke-linecap: square"/>
   </g>
   <g id="line2d_14">
    <path d="M 57.6 307.584 
L 414.72 54.144 
" clip-path="url(#p6da8803180)" style="fill: none; stroke-dasharray: 5.55,2.4; stroke-dashoffset: 0; stroke: #808080; stroke-width: 1.5"/>
   </g>
   <g id="patch_3">
    <path d="M 57.6 307.584 
L 57.6 41.472 
" style="fill: none; stroke: #000000; stroke-width: 0.8; stroke-linejoin: miter; stroke-linecap: square"/>
   </g>
   <g id="patch_4">
    <path d="M 414.72 307.584 
L 414.72 41.472 
" style="fill: none; stroke: #000000; stroke-width: 0.8; stroke-linejoin: miter; stroke-linecap: square"/>
   </g>
   <g id="patch_5">
    <path d="M 57.6 307.584 
L 414.72 307.584 
" style="fill: none; stroke: #000000; stroke-width: 0.8; stroke-linejoin: miter; stroke-linecap: square"/>
   </g>
   <g id="patch_6">
    <path d="M 57.6 41.472 
L 414.72 41.472 
" style="fill: none; stroke: #000000; stroke-width: 0.8; stroke-linejoin: miter; stroke-linecap: square"/>
   </g>
   <g id="text_15">
    <!-- Receiver Operating Characteristic (ROC) Curve -->
    <g transform="translate(95.3775 35.472) scale(0.12 -0.12)">
     <defs>
      <path id="DejaVuSans-63" d="M 3122 3366 
L 3122 2828 
Q 2878 2963 2633 3030 
Q 2388 3097 2138 3097 
Q 1578 3097 1268 2742 
Q 959 2388 959 1747 
Q 959 1106 1268 751 
Q 1578 397 2138 397 
Q 2388 397 2633 464 
Q 2878 531 3122 666 
L 3122 134 
Q 2881 22 2623 -34 
Q 2366 -91 2075 -91 
Q 1284 -91 818 406 
Q 353 903 353 1747 
Q 353 2603 823 3093 
Q 1294 3584 2113 3584 
Q 2378 3584 2631 3529 
Q 2884 3475 3122 3366 
z
" transform="scale(0.015625)"/>
      <path id="DejaVuSans-4f" d="M 2522 4238 
Q 1834 4238 1429 3725 
Q 1025 3213 1025 2328 
Q 1025 1447 1429 934 
Q 1834 422 2522 422 
Q 3209 422 3611 934 
Q 4013 1447 4013 2328 
Q 4013 3213 3611 3725 
Q 3209 4238 2522 4238 
z
M 2522 4750 
Q 3503 4750 4090 4092 
Q 4678 3434 4678 2328 
Q 4678 1225 4090 567 
Q 3503 -91 2522 -91 
Q 1538 -91 948 565 
Q 359 1222 359 2328 
Q 359 3434 948 4092 
Q 1538 4750 2522 4750 
z
" transform="scale(0.015625)"/>
      <path id="DejaVuSans-70" d="M 1159 525 
L 1159 -1331 
L 581 -1331 
L 581 3500 
L 1159 3500 
L 1159 2969 
Q 1341 3281 1617 3432 
Q 1894 3584 2278 3584 
Q 2916 3584 3314 3078 
Q 3713 2572 3713 1747 
Q 3713 922 3314 415 
Q 2916 -91 2278 -91 
Q 1894 -91 1617 61 
Q 1341 213 1159 525 
z
M 3116 1747 
Q 3116 2381 2855 2742 
Q 2594 3103 2138 3103 
Q 1681 3103 1420 2742 
Q 1159 2381 1159 1747 
Q 1159 1113 1420 752 
Q 1681 391 2138 391 
Q 2594 391 2855 752 
Q 3116 1113 3116 1747 
z
" transform="scale(0.015625)"/>
      <path id="DejaVuSans-6e" d="M 3513 2113 
L 3513 0 
L 2938 0 
L 2938 2094 
Q 2938 2591 2744 2837 
Q 2550 3084 2163 3084 
Q 1697 3084 1428 2787 
Q 1159 2491 1159 1978 
L 1159 0 
L 581 0 
L 581 3500 
L 1159 3500 
L 1159 2956 
Q 1366 3272 1645 3428 
Q 1925 3584 2291 3584 
Q 2894 3584 3203 3211 
Q 3513 2838 3513 2113 
z
" transform="scale(0.015625)"/>
      <path id="DejaVuSans-67" d="M 2906 1791 
Q 2906 2416 2648 2759 
Q 2391 3103 1925 3103 
Q 1463 3103 1205 2759 
Q 947 2416 947 1791 
Q 947 1169 1205 825 
Q 1463 481 1925 481 
Q 2391 481 2648 825 
Q 2906 1169 2906 1791 
z
M 3481 434 
Q 3481 -459 3084 -895 
Q 2688 -1331 1869 -1331 
Q 1566 -1331 1297 -1286 
Q 1028 -1241 775 -1147 
L 775 -588 
Q 1028 -725 1275 -790 
Q 1522 -856 1778 -856 
Q 2344 -856 2625 -561 
Q 2906 -266 2906 331 
L 2906 616 
Q 2728 306 2450 153 
Q 2172 0 1784 0 
Q 1141 0 747 490 
Q 353 981 353 1791 
Q 353 2603 747 3093 
Q 1141 3584 1784 3584 
Q 2172 3584 2450 3431 
Q 2728 3278 2906 2969 
L 2906 3500 
L 3481 3500 
L 3481 434 
z
" transform="scale(0.015625)"/>
      <path id="DejaVuSans-43" d="M 4122 4306 
L 4122 3641 
Q 3803 3938 3442 4084 
Q 3081 4231 2675 4231 
Q 1875 4231 1450 3742 
Q 1025 3253 1025 2328 
Q 1025 1406 1450 917 
Q 1875 428 2675 428 
Q 3081 428 3442 575 
Q 3803 722 4122 1019 
L 4122 359 
Q 3791 134 3420 21 
Q 3050 -91 2638 -91 
Q 1578 -91 968 557 
Q 359 1206 359 2328 
Q 359 3453 968 4101 
Q 1578 4750 2638 4750 
Q 3056 4750 3426 4639 
Q 3797 4528 4122 4306 
z
" transform="scale(0.015625)"/>
      <path id="DejaVuSans-68" d="M 3513 2113 
L 3513 0 
L 2938 0 
L 2938 2094 
Q 2938 2591 2744 2837 
Q 2550 3084 2163 3084 
Q 1697 3084 1428 2787 
Q 1159 2491 1159 1978 
L 1159 0 
L 581 0 
L 581 4863 
L 1159 4863 
L 1159 2956 
Q 1366 3272 1645 3428 
Q 1925 3584 2291 3584 
Q 2894 3584 3203 3211 
Q 3513 2838 3513 2113 
z
" transform="scale(0.015625)"/>
      <path id="DejaVuSans-28" d="M 1984 4856 
Q 1566 4138 1362 3434 
Q 1159 2731 1159 2009 
Q 1159 1288 1364 580 
Q 1569 -128 1984 -844 
L 1484 -844 
Q 1016 -109 783 600 
Q 550 1309 550 2009 
Q 550 2706 781 3412 
Q 1013 4119 1484 4856 
L 1984 4856 
z
" transform="scale(0.015625)"/>
      <path id="DejaVuSans-29" d="M 513 4856 
L 1013 4856 
Q 1481 4119 1714 3412 
Q 1947 2706 1947 2009 
Q 1947 1309 1714 600 
Q 1481 -109 1013 -844 
L 513 -844 
Q 928 -128 1133 580 
Q 1338 1288 1338 2009 
Q 1338 2731 1133 3434 
Q 928 4138 513 4856 
z
" transform="scale(0.015625)"/>
     </defs>
     <use xlink:href="#DejaVuSans-52"/>
     <use xlink:href="#DejaVuSans-65" x="64.982422"/>
     <use xlink:href="#DejaVuSans-63" x="126.505859"/>
     <use xlink:href="#DejaVuSans-65" x="181.486328"/>
     <use xlink:href="#DejaVuSans-69" x="243.009766"/>
     <use xlink:href="#DejaVuSans-76" x="270.792969"/>
     <use xlink:href="#DejaVuSans-65" x="329.972656"/>
     <use xlink:href="#DejaVuSans-72" x="391.496094"/>
     <use xlink:href="#DejaVuSans-20" x="432.609375"/>
     <use xlink:href="#DejaVuSans-4f" x="464.396484"/>
     <use xlink:href="#DejaVuSans-70" x="543.107422"/>
     <use xlink:href="#DejaVuSans-65" x="606.583984"/>
     <use xlink:href="#DejaVuSans-72" x="668.107422"/>
     <use xlink:href="#DejaVuSans-61" x="709.220703"/>
     <use xlink:href="#DejaVuSans-74" x="770.5"/>
     <use xlink:href="#DejaVuSans-69" x="809.708984"/>
     <use xlink:href="#DejaVuSans-6e" x="837.492188"/>
     <use xlink:href="#DejaVuSans-67" x="900.871094"/>
     <use xlink:href="#DejaVuSans-20" x="964.347656"/>
     <use xlink:href="#DejaVuSans-43" x="996.134766"/>
     <use xlink:href="#DejaVuSans-68" x="1065.958984"/>
     <use xlink:href="#DejaVuSans-61" x="1129.337891"/>
     <use xlink:href="#DejaVuSans-72" x="1190.617188"/>
     <use xlink:href="#DejaVuSans-61" x="1231.730469"/>
     <use xlink:href="#DejaVuSans-63" x="1293.009766"/>
     <use xlink:href="#DejaVuSans-74" x="1347.990234"/>
     <use xlink:href="#DejaVuSans-65" x="1387.199219"/>
     <use xlink:href="#DejaVuSans-72" x="1448.722656"/>
     <use xlink:href="#DejaVuSans-69" x="1489.835938"/>
     <use xlink:href="#DejaVuSans-73" x="1517.619141"/>
     <use xlink:href="#DejaVuSans-74" x="1569.71875"/>
     <use xlink:href="#DejaVuSans-69" x="1608.927734"/>
     <use xlink:href="#DejaVuSans-63" x="1636.710938"/>
     <use xlink:href="#DejaVuSans-20" x="1691.691406"/>
     <use xlink:href="#DejaVuSans-28" x="1723.478516"/>
     <use xlink:href="#DejaVuSans-52" x="1762.492188"/>
     <use xlink:href="#DejaVuSans-4f" x="1831.974609"/>
     <use xlink:href="#DejaVuSans-43" x="1910.685547"/>
     <use xlink:href="#DejaVuSans-29" x="1980.509766"/>
     <use xlink:href="#DejaVuSans-20" x="2019.523438"/>
     <use xlink:href="#DejaVuSans-43" x="2051.310547"/>
     <use xlink:href="#DejaVuSans-75" x="2121.134766"/>
     <use xlink:href="#DejaVuSans-72" x="2184.513672"/>
     <use xlink:href="#DejaVuSans-76" x="2225.626953"/>
     <use xlink:href="#DejaVuSans-65" x="2284.806641"/>
    </g>
   </g>
   <g id="legend_1">
    <g id="patch_7">
     <path d="M 253.595 302.584 
L 407.72 302.584 
Q 409.72 302.584 409.72 300.584 
L 409.72 286.905875 
Q 409.72 284.905875 407.72 284.905875 
L 253.595 284.905875 
Q 251.595 284.905875 251.595 286.905875 
L 251.595 300.584 
Q 251.595 302.584 253.595 302.584 
z
" style="fill: #ffffff; opacity: 0.8; stroke: #cccccc; stroke-linejoin: miter"/>
    </g>
    <g id="line2d_15">
     <path d="M 255.595 293.004312 
L 265.595 293.004312 
L 275.595 293.004312 
" style="fill: none; stroke: #0000ff; stroke-width: 2; stroke-linecap: square"/>
    </g>
    <g id="text_16">
     <!-- ROC curve (AUC = 0.12) -->
     <g transform="translate(283.595 296.504312) scale(0.1 -0.1)">
      <defs>
       <path id="DejaVuSans-41" d="M 2188 4044 
L 1331 1722 
L 3047 1722 
L 2188 4044 
z
M 1831 4666 
L 2547 4666 
L 4325 0 
L 3669 0 
L 3244 1197 
L 1141 1197 
L 716 0 
L 50 0 
L 1831 4666 
z
" transform="scale(0.015625)"/>
       <path id="DejaVuSans-55" d="M 556 4666 
L 1191 4666 
L 1191 1831 
Q 1191 1081 1462 751 
Q 1734 422 2344 422 
Q 2950 422 3222 751 
Q 3494 1081 3494 1831 
L 3494 4666 
L 4128 4666 
L 4128 1753 
Q 4128 841 3676 375 
Q 3225 -91 2344 -91 
Q 1459 -91 1007 375 
Q 556 841 556 1753 
L 556 4666 
z
" transform="scale(0.015625)"/>
       <path id="DejaVuSans-3d" d="M 678 2906 
L 4684 2906 
L 4684 2381 
L 678 2381 
L 678 2906 
z
M 678 1631 
L 4684 1631 
L 4684 1100 
L 678 1100 
L 678 1631 
z
" transform="scale(0.015625)"/>
      </defs>
      <use xlink:href="#DejaVuSans-52"/>
      <use xlink:href="#DejaVuSans-4f" x="69.482422"/>
      <use xlink:href="#DejaVuSans-43" x="148.193359"/>
      <use xlink:href="#DejaVuSans-20" x="218.017578"/>
      <use xlink:href="#DejaVuSans-63" x="249.804688"/>
      <use xlink:href="#DejaVuSans-75" x="304.785156"/>
      <use xlink:href="#DejaVuSans-72" x="368.164062"/>
      <use xlink:href="#DejaVuSans-76" x="409.277344"/>
      <use xlink:href="#DejaVuSans-65" x="468.457031"/>
      <use xlink:href="#DejaVuSans-20" x="529.980469"/>
      <use xlink:href="#DejaVuSans-28" x="561.767578"/>
      <use xlink:href="#DejaVuSans-41" x="600.78125"/>
      <use xlink:href="#DejaVuSans-55" x="669.189453"/>
      <use xlink:href="#DejaVuSans-43" x="742.382812"/>
      <use xlink:href="#DejaVuSans-20" x="812.207031"/>
      <use xlink:href="#DejaVuSans-3d" x="843.994141"/>
      <use xlink:href="#DejaVuSans-20" x="927.783203"/>
      <use xlink:href="#DejaVuSans-30" x="959.570312"/>
      <use xlink:href="#DejaVuSans-2e" x="1023.193359"/>
      <use xlink:href="#DejaVuSans-31" x="1054.980469"/>
      <use xlink:href="#DejaVuSans-32" x="1118.603516"/>
      <use xlink:href="#DejaVuSans-29" x="1182.226562"/>
     </g>
    </g>
   </g>
  </g>
 </g>
 <defs>
  <clipPath id="p6da8803180">
   <rect x="57.6" y="41.472" width="357.12" height="266.112"/>
  </clipPath>
 </defs>
</svg>
