<?xml version="1.0" encoding="utf-8" standalone="no"?>
<!DOCTYPE svg PUBLIC "-//W3C//DTD SVG 1.1//EN"
  "http://www.w3.org/Graphics/SVG/1.1/DTD/svg11.dtd">
<svg xmlns:xlink="http://www.w3.org/1999/xlink" width="720pt" height="288pt" viewBox="0 0 720 288" xmlns="http://www.w3.org/2000/svg" version="1.1">
 <metadata>
  <rdf:RDF xmlns:dc="http://purl.org/dc/elements/1.1/" xmlns:cc="http://creativecommons.org/ns#" xmlns:rdf="http://www.w3.org/1999/02/22-rdf-syntax-ns#">
   <cc:Work>
    <dc:type rdf:resource="http://purl.org/dc/dcmitype/StillImage"/>
    <dc:date>2025-03-24T11:22:30.246165</dc:date>
    <dc:format>image/svg+xml</dc:format>
    <dc:creator>
     <cc:Agent>
      <dc:title>Matplotlib v3.9.2, https://matplotlib.org/</dc:title>
     </cc:Agent>
    </dc:creator>
   </cc:Work>
  </rdf:RDF>
 </metadata>
 <defs>
  <style type="text/css">*{stroke-linejoin: round; stroke-linecap: butt}</style>
 </defs>
 <g id="figure_1">
  <g id="patch_1">
   <path d="M 0 288 
L 720 288 
L 720 0 
L 0 0 
z
" style="fill: #ffffff"/>
  </g>
  <g id="axes_1">
   <g id="patch_2">
    <path d="M 54.2 246.04 
L 357.795 246.04 
L 357.795 47.04 
L 54.2 47.04 
z
" style="fill: #ffffff"/>
   </g>
   <g id="matplotlib.axis_1">
    <g id="xtick_1">
     <g id="line2d_1">
      <defs>
       <path id="me3562e7f12" d="M 0 0 
L 0 3.5 
" style="stroke: #000000; stroke-width: 0.8"/>
      </defs>
      <g>
       <use xlink:href="#me3562e7f12" x="89.969776" y="246.04" style="stroke: #000000; stroke-width: 0.8"/>
      </g>
     </g>
     <g id="text_1">
      <!-- 10 -->
      <g transform="translate(83.607276 260.638438) scale(0.1 -0.1)">
       <defs>
        <path id="DejaVuSans-31" d="M 794 531 
L 1825 531 
L 1825 4091 
L 703 3866 
L 703 4441 
L 1819 4666 
L 2450 4666 
L 2450 531 
L 3481 531 
L 3481 0 
L 794 0 
L 794 531 
z
" transform="scale(0.015625)"/>
        <path id="DejaVuSans-30" d="M 2034 4250 
Q 1547 4250 1301 3770 
Q 1056 3291 1056 2328 
Q 1056 1369 1301 889 
Q 1547 409 2034 409 
Q 2525 409 2770 889 
Q 3016 1369 3016 2328 
Q 3016 3291 2770 3770 
Q 2525 4250 2034 4250 
z
M 2034 4750 
Q 2819 4750 3233 4129 
Q 3647 3509 3647 2328 
Q 3647 1150 3233 529 
Q 2819 -91 2034 -91 
Q 1250 -91 836 529 
Q 422 1150 422 2328 
Q 422 3509 836 4129 
Q 1250 4750 2034 4750 
z
" transform="scale(0.015625)"/>
       </defs>
       <use xlink:href="#DejaVuSans-31"/>
       <use xlink:href="#DejaVuSans-30" x="63.623047"/>
      </g>
     </g>
    </g>
    <g id="xtick_2">
     <g id="line2d_2">
      <g>
       <use xlink:href="#me3562e7f12" x="146.479994" y="246.04" style="stroke: #000000; stroke-width: 0.8"/>
      </g>
     </g>
     <g id="text_2">
      <!-- 20 -->
      <g transform="translate(140.117494 260.638438) scale(0.1 -0.1)">
       <defs>
        <path id="DejaVuSans-32" d="M 1228 531 
L 3431 531 
L 3431 0 
L 469 0 
L 469 531 
Q 828 903 1448 1529 
Q 2069 2156 2228 2338 
Q 2531 2678 2651 2914 
Q 2772 3150 2772 3378 
Q 2772 3750 2511 3984 
Q 2250 4219 1831 4219 
Q 1534 4219 1204 4116 
Q 875 4013 500 3803 
L 500 4441 
Q 881 4594 1212 4672 
Q 1544 4750 1819 4750 
Q 2544 4750 2975 4387 
Q 3406 4025 3406 3419 
Q 3406 3131 3298 2873 
Q 3191 2616 2906 2266 
Q 2828 2175 2409 1742 
Q 1991 1309 1228 531 
z
" transform="scale(0.015625)"/>
       </defs>
       <use xlink:href="#DejaVuSans-32"/>
       <use xlink:href="#DejaVuSans-30" x="63.623047"/>
      </g>
     </g>
    </g>
    <g id="xtick_3">
     <g id="line2d_3">
      <g>
       <use xlink:href="#me3562e7f12" x="202.990212" y="246.04" style="stroke: #000000; stroke-width: 0.8"/>
      </g>
     </g>
     <g id="text_3">
      <!-- 30 -->
      <g transform="translate(196.627712 260.638438) scale(0.1 -0.1)">
       <defs>
        <path id="DejaVuSans-33" d="M 2597 2516 
Q 3050 2419 3304 2112 
Q 3559 1806 3559 1356 
Q 3559 666 3084 287 
Q 2609 -91 1734 -91 
Q 1441 -91 1130 -33 
Q 819 25 488 141 
L 488 750 
Q 750 597 1062 519 
Q 1375 441 1716 441 
Q 2309 441 2620 675 
Q 2931 909 2931 1356 
Q 2931 1769 2642 2001 
Q 2353 2234 1838 2234 
L 1294 2234 
L 1294 2753 
L 1863 2753 
Q 2328 2753 2575 2939 
Q 2822 3125 2822 3475 
Q 2822 3834 2567 4026 
Q 2313 4219 1838 4219 
Q 1578 4219 1281 4162 
Q 984 4106 628 3988 
L 628 4550 
Q 988 4650 1302 4700 
Q 1616 4750 1894 4750 
Q 2613 4750 3031 4423 
Q 3450 4097 3450 3541 
Q 3450 3153 3228 2886 
Q 3006 2619 2597 2516 
z
" transform="scale(0.015625)"/>
       </defs>
       <use xlink:href="#DejaVuSans-33"/>
       <use xlink:href="#DejaVuSans-30" x="63.623047"/>
      </g>
     </g>
    </g>
    <g id="xtick_4">
     <g id="line2d_4">
      <g>
       <use xlink:href="#me3562e7f12" x="259.500429" y="246.04" style="stroke: #000000; stroke-width: 0.8"/>
      </g>
     </g>
     <g id="text_4">
      <!-- 40 -->
      <g transform="translate(253.137929 260.638438) scale(0.1 -0.1)">
       <defs>
        <path id="DejaVuSans-34" d="M 2419 4116 
L 825 1625 
L 2419 1625 
L 2419 4116 
z
M 2253 4666 
L 3047 4666 
L 3047 1625 
L 3713 1625 
L 3713 1100 
L 3047 1100 
L 3047 0 
L 2419 0 
L 2419 1100 
L 313 1100 
L 313 1709 
L 2253 4666 
z
" transform="scale(0.015625)"/>
       </defs>
       <use xlink:href="#DejaVuSans-34"/>
       <use xlink:href="#DejaVuSans-30" x="63.623047"/>
      </g>
     </g>
    </g>
    <g id="xtick_5">
     <g id="line2d_5">
      <g>
       <use xlink:href="#me3562e7f12" x="316.010647" y="246.04" style="stroke: #000000; stroke-width: 0.8"/>
      </g>
     </g>
     <g id="text_5">
      <!-- 50 -->
      <g transform="translate(309.648147 260.638438) scale(0.1 -0.1)">
       <defs>
        <path id="DejaVuSans-35" d="M 691 4666 
L 3169 4666 
L 3169 4134 
L 1269 4134 
L 1269 2991 
Q 1406 3038 1543 3061 
Q 1681 3084 1819 3084 
Q 2600 3084 3056 2656 
Q 3513 2228 3513 1497 
Q 3513 744 3044 326 
Q 2575 -91 1722 -91 
Q 1428 -91 1123 -41 
Q 819 9 494 109 
L 494 744 
Q 775 591 1075 516 
Q 1375 441 1709 441 
Q 2250 441 2565 725 
Q 2881 1009 2881 1497 
Q 2881 1984 2565 2268 
Q 2250 2553 1709 2553 
Q 1456 2553 1204 2497 
Q 953 2441 691 2322 
L 691 4666 
z
" transform="scale(0.015625)"/>
       </defs>
       <use xlink:href="#DejaVuSans-35"/>
       <use xlink:href="#DejaVuSans-30" x="63.623047"/>
      </g>
     </g>
    </g>
    <g id="text_6">
     <!-- Fluctuation -->
     <g transform="translate(178.044375 274.316562) scale(0.1 -0.1)">
      <defs>
       <path id="DejaVuSans-46" d="M 628 4666 
L 3309 4666 
L 3309 4134 
L 1259 4134 
L 1259 2759 
L 3109 2759 
L 3109 2228 
L 1259 2228 
L 1259 0 
L 628 0 
L 628 4666 
z
" transform="scale(0.015625)"/>
       <path id="DejaVuSans-6c" d="M 603 4863 
L 1178 4863 
L 1178 0 
L 603 0 
L 603 4863 
z
" transform="scale(0.015625)"/>
       <path id="DejaVuSans-75" d="M 544 1381 
L 544 3500 
L 1119 3500 
L 1119 1403 
Q 1119 906 1312 657 
Q 1506 409 1894 409 
Q 2359 409 2629 706 
Q 2900 1003 2900 1516 
L 2900 3500 
L 3475 3500 
L 3475 0 
L 2900 0 
L 2900 538 
Q 2691 219 2414 64 
Q 2138 -91 1772 -91 
Q 1169 -91 856 284 
Q 544 659 544 1381 
z
M 1991 3584 
L 1991 3584 
z
" transform="scale(0.015625)"/>
       <path id="DejaVuSans-63" d="M 3122 3366 
L 3122 2828 
Q 2878 2963 2633 3030 
Q 2388 3097 2138 3097 
Q 1578 3097 1268 2742 
Q 959 2388 959 1747 
Q 959 1106 1268 751 
Q 1578 397 2138 397 
Q 2388 397 2633 464 
Q 2878 531 3122 666 
L 3122 134 
Q 2881 22 2623 -34 
Q 2366 -91 2075 -91 
Q 1284 -91 818 406 
Q 353 903 353 1747 
Q 353 2603 823 3093 
Q 1294 3584 2113 3584 
Q 2378 3584 2631 3529 
Q 2884 3475 3122 3366 
z
" transform="scale(0.015625)"/>
       <path id="DejaVuSans-74" d="M 1172 4494 
L 1172 3500 
L 2356 3500 
L 2356 3053 
L 1172 3053 
L 1172 1153 
Q 1172 725 1289 603 
Q 1406 481 1766 481 
L 2356 481 
L 2356 0 
L 1766 0 
Q 1100 0 847 248 
Q 594 497 594 1153 
L 594 3053 
L 172 3053 
L 172 3500 
L 594 3500 
L 594 4494 
L 1172 4494 
z
" transform="scale(0.015625)"/>
       <path id="DejaVuSans-61" d="M 2194 1759 
Q 1497 1759 1228 1600 
Q 959 1441 959 1056 
Q 959 750 1161 570 
Q 1363 391 1709 391 
Q 2188 391 2477 730 
Q 2766 1069 2766 1631 
L 2766 1759 
L 2194 1759 
z
M 3341 1997 
L 3341 0 
L 2766 0 
L 2766 531 
Q 2569 213 2275 61 
Q 1981 -91 1556 -91 
Q 1019 -91 701 211 
Q 384 513 384 1019 
Q 384 1609 779 1909 
Q 1175 2209 1959 2209 
L 2766 2209 
L 2766 2266 
Q 2766 2663 2505 2880 
Q 2244 3097 1772 3097 
Q 1472 3097 1187 3025 
Q 903 2953 641 2809 
L 641 3341 
Q 956 3463 1253 3523 
Q 1550 3584 1831 3584 
Q 2591 3584 2966 3190 
Q 3341 2797 3341 1997 
z
" transform="scale(0.015625)"/>
       <path id="DejaVuSans-69" d="M 603 3500 
L 1178 3500 
L 1178 0 
L 603 0 
L 603 3500 
z
M 603 4863 
L 1178 4863 
L 1178 4134 
L 603 4134 
L 603 4863 
z
" transform="scale(0.015625)"/>
       <path id="DejaVuSans-6f" d="M 1959 3097 
Q 1497 3097 1228 2736 
Q 959 2375 959 1747 
Q 959 1119 1226 758 
Q 1494 397 1959 397 
Q 2419 397 2687 759 
Q 2956 1122 2956 1747 
Q 2956 2369 2687 2733 
Q 2419 3097 1959 3097 
z
M 1959 3584 
Q 2709 3584 3137 3096 
Q 3566 2609 3566 1747 
Q 3566 888 3137 398 
Q 2709 -91 1959 -91 
Q 1206 -91 779 398 
Q 353 888 353 1747 
Q 353 2609 779 3096 
Q 1206 3584 1959 3584 
z
" transform="scale(0.015625)"/>
       <path id="DejaVuSans-6e" d="M 3513 2113 
L 3513 0 
L 2938 0 
L 2938 2094 
Q 2938 2591 2744 2837 
Q 2550 3084 2163 3084 
Q 1697 3084 1428 2787 
Q 1159 2491 1159 1978 
L 1159 0 
L 581 0 
L 581 3500 
L 1159 3500 
L 1159 2956 
Q 1366 3272 1645 3428 
Q 1925 3584 2291 3584 
Q 2894 3584 3203 3211 
Q 3513 2838 3513 2113 
z
" transform="scale(0.015625)"/>
      </defs>
      <use xlink:href="#DejaVuSans-46"/>
      <use xlink:href="#DejaVuSans-6c" x="57.519531"/>
      <use xlink:href="#DejaVuSans-75" x="85.302734"/>
      <use xlink:href="#DejaVuSans-63" x="148.681641"/>
      <use xlink:href="#DejaVuSans-74" x="203.662109"/>
      <use xlink:href="#DejaVuSans-75" x="242.871094"/>
      <use xlink:href="#DejaVuSans-61" x="306.25"/>
      <use xlink:href="#DejaVuSans-74" x="367.529297"/>
      <use xlink:href="#DejaVuSans-69" x="406.738281"/>
      <use xlink:href="#DejaVuSans-6f" x="434.521484"/>
      <use xlink:href="#DejaVuSans-6e" x="495.703125"/>
     </g>
    </g>
   </g>
   <g id="matplotlib.axis_2">
    <g id="ytick_1">
     <g id="line2d_6">
      <defs>
       <path id="mac32047f53" d="M 0 0 
L -3.5 0 
" style="stroke: #000000; stroke-width: 0.8"/>
      </defs>
      <g>
       <use xlink:href="#mac32047f53" x="54.2" y="246.04" style="stroke: #000000; stroke-width: 0.8"/>
      </g>
     </g>
     <g id="text_7">
      <!-- 0.00 -->
      <g transform="translate(24.934375 249.839219) scale(0.1 -0.1)">
       <defs>
        <path id="DejaVuSans-2e" d="M 684 794 
L 1344 794 
L 1344 0 
L 684 0 
L 684 794 
z
" transform="scale(0.015625)"/>
       </defs>
       <use xlink:href="#DejaVuSans-30"/>
       <use xlink:href="#DejaVuSans-2e" x="63.623047"/>
       <use xlink:href="#DejaVuSans-30" x="95.410156"/>
       <use xlink:href="#DejaVuSans-30" x="159.033203"/>
      </g>
     </g>
    </g>
    <g id="ytick_2">
     <g id="line2d_7">
      <g>
       <use xlink:href="#mac32047f53" x="54.2" y="205.878286" style="stroke: #000000; stroke-width: 0.8"/>
      </g>
     </g>
     <g id="text_8">
      <!-- 0.02 -->
      <g transform="translate(24.934375 209.677505) scale(0.1 -0.1)">
       <use xlink:href="#DejaVuSans-30"/>
       <use xlink:href="#DejaVuSans-2e" x="63.623047"/>
       <use xlink:href="#DejaVuSans-30" x="95.410156"/>
       <use xlink:href="#DejaVuSans-32" x="159.033203"/>
      </g>
     </g>
    </g>
    <g id="ytick_3">
     <g id="line2d_8">
      <g>
       <use xlink:href="#mac32047f53" x="54.2" y="165.716572" style="stroke: #000000; stroke-width: 0.8"/>
      </g>
     </g>
     <g id="text_9">
      <!-- 0.04 -->
      <g transform="translate(24.934375 169.515791) scale(0.1 -0.1)">
       <use xlink:href="#DejaVuSans-30"/>
       <use xlink:href="#DejaVuSans-2e" x="63.623047"/>
       <use xlink:href="#DejaVuSans-30" x="95.410156"/>
       <use xlink:href="#DejaVuSans-34" x="159.033203"/>
      </g>
     </g>
    </g>
    <g id="ytick_4">
     <g id="line2d_9">
      <g>
       <use xlink:href="#mac32047f53" x="54.2" y="125.554858" style="stroke: #000000; stroke-width: 0.8"/>
      </g>
     </g>
     <g id="text_10">
      <!-- 0.06 -->
      <g transform="translate(24.934375 129.354077) scale(0.1 -0.1)">
       <defs>
        <path id="DejaVuSans-36" d="M 2113 2584 
Q 1688 2584 1439 2293 
Q 1191 2003 1191 1497 
Q 1191 994 1439 701 
Q 1688 409 2113 409 
Q 2538 409 2786 701 
Q 3034 994 3034 1497 
Q 3034 2003 2786 2293 
Q 2538 2584 2113 2584 
z
M 3366 4563 
L 3366 3988 
Q 3128 4100 2886 4159 
Q 2644 4219 2406 4219 
Q 1781 4219 1451 3797 
Q 1122 3375 1075 2522 
Q 1259 2794 1537 2939 
Q 1816 3084 2150 3084 
Q 2853 3084 3261 2657 
Q 3669 2231 3669 1497 
Q 3669 778 3244 343 
Q 2819 -91 2113 -91 
Q 1303 -91 875 529 
Q 447 1150 447 2328 
Q 447 3434 972 4092 
Q 1497 4750 2381 4750 
Q 2619 4750 2861 4703 
Q 3103 4656 3366 4563 
z
" transform="scale(0.015625)"/>
       </defs>
       <use xlink:href="#DejaVuSans-30"/>
       <use xlink:href="#DejaVuSans-2e" x="63.623047"/>
       <use xlink:href="#DejaVuSans-30" x="95.410156"/>
       <use xlink:href="#DejaVuSans-36" x="159.033203"/>
      </g>
     </g>
    </g>
    <g id="ytick_5">
     <g id="line2d_10">
      <g>
       <use xlink:href="#mac32047f53" x="54.2" y="85.393144" style="stroke: #000000; stroke-width: 0.8"/>
      </g>
     </g>
     <g id="text_11">
      <!-- 0.08 -->
      <g transform="translate(24.934375 89.192363) scale(0.1 -0.1)">
       <defs>
        <path id="DejaVuSans-38" d="M 2034 2216 
Q 1584 2216 1326 1975 
Q 1069 1734 1069 1313 
Q 1069 891 1326 650 
Q 1584 409 2034 409 
Q 2484 409 2743 651 
Q 3003 894 3003 1313 
Q 3003 1734 2745 1975 
Q 2488 2216 2034 2216 
z
M 1403 2484 
Q 997 2584 770 2862 
Q 544 3141 544 3541 
Q 544 4100 942 4425 
Q 1341 4750 2034 4750 
Q 2731 4750 3128 4425 
Q 3525 4100 3525 3541 
Q 3525 3141 3298 2862 
Q 3072 2584 2669 2484 
Q 3125 2378 3379 2068 
Q 3634 1759 3634 1313 
Q 3634 634 3220 271 
Q 2806 -91 2034 -91 
Q 1263 -91 848 271 
Q 434 634 434 1313 
Q 434 1759 690 2068 
Q 947 2378 1403 2484 
z
M 1172 3481 
Q 1172 3119 1398 2916 
Q 1625 2713 2034 2713 
Q 2441 2713 2670 2916 
Q 2900 3119 2900 3481 
Q 2900 3844 2670 4047 
Q 2441 4250 2034 4250 
Q 1625 4250 1398 4047 
Q 1172 3844 1172 3481 
z
" transform="scale(0.015625)"/>
       </defs>
       <use xlink:href="#DejaVuSans-30"/>
       <use xlink:href="#DejaVuSans-2e" x="63.623047"/>
       <use xlink:href="#DejaVuSans-30" x="95.410156"/>
       <use xlink:href="#DejaVuSans-38" x="159.033203"/>
      </g>
     </g>
    </g>
    <g id="text_12">
     <!-- Density -->
     <g transform="translate(18.854688 165.548594) rotate(-90) scale(0.1 -0.1)">
      <defs>
       <path id="DejaVuSans-44" d="M 1259 4147 
L 1259 519 
L 2022 519 
Q 2988 519 3436 956 
Q 3884 1394 3884 2338 
Q 3884 3275 3436 3711 
Q 2988 4147 2022 4147 
L 1259 4147 
z
M 628 4666 
L 1925 4666 
Q 3281 4666 3915 4102 
Q 4550 3538 4550 2338 
Q 4550 1131 3912 565 
Q 3275 0 1925 0 
L 628 0 
L 628 4666 
z
" transform="scale(0.015625)"/>
       <path id="DejaVuSans-65" d="M 3597 1894 
L 3597 1613 
L 953 1613 
Q 991 1019 1311 708 
Q 1631 397 2203 397 
Q 2534 397 2845 478 
Q 3156 559 3463 722 
L 3463 178 
Q 3153 47 2828 -22 
Q 2503 -91 2169 -91 
Q 1331 -91 842 396 
Q 353 884 353 1716 
Q 353 2575 817 3079 
Q 1281 3584 2069 3584 
Q 2775 3584 3186 3129 
Q 3597 2675 3597 1894 
z
M 3022 2063 
Q 3016 2534 2758 2815 
Q 2500 3097 2075 3097 
Q 1594 3097 1305 2825 
Q 1016 2553 972 2059 
L 3022 2063 
z
" transform="scale(0.015625)"/>
       <path id="DejaVuSans-73" d="M 2834 3397 
L 2834 2853 
Q 2591 2978 2328 3040 
Q 2066 3103 1784 3103 
Q 1356 3103 1142 2972 
Q 928 2841 928 2578 
Q 928 2378 1081 2264 
Q 1234 2150 1697 2047 
L 1894 2003 
Q 2506 1872 2764 1633 
Q 3022 1394 3022 966 
Q 3022 478 2636 193 
Q 2250 -91 1575 -91 
Q 1294 -91 989 -36 
Q 684 19 347 128 
L 347 722 
Q 666 556 975 473 
Q 1284 391 1588 391 
Q 1994 391 2212 530 
Q 2431 669 2431 922 
Q 2431 1156 2273 1281 
Q 2116 1406 1581 1522 
L 1381 1569 
Q 847 1681 609 1914 
Q 372 2147 372 2553 
Q 372 3047 722 3315 
Q 1072 3584 1716 3584 
Q 2034 3584 2315 3537 
Q 2597 3491 2834 3397 
z
" transform="scale(0.015625)"/>
       <path id="DejaVuSans-79" d="M 2059 -325 
Q 1816 -950 1584 -1140 
Q 1353 -1331 966 -1331 
L 506 -1331 
L 506 -850 
L 844 -850 
Q 1081 -850 1212 -737 
Q 1344 -625 1503 -206 
L 1606 56 
L 191 3500 
L 800 3500 
L 1894 763 
L 2988 3500 
L 3597 3500 
L 2059 -325 
z
" transform="scale(0.015625)"/>
      </defs>
      <use xlink:href="#DejaVuSans-44"/>
      <use xlink:href="#DejaVuSans-65" x="77.001953"/>
      <use xlink:href="#DejaVuSans-6e" x="138.525391"/>
      <use xlink:href="#DejaVuSans-73" x="201.904297"/>
      <use xlink:href="#DejaVuSans-69" x="254.003906"/>
      <use xlink:href="#DejaVuSans-74" x="281.787109"/>
      <use xlink:href="#DejaVuSans-79" x="320.996094"/>
     </g>
    </g>
   </g>
   <g id="line2d_11">
    <path d="M 140.079761 246.032332 
L 148.277367 245.892069 
L 152.376171 245.604272 
L 155.450273 245.195587 
L 158.524376 244.575004 
L 161.598478 243.733024 
L 165.697282 242.324023 
L 169.796085 240.696731 
L 172.870187 239.314108 
L 174.919589 238.234971 
L 176.968991 236.940253 
L 179.018392 235.341649 
L 181.067794 233.361411 
L 183.117196 230.949673 
L 185.166597 228.092211 
L 187.215999 224.804136 
L 189.265401 221.111492 
L 191.314802 217.029062 
L 193.364204 212.544729 
L 195.413606 207.617042 
L 197.463008 202.186367 
L 199.512409 196.195856 
L 201.561811 189.617941 
L 204.635913 178.735591 
L 212.83352 148.094862 
L 214.882922 141.383048 
L 216.932323 135.322044 
L 218.981725 129.833407 
L 222.055828 122.32073 
L 225.12993 115.337658 
L 227.179332 111.08384 
L 229.228733 107.462408 
L 230.253434 105.998534 
L 231.278135 104.819271 
L 232.302836 103.952728 
L 233.327537 103.412236 
L 234.352238 103.193376 
L 235.376939 103.272685 
L 236.401639 103.608306 
L 237.42634 104.142612 
L 241.525144 106.84274 
L 242.549844 107.322311 
L 243.574545 107.631204 
L 244.599246 107.756775 
L 245.623947 107.70858 
L 247.673349 107.231169 
L 249.72275 106.630946 
L 250.747451 106.458662 
L 251.772152 106.464024 
L 252.796853 106.706846 
L 253.821554 107.234247 
L 254.846254 108.077752 
L 255.870955 109.251619 
L 256.895656 110.752427 
L 257.920357 112.559817 
L 259.969759 116.940173 
L 263.043861 124.602043 
L 266.117964 132.21108 
L 268.167365 136.777923 
L 271.241468 142.975221 
L 274.31557 149.316286 
L 276.364972 154.188004 
L 278.414374 159.7589 
L 280.463775 165.943253 
L 290.710784 198.131208 
L 293.784886 206.809811 
L 295.834288 212.158072 
L 297.88369 216.992769 
L 299.933091 221.169751 
L 301.982493 224.604101 
L 304.031895 227.308784 
L 306.081296 229.399256 
L 308.130698 231.063309 
L 323.501211 242.001163 
L 325.550612 243.12403 
L 327.600014 244.030897 
L 329.649416 244.724235 
L 331.698817 245.224421 
L 334.77292 245.684229 
L 337.847022 245.905842 
L 342.970526 246.021388 
L 343.995227 246.028131 
L 343.995227 246.028131 
" clip-path="url(#pc7225d818b)" style="fill: none; stroke: #0000ff; stroke-width: 1.5; stroke-linecap: square"/>
   </g>
   <g id="line2d_12">
    <path d="M 67.999773 246.03125 
L 74.534302 245.900451 
L 79.201824 245.571716 
L 86.669857 244.970613 
L 91.337379 244.601039 
L 93.204387 244.284699 
L 95.071396 243.77232 
L 96.938404 242.982204 
L 98.805412 241.824121 
L 100.672421 240.214971 
L 102.539429 238.1045 
L 104.406438 235.498438 
L 106.273446 232.464092 
L 109.073959 227.353726 
L 112.807976 220.014387 
L 115.608489 214.153463 
L 117.475497 209.836728 
L 119.342506 204.911951 
L 121.209514 199.126234 
L 123.076523 192.314227 
L 124.943531 184.468617 
L 126.810539 175.74941 
L 130.544556 156.825792 
L 134.278573 137.904281 
L 137.079086 124.807825 
L 139.879599 112.863944 
L 149.214641 74.911473 
L 151.08165 68.203583 
L 152.948658 62.684976 
L 153.882162 60.504416 
L 154.815667 58.768359 
L 155.749171 57.510749 
L 156.682675 56.755692 
L 157.616179 56.515825 
L 158.549683 56.790743 
L 159.483188 57.565748 
L 160.416692 58.811215 
L 161.350196 60.482785 
L 162.2837 62.522493 
L 164.150709 67.419349 
L 168.81823 80.637023 
L 170.685239 84.885409 
L 172.552247 88.270387 
L 176.286264 94.27508 
L 177.219768 96.166298 
L 178.153272 98.396933 
L 179.086777 101.024367 
L 180.020281 104.07471 
L 181.887289 111.386118 
L 183.754298 119.951232 
L 191.222332 156.159952 
L 196.823357 181.364815 
L 199.62387 193.280098 
L 201.490878 200.535124 
L 203.357887 207.053656 
L 205.224895 212.829457 
L 207.091904 217.969971 
L 208.958912 222.608184 
L 210.825921 226.81557 
L 212.692929 230.568748 
L 214.559938 233.783094 
L 216.426946 236.38613 
L 218.293954 238.382988 
L 220.160963 239.873406 
L 222.027971 241.01078 
L 224.828484 242.335476 
L 227.628997 243.325238 
L 229.496005 243.765732 
L 231.363014 244.024307 
L 240.698056 244.884084 
L 245.365577 245.609868 
L 249.099594 245.917139 
L 253.767115 246.025737 
L 253.767115 246.025737 
" clip-path="url(#pc7225d818b)" style="fill: none; stroke: #ff0000; stroke-width: 1.5; stroke-linecap: square"/>
   </g>
   <g id="patch_3">
    <path d="M 54.2 246.04 
L 54.2 47.04 
" style="fill: none; stroke: #000000; stroke-width: 0.8; stroke-linejoin: miter; stroke-linecap: square"/>
   </g>
   <g id="patch_4">
    <path d="M 357.795 246.04 
L 357.795 47.04 
" style="fill: none; stroke: #000000; stroke-width: 0.8; stroke-linejoin: miter; stroke-linecap: square"/>
   </g>
   <g id="patch_5">
    <path d="M 54.2 246.04 
L 357.795 246.04 
" style="fill: none; stroke: #000000; stroke-width: 0.8; stroke-linejoin: miter; stroke-linecap: square"/>
   </g>
   <g id="patch_6">
    <path d="M 54.2 47.04 
L 357.795 47.04 
" style="fill: none; stroke: #000000; stroke-width: 0.8; stroke-linejoin: miter; stroke-linecap: square"/>
   </g>
   <g id="text_13">
    <!-- LLScore Fluctuation KDE -->
    <g transform="translate(132.805 41.04) scale(0.12 -0.12)">
     <defs>
      <path id="DejaVuSans-4c" d="M 628 4666 
L 1259 4666 
L 1259 531 
L 3531 531 
L 3531 0 
L 628 0 
L 628 4666 
z
" transform="scale(0.015625)"/>
      <path id="DejaVuSans-53" d="M 3425 4513 
L 3425 3897 
Q 3066 4069 2747 4153 
Q 2428 4238 2131 4238 
Q 1616 4238 1336 4038 
Q 1056 3838 1056 3469 
Q 1056 3159 1242 3001 
Q 1428 2844 1947 2747 
L 2328 2669 
Q 3034 2534 3370 2195 
Q 3706 1856 3706 1288 
Q 3706 609 3251 259 
Q 2797 -91 1919 -91 
Q 1588 -91 1214 -16 
Q 841 59 441 206 
L 441 856 
Q 825 641 1194 531 
Q 1563 422 1919 422 
Q 2459 422 2753 634 
Q 3047 847 3047 1241 
Q 3047 1584 2836 1778 
Q 2625 1972 2144 2069 
L 1759 2144 
Q 1053 2284 737 2584 
Q 422 2884 422 3419 
Q 422 4038 858 4394 
Q 1294 4750 2059 4750 
Q 2388 4750 2728 4690 
Q 3069 4631 3425 4513 
z
" transform="scale(0.015625)"/>
      <path id="DejaVuSans-72" d="M 2631 2963 
Q 2534 3019 2420 3045 
Q 2306 3072 2169 3072 
Q 1681 3072 1420 2755 
Q 1159 2438 1159 1844 
L 1159 0 
L 581 0 
L 581 3500 
L 1159 3500 
L 1159 2956 
Q 1341 3275 1631 3429 
Q 1922 3584 2338 3584 
Q 2397 3584 2469 3576 
Q 2541 3569 2628 3553 
L 2631 2963 
z
" transform="scale(0.015625)"/>
      <path id="DejaVuSans-20" transform="scale(0.015625)"/>
      <path id="DejaVuSans-4b" d="M 628 4666 
L 1259 4666 
L 1259 2694 
L 3353 4666 
L 4166 4666 
L 1850 2491 
L 4331 0 
L 3500 0 
L 1259 2247 
L 1259 0 
L 628 0 
L 628 4666 
z
" transform="scale(0.015625)"/>
      <path id="DejaVuSans-45" d="M 628 4666 
L 3578 4666 
L 3578 4134 
L 1259 4134 
L 1259 2753 
L 3481 2753 
L 3481 2222 
L 1259 2222 
L 1259 531 
L 3634 531 
L 3634 0 
L 628 0 
L 628 4666 
z
" transform="scale(0.015625)"/>
     </defs>
     <use xlink:href="#DejaVuSans-4c"/>
     <use xlink:href="#DejaVuSans-4c" x="55.712891"/>
     <use xlink:href="#DejaVuSans-53" x="111.425781"/>
     <use xlink:href="#DejaVuSans-63" x="174.902344"/>
     <use xlink:href="#DejaVuSans-6f" x="229.882812"/>
     <use xlink:href="#DejaVuSans-72" x="291.064453"/>
     <use xlink:href="#DejaVuSans-65" x="329.927734"/>
     <use xlink:href="#DejaVuSans-20" x="391.451172"/>
     <use xlink:href="#DejaVuSans-46" x="423.238281"/>
     <use xlink:href="#DejaVuSans-6c" x="480.757812"/>
     <use xlink:href="#DejaVuSans-75" x="508.541016"/>
     <use xlink:href="#DejaVuSans-63" x="571.919922"/>
     <use xlink:href="#DejaVuSans-74" x="626.900391"/>
     <use xlink:href="#DejaVuSans-75" x="666.109375"/>
     <use xlink:href="#DejaVuSans-61" x="729.488281"/>
     <use xlink:href="#DejaVuSans-74" x="790.767578"/>
     <use xlink:href="#DejaVuSans-69" x="829.976562"/>
     <use xlink:href="#DejaVuSans-6f" x="857.759766"/>
     <use xlink:href="#DejaVuSans-6e" x="918.941406"/>
     <use xlink:href="#DejaVuSans-20" x="982.320312"/>
     <use xlink:href="#DejaVuSans-4b" x="1014.107422"/>
     <use xlink:href="#DejaVuSans-44" x="1079.683594"/>
     <use xlink:href="#DejaVuSans-45" x="1156.685547"/>
    </g>
   </g>
   <g id="legend_1">
    <g id="patch_7">
     <path d="M 145.16375 84.39625 
L 350.795 84.39625 
Q 352.795 84.39625 352.795 82.39625 
L 352.795 54.04 
Q 352.795 52.04 350.795 52.04 
L 145.16375 52.04 
Q 143.16375 52.04 143.16375 54.04 
L 143.16375 82.39625 
Q 143.16375 84.39625 145.16375 84.39625 
z
" style="fill: #ffffff; opacity: 0.8; stroke: #cccccc; stroke-linejoin: miter"/>
    </g>
    <g id="line2d_13">
     <path d="M 147.16375 60.138437 
L 157.16375 60.138437 
L 167.16375 60.138437 
" style="fill: none; stroke: #0000ff; stroke-width: 1.5; stroke-linecap: square"/>
    </g>
    <g id="text_14">
     <!-- Init vs Init Random -->
     <g transform="translate(175.16375 63.638437) scale(0.1 -0.1)">
      <defs>
       <path id="DejaVuSans-49" d="M 628 4666 
L 1259 4666 
L 1259 0 
L 628 0 
L 628 4666 
z
" transform="scale(0.015625)"/>
       <path id="DejaVuSans-76" d="M 191 3500 
L 800 3500 
L 1894 563 
L 2988 3500 
L 3597 3500 
L 2284 0 
L 1503 0 
L 191 3500 
z
" transform="scale(0.015625)"/>
       <path id="DejaVuSans-52" d="M 2841 2188 
Q 3044 2119 3236 1894 
Q 3428 1669 3622 1275 
L 4263 0 
L 3584 0 
L 2988 1197 
Q 2756 1666 2539 1819 
Q 2322 1972 1947 1972 
L 1259 1972 
L 1259 0 
L 628 0 
L 628 4666 
L 2053 4666 
Q 2853 4666 3247 4331 
Q 3641 3997 3641 3322 
Q 3641 2881 3436 2590 
Q 3231 2300 2841 2188 
z
M 1259 4147 
L 1259 2491 
L 2053 2491 
Q 2509 2491 2742 2702 
Q 2975 2913 2975 3322 
Q 2975 3731 2742 3939 
Q 2509 4147 2053 4147 
L 1259 4147 
z
" transform="scale(0.015625)"/>
       <path id="DejaVuSans-64" d="M 2906 2969 
L 2906 4863 
L 3481 4863 
L 3481 0 
L 2906 0 
L 2906 525 
Q 2725 213 2448 61 
Q 2172 -91 1784 -91 
Q 1150 -91 751 415 
Q 353 922 353 1747 
Q 353 2572 751 3078 
Q 1150 3584 1784 3584 
Q 2172 3584 2448 3432 
Q 2725 3281 2906 2969 
z
M 947 1747 
Q 947 1113 1208 752 
Q 1469 391 1925 391 
Q 2381 391 2643 752 
Q 2906 1113 2906 1747 
Q 2906 2381 2643 2742 
Q 2381 3103 1925 3103 
Q 1469 3103 1208 2742 
Q 947 2381 947 1747 
z
" transform="scale(0.015625)"/>
       <path id="DejaVuSans-6d" d="M 3328 2828 
Q 3544 3216 3844 3400 
Q 4144 3584 4550 3584 
Q 5097 3584 5394 3201 
Q 5691 2819 5691 2113 
L 5691 0 
L 5113 0 
L 5113 2094 
Q 5113 2597 4934 2840 
Q 4756 3084 4391 3084 
Q 3944 3084 3684 2787 
Q 3425 2491 3425 1978 
L 3425 0 
L 2847 0 
L 2847 2094 
Q 2847 2600 2669 2842 
Q 2491 3084 2119 3084 
Q 1678 3084 1418 2786 
Q 1159 2488 1159 1978 
L 1159 0 
L 581 0 
L 581 3500 
L 1159 3500 
L 1159 2956 
Q 1356 3278 1631 3431 
Q 1906 3584 2284 3584 
Q 2666 3584 2933 3390 
Q 3200 3197 3328 2828 
z
" transform="scale(0.015625)"/>
      </defs>
      <use xlink:href="#DejaVuSans-49"/>
      <use xlink:href="#DejaVuSans-6e" x="29.492188"/>
      <use xlink:href="#DejaVuSans-69" x="92.871094"/>
      <use xlink:href="#DejaVuSans-74" x="120.654297"/>
      <use xlink:href="#DejaVuSans-20" x="159.863281"/>
      <use xlink:href="#DejaVuSans-76" x="191.650391"/>
      <use xlink:href="#DejaVuSans-73" x="250.830078"/>
      <use xlink:href="#DejaVuSans-20" x="302.929688"/>
      <use xlink:href="#DejaVuSans-49" x="334.716797"/>
      <use xlink:href="#DejaVuSans-6e" x="364.208984"/>
      <use xlink:href="#DejaVuSans-69" x="427.587891"/>
      <use xlink:href="#DejaVuSans-74" x="455.371094"/>
      <use xlink:href="#DejaVuSans-20" x="494.580078"/>
      <use xlink:href="#DejaVuSans-52" x="526.367188"/>
      <use xlink:href="#DejaVuSans-61" x="593.599609"/>
      <use xlink:href="#DejaVuSans-6e" x="654.878906"/>
      <use xlink:href="#DejaVuSans-64" x="718.257812"/>
      <use xlink:href="#DejaVuSans-6f" x="781.734375"/>
      <use xlink:href="#DejaVuSans-6d" x="842.916016"/>
     </g>
    </g>
    <g id="line2d_14">
     <path d="M 147.16375 74.816562 
L 157.16375 74.816562 
L 167.16375 74.816562 
" style="fill: none; stroke: #ff0000; stroke-width: 1.5; stroke-linecap: square"/>
    </g>
    <g id="text_15">
     <!-- Generation vs Generation Random -->
     <g transform="translate(175.16375 78.316562) scale(0.1 -0.1)">
      <defs>
       <path id="DejaVuSans-47" d="M 3809 666 
L 3809 1919 
L 2778 1919 
L 2778 2438 
L 4434 2438 
L 4434 434 
Q 4069 175 3628 42 
Q 3188 -91 2688 -91 
Q 1594 -91 976 548 
Q 359 1188 359 2328 
Q 359 3472 976 4111 
Q 1594 4750 2688 4750 
Q 3144 4750 3555 4637 
Q 3966 4525 4313 4306 
L 4313 3634 
Q 3963 3931 3569 4081 
Q 3175 4231 2741 4231 
Q 1884 4231 1454 3753 
Q 1025 3275 1025 2328 
Q 1025 1384 1454 906 
Q 1884 428 2741 428 
Q 3075 428 3337 486 
Q 3600 544 3809 666 
z
" transform="scale(0.015625)"/>
      </defs>
      <use xlink:href="#DejaVuSans-47"/>
      <use xlink:href="#DejaVuSans-65" x="77.490234"/>
      <use xlink:href="#DejaVuSans-6e" x="139.013672"/>
      <use xlink:href="#DejaVuSans-65" x="202.392578"/>
      <use xlink:href="#DejaVuSans-72" x="263.916016"/>
      <use xlink:href="#DejaVuSans-61" x="305.029297"/>
      <use xlink:href="#DejaVuSans-74" x="366.308594"/>
      <use xlink:href="#DejaVuSans-69" x="405.517578"/>
      <use xlink:href="#DejaVuSans-6f" x="433.300781"/>
      <use xlink:href="#DejaVuSans-6e" x="494.482422"/>
      <use xlink:href="#DejaVuSans-20" x="557.861328"/>
      <use xlink:href="#DejaVuSans-76" x="589.648438"/>
      <use xlink:href="#DejaVuSans-73" x="648.828125"/>
      <use xlink:href="#DejaVuSans-20" x="700.927734"/>
      <use xlink:href="#DejaVuSans-47" x="732.714844"/>
      <use xlink:href="#DejaVuSans-65" x="810.205078"/>
      <use xlink:href="#DejaVuSans-6e" x="871.728516"/>
      <use xlink:href="#DejaVuSans-65" x="935.107422"/>
      <use xlink:href="#DejaVuSans-72" x="996.630859"/>
      <use xlink:href="#DejaVuSans-61" x="1037.744141"/>
      <use xlink:href="#DejaVuSans-74" x="1099.023438"/>
      <use xlink:href="#DejaVuSans-69" x="1138.232422"/>
      <use xlink:href="#DejaVuSans-6f" x="1166.015625"/>
      <use xlink:href="#DejaVuSans-6e" x="1227.197266"/>
      <use xlink:href="#DejaVuSans-20" x="1290.576172"/>
      <use xlink:href="#DejaVuSans-52" x="1322.363281"/>
      <use xlink:href="#DejaVuSans-61" x="1389.595703"/>
      <use xlink:href="#DejaVuSans-6e" x="1450.875"/>
      <use xlink:href="#DejaVuSans-64" x="1514.253906"/>
      <use xlink:href="#DejaVuSans-6f" x="1577.730469"/>
      <use xlink:href="#DejaVuSans-6d" x="1638.912109"/>
     </g>
    </g>
   </g>
  </g>
  <g id="axes_2">
   <g id="patch_8">
    <path d="M 405.605 246.04 
L 709.2 246.04 
L 709.2 47.04 
L 405.605 47.04 
z
" style="fill: #ffffff"/>
   </g>
   <g id="matplotlib.axis_3">
    <g id="xtick_6">
     <g id="line2d_15">
      <g>
       <use xlink:href="#me3562e7f12" x="407.140598" y="246.04" style="stroke: #000000; stroke-width: 0.8"/>
      </g>
     </g>
     <g id="text_16">
      <!-- 0 -->
      <g transform="translate(403.959348 260.638438) scale(0.1 -0.1)">
       <use xlink:href="#DejaVuSans-30"/>
      </g>
     </g>
    </g>
    <g id="xtick_7">
     <g id="line2d_16">
      <g>
       <use xlink:href="#me3562e7f12" x="461.951395" y="246.04" style="stroke: #000000; stroke-width: 0.8"/>
      </g>
     </g>
     <g id="text_17">
      <!-- 2 -->
      <g transform="translate(458.770145 260.638438) scale(0.1 -0.1)">
       <use xlink:href="#DejaVuSans-32"/>
      </g>
     </g>
    </g>
    <g id="xtick_8">
     <g id="line2d_17">
      <g>
       <use xlink:href="#me3562e7f12" x="516.762192" y="246.04" style="stroke: #000000; stroke-width: 0.8"/>
      </g>
     </g>
     <g id="text_18">
      <!-- 4 -->
      <g transform="translate(513.580942 260.638438) scale(0.1 -0.1)">
       <use xlink:href="#DejaVuSans-34"/>
      </g>
     </g>
    </g>
    <g id="xtick_9">
     <g id="line2d_18">
      <g>
       <use xlink:href="#me3562e7f12" x="571.572988" y="246.04" style="stroke: #000000; stroke-width: 0.8"/>
      </g>
     </g>
     <g id="text_19">
      <!-- 6 -->
      <g transform="translate(568.391738 260.638438) scale(0.1 -0.1)">
       <use xlink:href="#DejaVuSans-36"/>
      </g>
     </g>
    </g>
    <g id="xtick_10">
     <g id="line2d_19">
      <g>
       <use xlink:href="#me3562e7f12" x="626.383785" y="246.04" style="stroke: #000000; stroke-width: 0.8"/>
      </g>
     </g>
     <g id="text_20">
      <!-- 8 -->
      <g transform="translate(623.202535 260.638438) scale(0.1 -0.1)">
       <use xlink:href="#DejaVuSans-38"/>
      </g>
     </g>
    </g>
    <g id="xtick_11">
     <g id="line2d_20">
      <g>
       <use xlink:href="#me3562e7f12" x="681.194582" y="246.04" style="stroke: #000000; stroke-width: 0.8"/>
      </g>
     </g>
     <g id="text_21">
      <!-- 10 -->
      <g transform="translate(674.832082 260.638438) scale(0.1 -0.1)">
       <use xlink:href="#DejaVuSans-31"/>
       <use xlink:href="#DejaVuSans-30" x="63.623047"/>
      </g>
     </g>
    </g>
    <g id="text_22">
     <!-- Fluctuation -->
     <g transform="translate(529.449375 274.316562) scale(0.1 -0.1)">
      <use xlink:href="#DejaVuSans-46"/>
      <use xlink:href="#DejaVuSans-6c" x="57.519531"/>
      <use xlink:href="#DejaVuSans-75" x="85.302734"/>
      <use xlink:href="#DejaVuSans-63" x="148.681641"/>
      <use xlink:href="#DejaVuSans-74" x="203.662109"/>
      <use xlink:href="#DejaVuSans-75" x="242.871094"/>
      <use xlink:href="#DejaVuSans-61" x="306.25"/>
      <use xlink:href="#DejaVuSans-74" x="367.529297"/>
      <use xlink:href="#DejaVuSans-69" x="406.738281"/>
      <use xlink:href="#DejaVuSans-6f" x="434.521484"/>
      <use xlink:href="#DejaVuSans-6e" x="495.703125"/>
     </g>
    </g>
   </g>
   <g id="matplotlib.axis_4">
    <g id="ytick_6">
     <g id="line2d_21">
      <g>
       <use xlink:href="#mac32047f53" x="405.605" y="246.04" style="stroke: #000000; stroke-width: 0.8"/>
      </g>
     </g>
     <g id="text_23">
      <!-- 0.0 -->
      <g transform="translate(382.701875 249.839219) scale(0.1 -0.1)">
       <use xlink:href="#DejaVuSans-30"/>
       <use xlink:href="#DejaVuSans-2e" x="63.623047"/>
       <use xlink:href="#DejaVuSans-30" x="95.410156"/>
      </g>
     </g>
    </g>
    <g id="ytick_7">
     <g id="line2d_22">
      <g>
       <use xlink:href="#mac32047f53" x="405.605" y="220.05527" style="stroke: #000000; stroke-width: 0.8"/>
      </g>
     </g>
     <g id="text_24">
      <!-- 0.1 -->
      <g transform="translate(382.701875 223.854489) scale(0.1 -0.1)">
       <use xlink:href="#DejaVuSans-30"/>
       <use xlink:href="#DejaVuSans-2e" x="63.623047"/>
       <use xlink:href="#DejaVuSans-31" x="95.410156"/>
      </g>
     </g>
    </g>
    <g id="ytick_8">
     <g id="line2d_23">
      <g>
       <use xlink:href="#mac32047f53" x="405.605" y="194.07054" style="stroke: #000000; stroke-width: 0.8"/>
      </g>
     </g>
     <g id="text_25">
      <!-- 0.2 -->
      <g transform="translate(382.701875 197.869759) scale(0.1 -0.1)">
       <use xlink:href="#DejaVuSans-30"/>
       <use xlink:href="#DejaVuSans-2e" x="63.623047"/>
       <use xlink:href="#DejaVuSans-32" x="95.410156"/>
      </g>
     </g>
    </g>
    <g id="ytick_9">
     <g id="line2d_24">
      <g>
       <use xlink:href="#mac32047f53" x="405.605" y="168.085811" style="stroke: #000000; stroke-width: 0.8"/>
      </g>
     </g>
     <g id="text_26">
      <!-- 0.3 -->
      <g transform="translate(382.701875 171.885029) scale(0.1 -0.1)">
       <use xlink:href="#DejaVuSans-30"/>
       <use xlink:href="#DejaVuSans-2e" x="63.623047"/>
       <use xlink:href="#DejaVuSans-33" x="95.410156"/>
      </g>
     </g>
    </g>
    <g id="ytick_10">
     <g id="line2d_25">
      <g>
       <use xlink:href="#mac32047f53" x="405.605" y="142.101081" style="stroke: #000000; stroke-width: 0.8"/>
      </g>
     </g>
     <g id="text_27">
      <!-- 0.4 -->
      <g transform="translate(382.701875 145.9003) scale(0.1 -0.1)">
       <use xlink:href="#DejaVuSans-30"/>
       <use xlink:href="#DejaVuSans-2e" x="63.623047"/>
       <use xlink:href="#DejaVuSans-34" x="95.410156"/>
      </g>
     </g>
    </g>
    <g id="ytick_11">
     <g id="line2d_26">
      <g>
       <use xlink:href="#mac32047f53" x="405.605" y="116.116351" style="stroke: #000000; stroke-width: 0.8"/>
      </g>
     </g>
     <g id="text_28">
      <!-- 0.5 -->
      <g transform="translate(382.701875 119.91557) scale(0.1 -0.1)">
       <use xlink:href="#DejaVuSans-30"/>
       <use xlink:href="#DejaVuSans-2e" x="63.623047"/>
       <use xlink:href="#DejaVuSans-35" x="95.410156"/>
      </g>
     </g>
    </g>
    <g id="ytick_12">
     <g id="line2d_27">
      <g>
       <use xlink:href="#mac32047f53" x="405.605" y="90.131621" style="stroke: #000000; stroke-width: 0.8"/>
      </g>
     </g>
     <g id="text_29">
      <!-- 0.6 -->
      <g transform="translate(382.701875 93.93084) scale(0.1 -0.1)">
       <use xlink:href="#DejaVuSans-30"/>
       <use xlink:href="#DejaVuSans-2e" x="63.623047"/>
       <use xlink:href="#DejaVuSans-36" x="95.410156"/>
      </g>
     </g>
    </g>
    <g id="ytick_13">
     <g id="line2d_28">
      <g>
       <use xlink:href="#mac32047f53" x="405.605" y="64.146891" style="stroke: #000000; stroke-width: 0.8"/>
      </g>
     </g>
     <g id="text_30">
      <!-- 0.7 -->
      <g transform="translate(382.701875 67.94611) scale(0.1 -0.1)">
       <defs>
        <path id="DejaVuSans-37" d="M 525 4666 
L 3525 4666 
L 3525 4397 
L 1831 0 
L 1172 0 
L 2766 4134 
L 525 4134 
L 525 4666 
z
" transform="scale(0.015625)"/>
       </defs>
       <use xlink:href="#DejaVuSans-30"/>
       <use xlink:href="#DejaVuSans-2e" x="63.623047"/>
       <use xlink:href="#DejaVuSans-37" x="95.410156"/>
      </g>
     </g>
    </g>
    <g id="text_31">
     <!-- Density -->
     <g transform="translate(376.622187 165.548594) rotate(-90) scale(0.1 -0.1)">
      <use xlink:href="#DejaVuSans-44"/>
      <use xlink:href="#DejaVuSans-65" x="77.001953"/>
      <use xlink:href="#DejaVuSans-6e" x="138.525391"/>
      <use xlink:href="#DejaVuSans-73" x="201.904297"/>
      <use xlink:href="#DejaVuSans-69" x="254.003906"/>
      <use xlink:href="#DejaVuSans-74" x="281.787109"/>
      <use xlink:href="#DejaVuSans-79" x="320.996094"/>
     </g>
    </g>
   </g>
   <g id="line2d_29">
    <path d="M 475.123535 246.033791 
L 482.871962 245.928842 
L 488.406552 245.631318 
L 500.582651 244.623688 
L 503.903405 244.070183 
L 506.117241 243.482181 
L 508.331077 242.684147 
L 510.544913 241.658017 
L 512.758749 240.382028 
L 514.972585 238.82908 
L 517.186421 236.980338 
L 519.400257 234.841749 
L 521.614094 232.447703 
L 524.934848 228.489107 
L 529.36252 222.767481 
L 533.790192 216.686052 
L 536.004028 213.405638 
L 538.217864 209.790855 
L 540.4317 205.67658 
L 542.645536 200.957209 
L 544.859373 195.658263 
L 549.287045 184.10259 
L 552.607799 175.612848 
L 554.821635 170.40138 
L 557.035471 165.691159 
L 559.249307 161.608773 
L 561.463143 158.289816 
L 562.570061 156.945133 
L 563.676979 155.809462 
L 564.783897 154.868048 
L 566.997734 153.451178 
L 572.532324 150.656731 
L 574.74616 149.117029 
L 576.959996 147.264861 
L 580.28075 144.418126 
L 581.387668 143.636019 
L 582.494586 143.026499 
L 583.601504 142.642246 
L 584.708422 142.530699 
L 585.81534 142.730787 
L 586.922258 143.270193 
L 588.029176 144.163566 
L 589.136095 145.411962 
L 590.243013 147.003591 
L 591.349931 148.915757 
L 592.456849 151.117609 
L 594.670685 156.244812 
L 596.884521 162.08786 
L 600.205275 171.619127 
L 606.846783 190.966644 
L 609.060619 196.850613 
L 611.274456 202.156314 
L 613.488292 206.735041 
L 615.702128 210.517057 
L 617.915964 213.563331 
L 620.1298 216.082199 
L 624.557472 220.767453 
L 626.771308 223.423597 
L 630.092062 227.873919 
L 633.412817 232.305554 
L 635.626653 234.870428 
L 637.840489 236.961583 
L 640.054325 238.560053 
L 642.268161 239.732228 
L 644.481997 240.590466 
L 647.802751 241.5434 
L 653.337341 242.809035 
L 656.658096 243.40366 
L 659.97885 243.786118 
L 664.406522 244.024805 
L 669.941112 244.337038 
L 675.475702 244.943587 
L 682.117211 245.656741 
L 686.544883 245.909974 
L 693.186391 246.026758 
L 695.400227 246.034889 
L 695.400227 246.034889 
" clip-path="url(#p4442a0681a)" style="fill: none; stroke: #0000ff; stroke-width: 1.5; stroke-linecap: square"/>
   </g>
   <g id="line2d_30">
    <path d="M 419.404773 246.028844 
L 422.784721 245.878505 
L 424.23327 245.641626 
L 425.681819 245.177158 
L 426.647519 244.688108 
L 427.613218 244.022701 
L 428.578918 243.163852 
L 430.027467 241.518582 
L 431.958866 238.836805 
L 437.270213 231.038381 
L 438.235912 229.049841 
L 439.201612 226.463677 
L 440.167311 223.109753 
L 441.133011 218.878924 
L 442.09871 213.741922 
L 443.547259 204.493935 
L 445.478658 190.285113 
L 447.892907 172.58167 
L 449.824306 160.332208 
L 453.687104 137.462781 
L 455.135653 127.147127 
L 456.584202 115.294488 
L 461.4127 73.600715 
L 462.378399 67.829218 
L 463.344099 63.620533 
L 464.309798 60.926272 
L 464.792648 60.075907 
L 465.275498 59.497788 
L 465.758347 59.138507 
L 466.724047 58.846145 
L 468.172596 58.663334 
L 469.138295 58.273872 
L 470.586845 57.22947 
L 471.552544 56.627034 
L 472.035394 56.515947 
L 472.518244 56.607837 
L 473.001093 56.95205 
L 473.483943 57.586538 
L 473.966793 58.535027 
L 474.449643 59.805799 
L 475.415342 63.274694 
L 476.381041 67.806193 
L 477.829591 76.006044 
L 479.76099 88.626624 
L 481.692389 103.143613 
L 483.623788 119.69671 
L 487.003736 149.216551 
L 489.417984 167.856843 
L 493.280782 196.238049 
L 494.729331 205.455893 
L 496.177881 213.189748 
L 497.62643 219.597952 
L 499.074979 225.033969 
L 500.523528 229.705493 
L 501.972077 233.641615 
L 503.420627 236.860774 
L 504.869176 239.464729 
L 506.317725 241.575495 
L 507.766274 243.247094 
L 509.214823 244.474384 
L 510.180523 245.049685 
L 511.629072 245.598338 
L 513.077621 245.871261 
L 515.49187 246.016403 
L 515.49187 246.016403 
" clip-path="url(#p4442a0681a)" style="fill: none; stroke: #ff0000; stroke-width: 1.5; stroke-linecap: square"/>
   </g>
   <g id="patch_9">
    <path d="M 405.605 246.04 
L 405.605 47.04 
" style="fill: none; stroke: #000000; stroke-width: 0.8; stroke-linejoin: miter; stroke-linecap: square"/>
   </g>
   <g id="patch_10">
    <path d="M 709.2 246.04 
L 709.2 47.04 
" style="fill: none; stroke: #000000; stroke-width: 0.8; stroke-linejoin: miter; stroke-linecap: square"/>
   </g>
   <g id="patch_11">
    <path d="M 405.605 246.04 
L 709.2 246.04 
" style="fill: none; stroke: #000000; stroke-width: 0.8; stroke-linejoin: miter; stroke-linecap: square"/>
   </g>
   <g id="patch_12">
    <path d="M 405.605 47.04 
L 709.2 47.04 
" style="fill: none; stroke: #000000; stroke-width: 0.8; stroke-linejoin: miter; stroke-linecap: square"/>
   </g>
   <g id="text_32">
    <!-- PPL Fluctuation KDE -->
    <g transform="translate(497.120313 41.04) scale(0.12 -0.12)">
     <defs>
      <path id="DejaVuSans-50" d="M 1259 4147 
L 1259 2394 
L 2053 2394 
Q 2494 2394 2734 2622 
Q 2975 2850 2975 3272 
Q 2975 3691 2734 3919 
Q 2494 4147 2053 4147 
L 1259 4147 
z
M 628 4666 
L 2053 4666 
Q 2838 4666 3239 4311 
Q 3641 3956 3641 3272 
Q 3641 2581 3239 2228 
Q 2838 1875 2053 1875 
L 1259 1875 
L 1259 0 
L 628 0 
L 628 4666 
z
" transform="scale(0.015625)"/>
     </defs>
     <use xlink:href="#DejaVuSans-50"/>
     <use xlink:href="#DejaVuSans-50" x="60.302734"/>
     <use xlink:href="#DejaVuSans-4c" x="120.605469"/>
     <use xlink:href="#DejaVuSans-20" x="176.318359"/>
     <use xlink:href="#DejaVuSans-46" x="208.105469"/>
     <use xlink:href="#DejaVuSans-6c" x="265.625"/>
     <use xlink:href="#DejaVuSans-75" x="293.408203"/>
     <use xlink:href="#DejaVuSans-63" x="356.787109"/>
     <use xlink:href="#DejaVuSans-74" x="411.767578"/>
     <use xlink:href="#DejaVuSans-75" x="450.976562"/>
     <use xlink:href="#DejaVuSans-61" x="514.355469"/>
     <use xlink:href="#DejaVuSans-74" x="575.634766"/>
     <use xlink:href="#DejaVuSans-69" x="614.84375"/>
     <use xlink:href="#DejaVuSans-6f" x="642.626953"/>
     <use xlink:href="#DejaVuSans-6e" x="703.808594"/>
     <use xlink:href="#DejaVuSans-20" x="767.1875"/>
     <use xlink:href="#DejaVuSans-4b" x="798.974609"/>
     <use xlink:href="#DejaVuSans-44" x="864.550781"/>
     <use xlink:href="#DejaVuSans-45" x="941.552734"/>
    </g>
   </g>
   <g id="legend_2">
    <g id="patch_13">
     <path d="M 496.56875 84.39625 
L 702.2 84.39625 
Q 704.2 84.39625 704.2 82.39625 
L 704.2 54.04 
Q 704.2 52.04 702.2 52.04 
L 496.56875 52.04 
Q 494.56875 52.04 494.56875 54.04 
L 494.56875 82.39625 
Q 494.56875 84.39625 496.56875 84.39625 
z
" style="fill: #ffffff; opacity: 0.8; stroke: #cccccc; stroke-linejoin: miter"/>
    </g>
    <g id="line2d_31">
     <path d="M 498.56875 60.138437 
L 508.56875 60.138437 
L 518.56875 60.138437 
" style="fill: none; stroke: #0000ff; stroke-width: 1.5; stroke-linecap: square"/>
    </g>
    <g id="text_33">
     <!-- Init vs Init Random -->
     <g transform="translate(526.56875 63.638437) scale(0.1 -0.1)">
      <use xlink:href="#DejaVuSans-49"/>
      <use xlink:href="#DejaVuSans-6e" x="29.492188"/>
      <use xlink:href="#DejaVuSans-69" x="92.871094"/>
      <use xlink:href="#DejaVuSans-74" x="120.654297"/>
      <use xlink:href="#DejaVuSans-20" x="159.863281"/>
      <use xlink:href="#DejaVuSans-76" x="191.650391"/>
      <use xlink:href="#DejaVuSans-73" x="250.830078"/>
      <use xlink:href="#DejaVuSans-20" x="302.929688"/>
      <use xlink:href="#DejaVuSans-49" x="334.716797"/>
      <use xlink:href="#DejaVuSans-6e" x="364.208984"/>
      <use xlink:href="#DejaVuSans-69" x="427.587891"/>
      <use xlink:href="#DejaVuSans-74" x="455.371094"/>
      <use xlink:href="#DejaVuSans-20" x="494.580078"/>
      <use xlink:href="#DejaVuSans-52" x="526.367188"/>
      <use xlink:href="#DejaVuSans-61" x="593.599609"/>
      <use xlink:href="#DejaVuSans-6e" x="654.878906"/>
      <use xlink:href="#DejaVuSans-64" x="718.257812"/>
      <use xlink:href="#DejaVuSans-6f" x="781.734375"/>
      <use xlink:href="#DejaVuSans-6d" x="842.916016"/>
     </g>
    </g>
    <g id="line2d_32">
     <path d="M 498.56875 74.816562 
L 508.56875 74.816562 
L 518.56875 74.816562 
" style="fill: none; stroke: #ff0000; stroke-width: 1.5; stroke-linecap: square"/>
    </g>
    <g id="text_34">
     <!-- Generation vs Generation Random -->
     <g transform="translate(526.56875 78.316562) scale(0.1 -0.1)">
      <use xlink:href="#DejaVuSans-47"/>
      <use xlink:href="#DejaVuSans-65" x="77.490234"/>
      <use xlink:href="#DejaVuSans-6e" x="139.013672"/>
      <use xlink:href="#DejaVuSans-65" x="202.392578"/>
      <use xlink:href="#DejaVuSans-72" x="263.916016"/>
      <use xlink:href="#DejaVuSans-61" x="305.029297"/>
      <use xlink:href="#DejaVuSans-74" x="366.308594"/>
      <use xlink:href="#DejaVuSans-69" x="405.517578"/>
      <use xlink:href="#DejaVuSans-6f" x="433.300781"/>
      <use xlink:href="#DejaVuSans-6e" x="494.482422"/>
      <use xlink:href="#DejaVuSans-20" x="557.861328"/>
      <use xlink:href="#DejaVuSans-76" x="589.648438"/>
      <use xlink:href="#DejaVuSans-73" x="648.828125"/>
      <use xlink:href="#DejaVuSans-20" x="700.927734"/>
      <use xlink:href="#DejaVuSans-47" x="732.714844"/>
      <use xlink:href="#DejaVuSans-65" x="810.205078"/>
      <use xlink:href="#DejaVuSans-6e" x="871.728516"/>
      <use xlink:href="#DejaVuSans-65" x="935.107422"/>
      <use xlink:href="#DejaVuSans-72" x="996.630859"/>
      <use xlink:href="#DejaVuSans-61" x="1037.744141"/>
      <use xlink:href="#DejaVuSans-74" x="1099.023438"/>
      <use xlink:href="#DejaVuSans-69" x="1138.232422"/>
      <use xlink:href="#DejaVuSans-6f" x="1166.015625"/>
      <use xlink:href="#DejaVuSans-6e" x="1227.197266"/>
      <use xlink:href="#DejaVuSans-20" x="1290.576172"/>
      <use xlink:href="#DejaVuSans-52" x="1322.363281"/>
      <use xlink:href="#DejaVuSans-61" x="1389.595703"/>
      <use xlink:href="#DejaVuSans-6e" x="1450.875"/>
      <use xlink:href="#DejaVuSans-64" x="1514.253906"/>
      <use xlink:href="#DejaVuSans-6f" x="1577.730469"/>
      <use xlink:href="#DejaVuSans-6d" x="1638.912109"/>
     </g>
    </g>
   </g>
  </g>
  <g id="text_35">
   <!-- LLScore and PPL Fluctuation KDE Plot -->
   <g transform="translate(247.911563 14.878125) scale(0.12 -0.12)">
    <use xlink:href="#DejaVuSans-4c"/>
    <use xlink:href="#DejaVuSans-4c" x="55.712891"/>
    <use xlink:href="#DejaVuSans-53" x="111.425781"/>
    <use xlink:href="#DejaVuSans-63" x="174.902344"/>
    <use xlink:href="#DejaVuSans-6f" x="229.882812"/>
    <use xlink:href="#DejaVuSans-72" x="291.064453"/>
    <use xlink:href="#DejaVuSans-65" x="329.927734"/>
    <use xlink:href="#DejaVuSans-20" x="391.451172"/>
    <use xlink:href="#DejaVuSans-61" x="423.238281"/>
    <use xlink:href="#DejaVuSans-6e" x="484.517578"/>
    <use xlink:href="#DejaVuSans-64" x="547.896484"/>
    <use xlink:href="#DejaVuSans-20" x="611.373047"/>
    <use xlink:href="#DejaVuSans-50" x="643.160156"/>
    <use xlink:href="#DejaVuSans-50" x="703.462891"/>
    <use xlink:href="#DejaVuSans-4c" x="763.765625"/>
    <use xlink:href="#DejaVuSans-20" x="819.478516"/>
    <use xlink:href="#DejaVuSans-46" x="851.265625"/>
    <use xlink:href="#DejaVuSans-6c" x="908.785156"/>
    <use xlink:href="#DejaVuSans-75" x="936.568359"/>
    <use xlink:href="#DejaVuSans-63" x="999.947266"/>
    <use xlink:href="#DejaVuSans-74" x="1054.927734"/>
    <use xlink:href="#DejaVuSans-75" x="1094.136719"/>
    <use xlink:href="#DejaVuSans-61" x="1157.515625"/>
    <use xlink:href="#DejaVuSans-74" x="1218.794922"/>
    <use xlink:href="#DejaVuSans-69" x="1258.003906"/>
    <use xlink:href="#DejaVuSans-6f" x="1285.787109"/>
    <use xlink:href="#DejaVuSans-6e" x="1346.96875"/>
    <use xlink:href="#DejaVuSans-20" x="1410.347656"/>
    <use xlink:href="#DejaVuSans-4b" x="1442.134766"/>
    <use xlink:href="#DejaVuSans-44" x="1507.710938"/>
    <use xlink:href="#DejaVuSans-45" x="1584.712891"/>
    <use xlink:href="#DejaVuSans-20" x="1647.896484"/>
    <use xlink:href="#DejaVuSans-50" x="1679.683594"/>
    <use xlink:href="#DejaVuSans-6c" x="1739.986328"/>
    <use xlink:href="#DejaVuSans-6f" x="1767.769531"/>
    <use xlink:href="#DejaVuSans-74" x="1828.951172"/>
   </g>
  </g>
 </g>
 <defs>
  <clipPath id="pc7225d818b">
   <rect x="54.2" y="47.04" width="303.595" height="199"/>
  </clipPath>
  <clipPath id="p4442a0681a">
   <rect x="405.605" y="47.04" width="303.595" height="199"/>
  </clipPath>
 </defs>
</svg>
