<?xml version="1.0" encoding="utf-8" standalone="no"?>
<!DOCTYPE svg PUBLIC "-//W3C//DTD SVG 1.1//EN"
  "http://www.w3.org/Graphics/SVG/1.1/DTD/svg11.dtd">
<svg xmlns:xlink="http://www.w3.org/1999/xlink" width="720pt" height="288pt" viewBox="0 0 720 288" xmlns="http://www.w3.org/2000/svg" version="1.1">
 <metadata>
  <rdf:RDF xmlns:dc="http://purl.org/dc/elements/1.1/" xmlns:cc="http://creativecommons.org/ns#" xmlns:rdf="http://www.w3.org/1999/02/22-rdf-syntax-ns#">
   <cc:Work>
    <dc:type rdf:resource="http://purl.org/dc/dcmitype/StillImage"/>
    <dc:date>2025-03-24T14:43:03.010493</dc:date>
    <dc:format>image/svg+xml</dc:format>
    <dc:creator>
     <cc:Agent>
      <dc:title>Matplotlib v3.9.2, https://matplotlib.org/</dc:title>
     </cc:Agent>
    </dc:creator>
   </cc:Work>
  </rdf:RDF>
 </metadata>
 <defs>
  <style type="text/css">*{stroke-linejoin: round; stroke-linecap: butt}</style>
 </defs>
 <g id="figure_1">
  <g id="patch_1">
   <path d="M 0 288 
L 720 288 
L 720 0 
L 0 0 
z
" style="fill: #ffffff"/>
  </g>
  <g id="axes_1">
   <g id="patch_2">
    <path d="M 60.59 246.04 
L 354.115711 246.04 
L 354.115711 47.04 
L 60.59 47.04 
z
" style="fill: #ffffff"/>
   </g>
   <g id="matplotlib.axis_1">
    <g id="xtick_1">
     <g id="line2d_1">
      <defs>
       <path id="m004664ae5f" d="M 0 0 
L 0 3.5 
" style="stroke: #000000; stroke-width: 0.8"/>
      </defs>
      <g>
       <use xlink:href="#m004664ae5f" x="84.788646" y="246.04" style="stroke: #000000; stroke-width: 0.8"/>
      </g>
     </g>
     <g id="text_1">
      <!-- 0 -->
      <g transform="translate(81.607396 260.638438) scale(0.1 -0.1)">
       <defs>
        <path id="DejaVuSans-30" d="M 2034 4250 
Q 1547 4250 1301 3770 
Q 1056 3291 1056 2328 
Q 1056 1369 1301 889 
Q 1547 409 2034 409 
Q 2525 409 2770 889 
Q 3016 1369 3016 2328 
Q 3016 3291 2770 3770 
Q 2525 4250 2034 4250 
z
M 2034 4750 
Q 2819 4750 3233 4129 
Q 3647 3509 3647 2328 
Q 3647 1150 3233 529 
Q 2819 -91 2034 -91 
Q 1250 -91 836 529 
Q 422 1150 422 2328 
Q 422 3509 836 4129 
Q 1250 4750 2034 4750 
z
" transform="scale(0.015625)"/>
       </defs>
       <use xlink:href="#DejaVuSans-30"/>
      </g>
     </g>
    </g>
    <g id="xtick_2">
     <g id="line2d_2">
      <g>
       <use xlink:href="#m004664ae5f" x="122.89586" y="246.04" style="stroke: #000000; stroke-width: 0.8"/>
      </g>
     </g>
     <g id="text_2">
      <!-- 50 -->
      <g transform="translate(116.53336 260.638438) scale(0.1 -0.1)">
       <defs>
        <path id="DejaVuSans-35" d="M 691 4666 
L 3169 4666 
L 3169 4134 
L 1269 4134 
L 1269 2991 
Q 1406 3038 1543 3061 
Q 1681 3084 1819 3084 
Q 2600 3084 3056 2656 
Q 3513 2228 3513 1497 
Q 3513 744 3044 326 
Q 2575 -91 1722 -91 
Q 1428 -91 1123 -41 
Q 819 9 494 109 
L 494 744 
Q 775 591 1075 516 
Q 1375 441 1709 441 
Q 2250 441 2565 725 
Q 2881 1009 2881 1497 
Q 2881 1984 2565 2268 
Q 2250 2553 1709 2553 
Q 1456 2553 1204 2497 
Q 953 2441 691 2322 
L 691 4666 
z
" transform="scale(0.015625)"/>
       </defs>
       <use xlink:href="#DejaVuSans-35"/>
       <use xlink:href="#DejaVuSans-30" x="63.623047"/>
      </g>
     </g>
    </g>
    <g id="xtick_3">
     <g id="line2d_3">
      <g>
       <use xlink:href="#m004664ae5f" x="161.003073" y="246.04" style="stroke: #000000; stroke-width: 0.8"/>
      </g>
     </g>
     <g id="text_3">
      <!-- 100 -->
      <g transform="translate(151.459323 260.638438) scale(0.1 -0.1)">
       <defs>
        <path id="DejaVuSans-31" d="M 794 531 
L 1825 531 
L 1825 4091 
L 703 3866 
L 703 4441 
L 1819 4666 
L 2450 4666 
L 2450 531 
L 3481 531 
L 3481 0 
L 794 0 
L 794 531 
z
" transform="scale(0.015625)"/>
       </defs>
       <use xlink:href="#DejaVuSans-31"/>
       <use xlink:href="#DejaVuSans-30" x="63.623047"/>
       <use xlink:href="#DejaVuSans-30" x="127.246094"/>
      </g>
     </g>
    </g>
    <g id="xtick_4">
     <g id="line2d_4">
      <g>
       <use xlink:href="#m004664ae5f" x="199.110287" y="246.04" style="stroke: #000000; stroke-width: 0.8"/>
      </g>
     </g>
     <g id="text_4">
      <!-- 150 -->
      <g transform="translate(189.566537 260.638438) scale(0.1 -0.1)">
       <use xlink:href="#DejaVuSans-31"/>
       <use xlink:href="#DejaVuSans-35" x="63.623047"/>
       <use xlink:href="#DejaVuSans-30" x="127.246094"/>
      </g>
     </g>
    </g>
    <g id="xtick_5">
     <g id="line2d_5">
      <g>
       <use xlink:href="#m004664ae5f" x="237.2175" y="246.04" style="stroke: #000000; stroke-width: 0.8"/>
      </g>
     </g>
     <g id="text_5">
      <!-- 200 -->
      <g transform="translate(227.67375 260.638438) scale(0.1 -0.1)">
       <defs>
        <path id="DejaVuSans-32" d="M 1228 531 
L 3431 531 
L 3431 0 
L 469 0 
L 469 531 
Q 828 903 1448 1529 
Q 2069 2156 2228 2338 
Q 2531 2678 2651 2914 
Q 2772 3150 2772 3378 
Q 2772 3750 2511 3984 
Q 2250 4219 1831 4219 
Q 1534 4219 1204 4116 
Q 875 4013 500 3803 
L 500 4441 
Q 881 4594 1212 4672 
Q 1544 4750 1819 4750 
Q 2544 4750 2975 4387 
Q 3406 4025 3406 3419 
Q 3406 3131 3298 2873 
Q 3191 2616 2906 2266 
Q 2828 2175 2409 1742 
Q 1991 1309 1228 531 
z
" transform="scale(0.015625)"/>
       </defs>
       <use xlink:href="#DejaVuSans-32"/>
       <use xlink:href="#DejaVuSans-30" x="63.623047"/>
       <use xlink:href="#DejaVuSans-30" x="127.246094"/>
      </g>
     </g>
    </g>
    <g id="xtick_6">
     <g id="line2d_6">
      <g>
       <use xlink:href="#m004664ae5f" x="275.324714" y="246.04" style="stroke: #000000; stroke-width: 0.8"/>
      </g>
     </g>
     <g id="text_6">
      <!-- 250 -->
      <g transform="translate(265.780964 260.638438) scale(0.1 -0.1)">
       <use xlink:href="#DejaVuSans-32"/>
       <use xlink:href="#DejaVuSans-35" x="63.623047"/>
       <use xlink:href="#DejaVuSans-30" x="127.246094"/>
      </g>
     </g>
    </g>
    <g id="xtick_7">
     <g id="line2d_7">
      <g>
       <use xlink:href="#m004664ae5f" x="313.431927" y="246.04" style="stroke: #000000; stroke-width: 0.8"/>
      </g>
     </g>
     <g id="text_7">
      <!-- 300 -->
      <g transform="translate(303.888177 260.638438) scale(0.1 -0.1)">
       <defs>
        <path id="DejaVuSans-33" d="M 2597 2516 
Q 3050 2419 3304 2112 
Q 3559 1806 3559 1356 
Q 3559 666 3084 287 
Q 2609 -91 1734 -91 
Q 1441 -91 1130 -33 
Q 819 25 488 141 
L 488 750 
Q 750 597 1062 519 
Q 1375 441 1716 441 
Q 2309 441 2620 675 
Q 2931 909 2931 1356 
Q 2931 1769 2642 2001 
Q 2353 2234 1838 2234 
L 1294 2234 
L 1294 2753 
L 1863 2753 
Q 2328 2753 2575 2939 
Q 2822 3125 2822 3475 
Q 2822 3834 2567 4026 
Q 2313 4219 1838 4219 
Q 1578 4219 1281 4162 
Q 984 4106 628 3988 
L 628 4550 
Q 988 4650 1302 4700 
Q 1616 4750 1894 4750 
Q 2613 4750 3031 4423 
Q 3450 4097 3450 3541 
Q 3450 3153 3228 2886 
Q 3006 2619 2597 2516 
z
" transform="scale(0.015625)"/>
       </defs>
       <use xlink:href="#DejaVuSans-33"/>
       <use xlink:href="#DejaVuSans-30" x="63.623047"/>
       <use xlink:href="#DejaVuSans-30" x="127.246094"/>
      </g>
     </g>
    </g>
    <g id="xtick_8">
     <g id="line2d_8">
      <g>
       <use xlink:href="#m004664ae5f" x="351.53914" y="246.04" style="stroke: #000000; stroke-width: 0.8"/>
      </g>
     </g>
     <g id="text_8">
      <!-- 350 -->
      <g transform="translate(341.99539 260.638438) scale(0.1 -0.1)">
       <use xlink:href="#DejaVuSans-33"/>
       <use xlink:href="#DejaVuSans-35" x="63.623047"/>
       <use xlink:href="#DejaVuSans-30" x="127.246094"/>
      </g>
     </g>
    </g>
    <g id="text_9">
     <!-- Fluctuation -->
     <g transform="translate(179.39973 274.316562) scale(0.1 -0.1)">
      <defs>
       <path id="DejaVuSans-46" d="M 628 4666 
L 3309 4666 
L 3309 4134 
L 1259 4134 
L 1259 2759 
L 3109 2759 
L 3109 2228 
L 1259 2228 
L 1259 0 
L 628 0 
L 628 4666 
z
" transform="scale(0.015625)"/>
       <path id="DejaVuSans-6c" d="M 603 4863 
L 1178 4863 
L 1178 0 
L 603 0 
L 603 4863 
z
" transform="scale(0.015625)"/>
       <path id="DejaVuSans-75" d="M 544 1381 
L 544 3500 
L 1119 3500 
L 1119 1403 
Q 1119 906 1312 657 
Q 1506 409 1894 409 
Q 2359 409 2629 706 
Q 2900 1003 2900 1516 
L 2900 3500 
L 3475 3500 
L 3475 0 
L 2900 0 
L 2900 538 
Q 2691 219 2414 64 
Q 2138 -91 1772 -91 
Q 1169 -91 856 284 
Q 544 659 544 1381 
z
M 1991 3584 
L 1991 3584 
z
" transform="scale(0.015625)"/>
       <path id="DejaVuSans-63" d="M 3122 3366 
L 3122 2828 
Q 2878 2963 2633 3030 
Q 2388 3097 2138 3097 
Q 1578 3097 1268 2742 
Q 959 2388 959 1747 
Q 959 1106 1268 751 
Q 1578 397 2138 397 
Q 2388 397 2633 464 
Q 2878 531 3122 666 
L 3122 134 
Q 2881 22 2623 -34 
Q 2366 -91 2075 -91 
Q 1284 -91 818 406 
Q 353 903 353 1747 
Q 353 2603 823 3093 
Q 1294 3584 2113 3584 
Q 2378 3584 2631 3529 
Q 2884 3475 3122 3366 
z
" transform="scale(0.015625)"/>
       <path id="DejaVuSans-74" d="M 1172 4494 
L 1172 3500 
L 2356 3500 
L 2356 3053 
L 1172 3053 
L 1172 1153 
Q 1172 725 1289 603 
Q 1406 481 1766 481 
L 2356 481 
L 2356 0 
L 1766 0 
Q 1100 0 847 248 
Q 594 497 594 1153 
L 594 3053 
L 172 3053 
L 172 3500 
L 594 3500 
L 594 4494 
L 1172 4494 
z
" transform="scale(0.015625)"/>
       <path id="DejaVuSans-61" d="M 2194 1759 
Q 1497 1759 1228 1600 
Q 959 1441 959 1056 
Q 959 750 1161 570 
Q 1363 391 1709 391 
Q 2188 391 2477 730 
Q 2766 1069 2766 1631 
L 2766 1759 
L 2194 1759 
z
M 3341 1997 
L 3341 0 
L 2766 0 
L 2766 531 
Q 2569 213 2275 61 
Q 1981 -91 1556 -91 
Q 1019 -91 701 211 
Q 384 513 384 1019 
Q 384 1609 779 1909 
Q 1175 2209 1959 2209 
L 2766 2209 
L 2766 2266 
Q 2766 2663 2505 2880 
Q 2244 3097 1772 3097 
Q 1472 3097 1187 3025 
Q 903 2953 641 2809 
L 641 3341 
Q 956 3463 1253 3523 
Q 1550 3584 1831 3584 
Q 2591 3584 2966 3190 
Q 3341 2797 3341 1997 
z
" transform="scale(0.015625)"/>
       <path id="DejaVuSans-69" d="M 603 3500 
L 1178 3500 
L 1178 0 
L 603 0 
L 603 3500 
z
M 603 4863 
L 1178 4863 
L 1178 4134 
L 603 4134 
L 603 4863 
z
" transform="scale(0.015625)"/>
       <path id="DejaVuSans-6f" d="M 1959 3097 
Q 1497 3097 1228 2736 
Q 959 2375 959 1747 
Q 959 1119 1226 758 
Q 1494 397 1959 397 
Q 2419 397 2687 759 
Q 2956 1122 2956 1747 
Q 2956 2369 2687 2733 
Q 2419 3097 1959 3097 
z
M 1959 3584 
Q 2709 3584 3137 3096 
Q 3566 2609 3566 1747 
Q 3566 888 3137 398 
Q 2709 -91 1959 -91 
Q 1206 -91 779 398 
Q 353 888 353 1747 
Q 353 2609 779 3096 
Q 1206 3584 1959 3584 
z
" transform="scale(0.015625)"/>
       <path id="DejaVuSans-6e" d="M 3513 2113 
L 3513 0 
L 2938 0 
L 2938 2094 
Q 2938 2591 2744 2837 
Q 2550 3084 2163 3084 
Q 1697 3084 1428 2787 
Q 1159 2491 1159 1978 
L 1159 0 
L 581 0 
L 581 3500 
L 1159 3500 
L 1159 2956 
Q 1366 3272 1645 3428 
Q 1925 3584 2291 3584 
Q 2894 3584 3203 3211 
Q 3513 2838 3513 2113 
z
" transform="scale(0.015625)"/>
      </defs>
      <use xlink:href="#DejaVuSans-46"/>
      <use xlink:href="#DejaVuSans-6c" x="57.519531"/>
      <use xlink:href="#DejaVuSans-75" x="85.302734"/>
      <use xlink:href="#DejaVuSans-63" x="148.681641"/>
      <use xlink:href="#DejaVuSans-74" x="203.662109"/>
      <use xlink:href="#DejaVuSans-75" x="242.871094"/>
      <use xlink:href="#DejaVuSans-61" x="306.25"/>
      <use xlink:href="#DejaVuSans-74" x="367.529297"/>
      <use xlink:href="#DejaVuSans-69" x="406.738281"/>
      <use xlink:href="#DejaVuSans-6f" x="434.521484"/>
      <use xlink:href="#DejaVuSans-6e" x="495.703125"/>
     </g>
    </g>
   </g>
   <g id="matplotlib.axis_2">
    <g id="ytick_1">
     <g id="line2d_9">
      <defs>
       <path id="m8e17ea49b9" d="M 0 0 
L -3.5 0 
" style="stroke: #000000; stroke-width: 0.8"/>
      </defs>
      <g>
       <use xlink:href="#m8e17ea49b9" x="60.59" y="246.04" style="stroke: #000000; stroke-width: 0.8"/>
      </g>
     </g>
     <g id="text_10">
      <!-- 0.000 -->
      <g transform="translate(24.961875 249.839219) scale(0.1 -0.1)">
       <defs>
        <path id="DejaVuSans-2e" d="M 684 794 
L 1344 794 
L 1344 0 
L 684 0 
L 684 794 
z
" transform="scale(0.015625)"/>
       </defs>
       <use xlink:href="#DejaVuSans-30"/>
       <use xlink:href="#DejaVuSans-2e" x="63.623047"/>
       <use xlink:href="#DejaVuSans-30" x="95.410156"/>
       <use xlink:href="#DejaVuSans-30" x="159.033203"/>
       <use xlink:href="#DejaVuSans-30" x="222.65625"/>
      </g>
     </g>
    </g>
    <g id="ytick_2">
     <g id="line2d_10">
      <g>
       <use xlink:href="#m8e17ea49b9" x="60.59" y="212.937473" style="stroke: #000000; stroke-width: 0.8"/>
      </g>
     </g>
     <g id="text_11">
      <!-- 0.005 -->
      <g transform="translate(24.961875 216.736692) scale(0.1 -0.1)">
       <use xlink:href="#DejaVuSans-30"/>
       <use xlink:href="#DejaVuSans-2e" x="63.623047"/>
       <use xlink:href="#DejaVuSans-30" x="95.410156"/>
       <use xlink:href="#DejaVuSans-30" x="159.033203"/>
       <use xlink:href="#DejaVuSans-35" x="222.65625"/>
      </g>
     </g>
    </g>
    <g id="ytick_3">
     <g id="line2d_11">
      <g>
       <use xlink:href="#m8e17ea49b9" x="60.59" y="179.834946" style="stroke: #000000; stroke-width: 0.8"/>
      </g>
     </g>
     <g id="text_12">
      <!-- 0.010 -->
      <g transform="translate(24.961875 183.634165) scale(0.1 -0.1)">
       <use xlink:href="#DejaVuSans-30"/>
       <use xlink:href="#DejaVuSans-2e" x="63.623047"/>
       <use xlink:href="#DejaVuSans-30" x="95.410156"/>
       <use xlink:href="#DejaVuSans-31" x="159.033203"/>
       <use xlink:href="#DejaVuSans-30" x="222.65625"/>
      </g>
     </g>
    </g>
    <g id="ytick_4">
     <g id="line2d_12">
      <g>
       <use xlink:href="#m8e17ea49b9" x="60.59" y="146.732419" style="stroke: #000000; stroke-width: 0.8"/>
      </g>
     </g>
     <g id="text_13">
      <!-- 0.015 -->
      <g transform="translate(24.961875 150.531637) scale(0.1 -0.1)">
       <use xlink:href="#DejaVuSans-30"/>
       <use xlink:href="#DejaVuSans-2e" x="63.623047"/>
       <use xlink:href="#DejaVuSans-30" x="95.410156"/>
       <use xlink:href="#DejaVuSans-31" x="159.033203"/>
       <use xlink:href="#DejaVuSans-35" x="222.65625"/>
      </g>
     </g>
    </g>
    <g id="ytick_5">
     <g id="line2d_13">
      <g>
       <use xlink:href="#m8e17ea49b9" x="60.59" y="113.629892" style="stroke: #000000; stroke-width: 0.8"/>
      </g>
     </g>
     <g id="text_14">
      <!-- 0.020 -->
      <g transform="translate(24.961875 117.42911) scale(0.1 -0.1)">
       <use xlink:href="#DejaVuSans-30"/>
       <use xlink:href="#DejaVuSans-2e" x="63.623047"/>
       <use xlink:href="#DejaVuSans-30" x="95.410156"/>
       <use xlink:href="#DejaVuSans-32" x="159.033203"/>
       <use xlink:href="#DejaVuSans-30" x="222.65625"/>
      </g>
     </g>
    </g>
    <g id="ytick_6">
     <g id="line2d_14">
      <g>
       <use xlink:href="#m8e17ea49b9" x="60.59" y="80.527365" style="stroke: #000000; stroke-width: 0.8"/>
      </g>
     </g>
     <g id="text_15">
      <!-- 0.025 -->
      <g transform="translate(24.961875 84.326583) scale(0.1 -0.1)">
       <use xlink:href="#DejaVuSans-30"/>
       <use xlink:href="#DejaVuSans-2e" x="63.623047"/>
       <use xlink:href="#DejaVuSans-30" x="95.410156"/>
       <use xlink:href="#DejaVuSans-32" x="159.033203"/>
       <use xlink:href="#DejaVuSans-35" x="222.65625"/>
      </g>
     </g>
    </g>
    <g id="ytick_7">
     <g id="line2d_15">
      <g>
       <use xlink:href="#m8e17ea49b9" x="60.59" y="47.424837" style="stroke: #000000; stroke-width: 0.8"/>
      </g>
     </g>
     <g id="text_16">
      <!-- 0.030 -->
      <g transform="translate(24.961875 51.224056) scale(0.1 -0.1)">
       <use xlink:href="#DejaVuSans-30"/>
       <use xlink:href="#DejaVuSans-2e" x="63.623047"/>
       <use xlink:href="#DejaVuSans-30" x="95.410156"/>
       <use xlink:href="#DejaVuSans-33" x="159.033203"/>
       <use xlink:href="#DejaVuSans-30" x="222.65625"/>
      </g>
     </g>
    </g>
    <g id="text_17">
     <!-- Density -->
     <g transform="translate(18.882188 165.548594) rotate(-90) scale(0.1 -0.1)">
      <defs>
       <path id="DejaVuSans-44" d="M 1259 4147 
L 1259 519 
L 2022 519 
Q 2988 519 3436 956 
Q 3884 1394 3884 2338 
Q 3884 3275 3436 3711 
Q 2988 4147 2022 4147 
L 1259 4147 
z
M 628 4666 
L 1925 4666 
Q 3281 4666 3915 4102 
Q 4550 3538 4550 2338 
Q 4550 1131 3912 565 
Q 3275 0 1925 0 
L 628 0 
L 628 4666 
z
" transform="scale(0.015625)"/>
       <path id="DejaVuSans-65" d="M 3597 1894 
L 3597 1613 
L 953 1613 
Q 991 1019 1311 708 
Q 1631 397 2203 397 
Q 2534 397 2845 478 
Q 3156 559 3463 722 
L 3463 178 
Q 3153 47 2828 -22 
Q 2503 -91 2169 -91 
Q 1331 -91 842 396 
Q 353 884 353 1716 
Q 353 2575 817 3079 
Q 1281 3584 2069 3584 
Q 2775 3584 3186 3129 
Q 3597 2675 3597 1894 
z
M 3022 2063 
Q 3016 2534 2758 2815 
Q 2500 3097 2075 3097 
Q 1594 3097 1305 2825 
Q 1016 2553 972 2059 
L 3022 2063 
z
" transform="scale(0.015625)"/>
       <path id="DejaVuSans-73" d="M 2834 3397 
L 2834 2853 
Q 2591 2978 2328 3040 
Q 2066 3103 1784 3103 
Q 1356 3103 1142 2972 
Q 928 2841 928 2578 
Q 928 2378 1081 2264 
Q 1234 2150 1697 2047 
L 1894 2003 
Q 2506 1872 2764 1633 
Q 3022 1394 3022 966 
Q 3022 478 2636 193 
Q 2250 -91 1575 -91 
Q 1294 -91 989 -36 
Q 684 19 347 128 
L 347 722 
Q 666 556 975 473 
Q 1284 391 1588 391 
Q 1994 391 2212 530 
Q 2431 669 2431 922 
Q 2431 1156 2273 1281 
Q 2116 1406 1581 1522 
L 1381 1569 
Q 847 1681 609 1914 
Q 372 2147 372 2553 
Q 372 3047 722 3315 
Q 1072 3584 1716 3584 
Q 2034 3584 2315 3537 
Q 2597 3491 2834 3397 
z
" transform="scale(0.015625)"/>
       <path id="DejaVuSans-79" d="M 2059 -325 
Q 1816 -950 1584 -1140 
Q 1353 -1331 966 -1331 
L 506 -1331 
L 506 -850 
L 844 -850 
Q 1081 -850 1212 -737 
Q 1344 -625 1503 -206 
L 1606 56 
L 191 3500 
L 800 3500 
L 1894 763 
L 2988 3500 
L 3597 3500 
L 2059 -325 
z
" transform="scale(0.015625)"/>
      </defs>
      <use xlink:href="#DejaVuSans-44"/>
      <use xlink:href="#DejaVuSans-65" x="77.001953"/>
      <use xlink:href="#DejaVuSans-6e" x="138.525391"/>
      <use xlink:href="#DejaVuSans-73" x="201.904297"/>
      <use xlink:href="#DejaVuSans-69" x="254.003906"/>
      <use xlink:href="#DejaVuSans-74" x="281.787109"/>
      <use xlink:href="#DejaVuSans-79" x="320.996094"/>
     </g>
    </g>
   </g>
   <g id="line2d_16">
    <path d="M 73.932078 245.804829 
L 75.27299 245.325217 
L 76.613902 244.12567 
L 77.954815 241.51098 
L 79.295727 236.543862 
L 80.636639 228.3197 
L 81.977552 216.450174 
L 83.318464 201.51383 
L 86.000289 169.38452 
L 87.341201 156.144014 
L 88.682113 146.264386 
L 90.023026 139.564958 
L 91.363938 135.228287 
L 92.70485 132.372601 
L 94.045763 130.429554 
L 95.386675 129.200048 
L 96.727587 128.691335 
L 98.0685 128.927869 
L 99.409412 129.867361 
L 100.750325 131.429198 
L 102.091237 133.559738 
L 103.432149 136.261941 
L 104.773062 139.569137 
L 106.113974 143.485936 
L 108.795799 152.725597 
L 111.477623 162.332072 
L 114.159448 170.835083 
L 118.182185 182.329764 
L 120.86401 189.449192 
L 122.204922 192.500719 
L 123.545834 195.151609 
L 126.227659 199.645013 
L 130.250396 206.20842 
L 134.273133 212.938934 
L 136.954958 216.851474 
L 139.636782 220.275454 
L 142.318607 223.198246 
L 143.659519 224.374888 
L 145.000432 225.324583 
L 147.682256 226.734045 
L 150.364081 228.12754 
L 155.72773 231.401678 
L 159.750467 233.324684 
L 163.773204 235.127138 
L 167.795941 236.660102 
L 177.182328 239.816804 
L 181.205065 240.895625 
L 183.886889 241.395672 
L 190.591451 242.29847 
L 198.636925 244.04736 
L 201.31875 244.306496 
L 208.023312 244.531402 
L 218.75061 244.91176 
L 228.136997 245.401359 
L 240.205208 245.79079 
L 246.909769 245.813572 
L 252.273419 245.843579 
L 258.97798 245.883146 
L 313.955386 246.039998 
L 340.773633 246.039599 
L 340.773633 246.039599 
" clip-path="url(#p95b76f584c)" style="fill: none; stroke: #0000ff; stroke-width: 1.5; stroke-linecap: square"/>
   </g>
   <g id="line2d_17">
    <path d="M 79.839113 245.839387 
L 80.347627 245.524502 
L 80.856142 244.825614 
L 81.364656 243.413388 
L 81.87317 240.814337 
L 82.381685 236.455346 
L 82.890199 229.787723 
L 83.398713 220.474965 
L 84.415742 194.641702 
L 85.941285 150.71445 
L 86.958313 128.282827 
L 87.975342 113.098126 
L 88.99237 102.725104 
L 90.009399 95.063343 
L 91.534942 86.045441 
L 92.55197 79.909271 
L 95.094542 62.381504 
L 95.603056 60.00397 
L 96.111571 58.355149 
L 96.620085 57.345002 
L 97.128599 56.803175 
L 97.637113 56.56119 
L 98.145628 56.51619 
L 98.654142 56.653173 
L 99.162656 57.029105 
L 99.671171 57.738104 
L 100.179685 58.876092 
L 100.688199 60.514061 
L 101.196714 62.681568 
L 102.213742 68.480954 
L 104.247799 82.995147 
L 106.281856 98.176809 
L 107.298885 108.154422 
L 110.858485 146.812981 
L 112.892542 166.574982 
L 113.909571 174.798305 
L 114.926599 181.614924 
L 116.452142 190.136838 
L 118.4862 199.940749 
L 120.520257 208.498554 
L 123.062828 217.861327 
L 124.588371 222.615747 
L 125.6054 225.010011 
L 126.622428 226.786926 
L 128.147971 229.287569 
L 129.165 231.494431 
L 130.690543 235.104524 
L 131.199057 236.034931 
L 131.707571 236.729363 
L 132.216086 237.203219 
L 133.233114 237.762409 
L 134.250143 238.324219 
L 135.775686 239.621721 
L 136.792714 240.471546 
L 137.809743 241.073748 
L 139.335286 241.608591 
L 140.860829 242.15043 
L 143.4034 243.215183 
L 145.437457 243.860585 
L 147.471514 244.655465 
L 149.505572 245.037327 
L 152.556657 245.620067 
L 154.0822 245.567623 
L 157.133286 245.311543 
L 162.726943 245.535653 
L 165.269515 245.405754 
L 167.303572 245.655979 
L 168.829115 245.786793 
L 173.405744 245.694163 
L 175.948315 245.697656 
L 180.524944 246.034936 
L 181.033458 246.037944 
L 181.033458 246.037944 
" clip-path="url(#p95b76f584c)" style="fill: none; stroke: #ff0000; stroke-width: 1.5; stroke-linecap: square"/>
   </g>
   <g id="patch_3">
    <path d="M 60.59 246.04 
L 60.59 47.04 
" style="fill: none; stroke: #000000; stroke-width: 0.8; stroke-linejoin: miter; stroke-linecap: square"/>
   </g>
   <g id="patch_4">
    <path d="M 354.115711 246.04 
L 354.115711 47.04 
" style="fill: none; stroke: #000000; stroke-width: 0.8; stroke-linejoin: miter; stroke-linecap: square"/>
   </g>
   <g id="patch_5">
    <path d="M 60.59 246.04 
L 354.115711 246.04 
" style="fill: none; stroke: #000000; stroke-width: 0.8; stroke-linejoin: miter; stroke-linecap: square"/>
   </g>
   <g id="patch_6">
    <path d="M 60.59 47.04 
L 354.115711 47.04 
" style="fill: none; stroke: #000000; stroke-width: 0.8; stroke-linejoin: miter; stroke-linecap: square"/>
   </g>
   <g id="text_18">
    <!-- LLScore Fluctuation KDE -->
    <g transform="translate(134.160355 41.04) scale(0.12 -0.12)">
     <defs>
      <path id="DejaVuSans-4c" d="M 628 4666 
L 1259 4666 
L 1259 531 
L 3531 531 
L 3531 0 
L 628 0 
L 628 4666 
z
" transform="scale(0.015625)"/>
      <path id="DejaVuSans-53" d="M 3425 4513 
L 3425 3897 
Q 3066 4069 2747 4153 
Q 2428 4238 2131 4238 
Q 1616 4238 1336 4038 
Q 1056 3838 1056 3469 
Q 1056 3159 1242 3001 
Q 1428 2844 1947 2747 
L 2328 2669 
Q 3034 2534 3370 2195 
Q 3706 1856 3706 1288 
Q 3706 609 3251 259 
Q 2797 -91 1919 -91 
Q 1588 -91 1214 -16 
Q 841 59 441 206 
L 441 856 
Q 825 641 1194 531 
Q 1563 422 1919 422 
Q 2459 422 2753 634 
Q 3047 847 3047 1241 
Q 3047 1584 2836 1778 
Q 2625 1972 2144 2069 
L 1759 2144 
Q 1053 2284 737 2584 
Q 422 2884 422 3419 
Q 422 4038 858 4394 
Q 1294 4750 2059 4750 
Q 2388 4750 2728 4690 
Q 3069 4631 3425 4513 
z
" transform="scale(0.015625)"/>
      <path id="DejaVuSans-72" d="M 2631 2963 
Q 2534 3019 2420 3045 
Q 2306 3072 2169 3072 
Q 1681 3072 1420 2755 
Q 1159 2438 1159 1844 
L 1159 0 
L 581 0 
L 581 3500 
L 1159 3500 
L 1159 2956 
Q 1341 3275 1631 3429 
Q 1922 3584 2338 3584 
Q 2397 3584 2469 3576 
Q 2541 3569 2628 3553 
L 2631 2963 
z
" transform="scale(0.015625)"/>
      <path id="DejaVuSans-20" transform="scale(0.015625)"/>
      <path id="DejaVuSans-4b" d="M 628 4666 
L 1259 4666 
L 1259 2694 
L 3353 4666 
L 4166 4666 
L 1850 2491 
L 4331 0 
L 3500 0 
L 1259 2247 
L 1259 0 
L 628 0 
L 628 4666 
z
" transform="scale(0.015625)"/>
      <path id="DejaVuSans-45" d="M 628 4666 
L 3578 4666 
L 3578 4134 
L 1259 4134 
L 1259 2753 
L 3481 2753 
L 3481 2222 
L 1259 2222 
L 1259 531 
L 3634 531 
L 3634 0 
L 628 0 
L 628 4666 
z
" transform="scale(0.015625)"/>
     </defs>
     <use xlink:href="#DejaVuSans-4c"/>
     <use xlink:href="#DejaVuSans-4c" x="55.712891"/>
     <use xlink:href="#DejaVuSans-53" x="111.425781"/>
     <use xlink:href="#DejaVuSans-63" x="174.902344"/>
     <use xlink:href="#DejaVuSans-6f" x="229.882812"/>
     <use xlink:href="#DejaVuSans-72" x="291.064453"/>
     <use xlink:href="#DejaVuSans-65" x="329.927734"/>
     <use xlink:href="#DejaVuSans-20" x="391.451172"/>
     <use xlink:href="#DejaVuSans-46" x="423.238281"/>
     <use xlink:href="#DejaVuSans-6c" x="480.757812"/>
     <use xlink:href="#DejaVuSans-75" x="508.541016"/>
     <use xlink:href="#DejaVuSans-63" x="571.919922"/>
     <use xlink:href="#DejaVuSans-74" x="626.900391"/>
     <use xlink:href="#DejaVuSans-75" x="666.109375"/>
     <use xlink:href="#DejaVuSans-61" x="729.488281"/>
     <use xlink:href="#DejaVuSans-74" x="790.767578"/>
     <use xlink:href="#DejaVuSans-69" x="829.976562"/>
     <use xlink:href="#DejaVuSans-6f" x="857.759766"/>
     <use xlink:href="#DejaVuSans-6e" x="918.941406"/>
     <use xlink:href="#DejaVuSans-20" x="982.320312"/>
     <use xlink:href="#DejaVuSans-4b" x="1014.107422"/>
     <use xlink:href="#DejaVuSans-44" x="1079.683594"/>
     <use xlink:href="#DejaVuSans-45" x="1156.685547"/>
    </g>
   </g>
   <g id="legend_1">
    <g id="patch_7">
     <path d="M 141.484461 84.39625 
L 347.115711 84.39625 
Q 349.115711 84.39625 349.115711 82.39625 
L 349.115711 54.04 
Q 349.115711 52.04 347.115711 52.04 
L 141.484461 52.04 
Q 139.484461 52.04 139.484461 54.04 
L 139.484461 82.39625 
Q 139.484461 84.39625 141.484461 84.39625 
z
" style="fill: #ffffff; opacity: 0.8; stroke: #cccccc; stroke-linejoin: miter"/>
    </g>
    <g id="line2d_18">
     <path d="M 143.484461 60.138437 
L 153.484461 60.138437 
L 163.484461 60.138437 
" style="fill: none; stroke: #0000ff; stroke-width: 1.5; stroke-linecap: square"/>
    </g>
    <g id="text_19">
     <!-- Init vs Init Random -->
     <g transform="translate(171.484461 63.638437) scale(0.1 -0.1)">
      <defs>
       <path id="DejaVuSans-49" d="M 628 4666 
L 1259 4666 
L 1259 0 
L 628 0 
L 628 4666 
z
" transform="scale(0.015625)"/>
       <path id="DejaVuSans-76" d="M 191 3500 
L 800 3500 
L 1894 563 
L 2988 3500 
L 3597 3500 
L 2284 0 
L 1503 0 
L 191 3500 
z
" transform="scale(0.015625)"/>
       <path id="DejaVuSans-52" d="M 2841 2188 
Q 3044 2119 3236 1894 
Q 3428 1669 3622 1275 
L 4263 0 
L 3584 0 
L 2988 1197 
Q 2756 1666 2539 1819 
Q 2322 1972 1947 1972 
L 1259 1972 
L 1259 0 
L 628 0 
L 628 4666 
L 2053 4666 
Q 2853 4666 3247 4331 
Q 3641 3997 3641 3322 
Q 3641 2881 3436 2590 
Q 3231 2300 2841 2188 
z
M 1259 4147 
L 1259 2491 
L 2053 2491 
Q 2509 2491 2742 2702 
Q 2975 2913 2975 3322 
Q 2975 3731 2742 3939 
Q 2509 4147 2053 4147 
L 1259 4147 
z
" transform="scale(0.015625)"/>
       <path id="DejaVuSans-64" d="M 2906 2969 
L 2906 4863 
L 3481 4863 
L 3481 0 
L 2906 0 
L 2906 525 
Q 2725 213 2448 61 
Q 2172 -91 1784 -91 
Q 1150 -91 751 415 
Q 353 922 353 1747 
Q 353 2572 751 3078 
Q 1150 3584 1784 3584 
Q 2172 3584 2448 3432 
Q 2725 3281 2906 2969 
z
M 947 1747 
Q 947 1113 1208 752 
Q 1469 391 1925 391 
Q 2381 391 2643 752 
Q 2906 1113 2906 1747 
Q 2906 2381 2643 2742 
Q 2381 3103 1925 3103 
Q 1469 3103 1208 2742 
Q 947 2381 947 1747 
z
" transform="scale(0.015625)"/>
       <path id="DejaVuSans-6d" d="M 3328 2828 
Q 3544 3216 3844 3400 
Q 4144 3584 4550 3584 
Q 5097 3584 5394 3201 
Q 5691 2819 5691 2113 
L 5691 0 
L 5113 0 
L 5113 2094 
Q 5113 2597 4934 2840 
Q 4756 3084 4391 3084 
Q 3944 3084 3684 2787 
Q 3425 2491 3425 1978 
L 3425 0 
L 2847 0 
L 2847 2094 
Q 2847 2600 2669 2842 
Q 2491 3084 2119 3084 
Q 1678 3084 1418 2786 
Q 1159 2488 1159 1978 
L 1159 0 
L 581 0 
L 581 3500 
L 1159 3500 
L 1159 2956 
Q 1356 3278 1631 3431 
Q 1906 3584 2284 3584 
Q 2666 3584 2933 3390 
Q 3200 3197 3328 2828 
z
" transform="scale(0.015625)"/>
      </defs>
      <use xlink:href="#DejaVuSans-49"/>
      <use xlink:href="#DejaVuSans-6e" x="29.492188"/>
      <use xlink:href="#DejaVuSans-69" x="92.871094"/>
      <use xlink:href="#DejaVuSans-74" x="120.654297"/>
      <use xlink:href="#DejaVuSans-20" x="159.863281"/>
      <use xlink:href="#DejaVuSans-76" x="191.650391"/>
      <use xlink:href="#DejaVuSans-73" x="250.830078"/>
      <use xlink:href="#DejaVuSans-20" x="302.929688"/>
      <use xlink:href="#DejaVuSans-49" x="334.716797"/>
      <use xlink:href="#DejaVuSans-6e" x="364.208984"/>
      <use xlink:href="#DejaVuSans-69" x="427.587891"/>
      <use xlink:href="#DejaVuSans-74" x="455.371094"/>
      <use xlink:href="#DejaVuSans-20" x="494.580078"/>
      <use xlink:href="#DejaVuSans-52" x="526.367188"/>
      <use xlink:href="#DejaVuSans-61" x="593.599609"/>
      <use xlink:href="#DejaVuSans-6e" x="654.878906"/>
      <use xlink:href="#DejaVuSans-64" x="718.257812"/>
      <use xlink:href="#DejaVuSans-6f" x="781.734375"/>
      <use xlink:href="#DejaVuSans-6d" x="842.916016"/>
     </g>
    </g>
    <g id="line2d_19">
     <path d="M 143.484461 74.816562 
L 153.484461 74.816562 
L 163.484461 74.816562 
" style="fill: none; stroke: #ff0000; stroke-width: 1.5; stroke-linecap: square"/>
    </g>
    <g id="text_20">
     <!-- Generation vs Generation Random -->
     <g transform="translate(171.484461 78.316562) scale(0.1 -0.1)">
      <defs>
       <path id="DejaVuSans-47" d="M 3809 666 
L 3809 1919 
L 2778 1919 
L 2778 2438 
L 4434 2438 
L 4434 434 
Q 4069 175 3628 42 
Q 3188 -91 2688 -91 
Q 1594 -91 976 548 
Q 359 1188 359 2328 
Q 359 3472 976 4111 
Q 1594 4750 2688 4750 
Q 3144 4750 3555 4637 
Q 3966 4525 4313 4306 
L 4313 3634 
Q 3963 3931 3569 4081 
Q 3175 4231 2741 4231 
Q 1884 4231 1454 3753 
Q 1025 3275 1025 2328 
Q 1025 1384 1454 906 
Q 1884 428 2741 428 
Q 3075 428 3337 486 
Q 3600 544 3809 666 
z
" transform="scale(0.015625)"/>
      </defs>
      <use xlink:href="#DejaVuSans-47"/>
      <use xlink:href="#DejaVuSans-65" x="77.490234"/>
      <use xlink:href="#DejaVuSans-6e" x="139.013672"/>
      <use xlink:href="#DejaVuSans-65" x="202.392578"/>
      <use xlink:href="#DejaVuSans-72" x="263.916016"/>
      <use xlink:href="#DejaVuSans-61" x="305.029297"/>
      <use xlink:href="#DejaVuSans-74" x="366.308594"/>
      <use xlink:href="#DejaVuSans-69" x="405.517578"/>
      <use xlink:href="#DejaVuSans-6f" x="433.300781"/>
      <use xlink:href="#DejaVuSans-6e" x="494.482422"/>
      <use xlink:href="#DejaVuSans-20" x="557.861328"/>
      <use xlink:href="#DejaVuSans-76" x="589.648438"/>
      <use xlink:href="#DejaVuSans-73" x="648.828125"/>
      <use xlink:href="#DejaVuSans-20" x="700.927734"/>
      <use xlink:href="#DejaVuSans-47" x="732.714844"/>
      <use xlink:href="#DejaVuSans-65" x="810.205078"/>
      <use xlink:href="#DejaVuSans-6e" x="871.728516"/>
      <use xlink:href="#DejaVuSans-65" x="935.107422"/>
      <use xlink:href="#DejaVuSans-72" x="996.630859"/>
      <use xlink:href="#DejaVuSans-61" x="1037.744141"/>
      <use xlink:href="#DejaVuSans-74" x="1099.023438"/>
      <use xlink:href="#DejaVuSans-69" x="1138.232422"/>
      <use xlink:href="#DejaVuSans-6f" x="1166.015625"/>
      <use xlink:href="#DejaVuSans-6e" x="1227.197266"/>
      <use xlink:href="#DejaVuSans-20" x="1290.576172"/>
      <use xlink:href="#DejaVuSans-52" x="1322.363281"/>
      <use xlink:href="#DejaVuSans-61" x="1389.595703"/>
      <use xlink:href="#DejaVuSans-6e" x="1450.875"/>
      <use xlink:href="#DejaVuSans-64" x="1514.253906"/>
      <use xlink:href="#DejaVuSans-6f" x="1577.730469"/>
      <use xlink:href="#DejaVuSans-6d" x="1638.912109"/>
     </g>
    </g>
   </g>
  </g>
  <g id="axes_2">
   <g id="patch_8">
    <path d="M 415.674289 246.04 
L 709.2 246.04 
L 709.2 47.04 
L 415.674289 47.04 
z
" style="fill: #ffffff"/>
   </g>
   <g id="matplotlib.axis_3">
    <g id="xtick_9">
     <g id="line2d_20">
      <g>
       <use xlink:href="#m004664ae5f" x="436.829238" y="246.04" style="stroke: #000000; stroke-width: 0.8"/>
      </g>
     </g>
     <g id="text_21">
      <!-- 0 -->
      <g transform="translate(433.647988 260.638438) scale(0.1 -0.1)">
       <use xlink:href="#DejaVuSans-30"/>
      </g>
     </g>
    </g>
    <g id="xtick_10">
     <g id="line2d_21">
      <g>
       <use xlink:href="#m004664ae5f" x="469.460366" y="246.04" style="stroke: #000000; stroke-width: 0.8"/>
      </g>
     </g>
     <g id="text_22">
      <!-- 10 -->
      <g transform="translate(463.097866 260.638438) scale(0.1 -0.1)">
       <use xlink:href="#DejaVuSans-31"/>
       <use xlink:href="#DejaVuSans-30" x="63.623047"/>
      </g>
     </g>
    </g>
    <g id="xtick_11">
     <g id="line2d_22">
      <g>
       <use xlink:href="#m004664ae5f" x="502.091493" y="246.04" style="stroke: #000000; stroke-width: 0.8"/>
      </g>
     </g>
     <g id="text_23">
      <!-- 20 -->
      <g transform="translate(495.728993 260.638438) scale(0.1 -0.1)">
       <use xlink:href="#DejaVuSans-32"/>
       <use xlink:href="#DejaVuSans-30" x="63.623047"/>
      </g>
     </g>
    </g>
    <g id="xtick_12">
     <g id="line2d_23">
      <g>
       <use xlink:href="#m004664ae5f" x="534.72262" y="246.04" style="stroke: #000000; stroke-width: 0.8"/>
      </g>
     </g>
     <g id="text_24">
      <!-- 30 -->
      <g transform="translate(528.36012 260.638438) scale(0.1 -0.1)">
       <use xlink:href="#DejaVuSans-33"/>
       <use xlink:href="#DejaVuSans-30" x="63.623047"/>
      </g>
     </g>
    </g>
    <g id="xtick_13">
     <g id="line2d_24">
      <g>
       <use xlink:href="#m004664ae5f" x="567.353747" y="246.04" style="stroke: #000000; stroke-width: 0.8"/>
      </g>
     </g>
     <g id="text_25">
      <!-- 40 -->
      <g transform="translate(560.991247 260.638438) scale(0.1 -0.1)">
       <defs>
        <path id="DejaVuSans-34" d="M 2419 4116 
L 825 1625 
L 2419 1625 
L 2419 4116 
z
M 2253 4666 
L 3047 4666 
L 3047 1625 
L 3713 1625 
L 3713 1100 
L 3047 1100 
L 3047 0 
L 2419 0 
L 2419 1100 
L 313 1100 
L 313 1709 
L 2253 4666 
z
" transform="scale(0.015625)"/>
       </defs>
       <use xlink:href="#DejaVuSans-34"/>
       <use xlink:href="#DejaVuSans-30" x="63.623047"/>
      </g>
     </g>
    </g>
    <g id="xtick_14">
     <g id="line2d_25">
      <g>
       <use xlink:href="#m004664ae5f" x="599.984874" y="246.04" style="stroke: #000000; stroke-width: 0.8"/>
      </g>
     </g>
     <g id="text_26">
      <!-- 50 -->
      <g transform="translate(593.622374 260.638438) scale(0.1 -0.1)">
       <use xlink:href="#DejaVuSans-35"/>
       <use xlink:href="#DejaVuSans-30" x="63.623047"/>
      </g>
     </g>
    </g>
    <g id="xtick_15">
     <g id="line2d_26">
      <g>
       <use xlink:href="#m004664ae5f" x="632.616001" y="246.04" style="stroke: #000000; stroke-width: 0.8"/>
      </g>
     </g>
     <g id="text_27">
      <!-- 60 -->
      <g transform="translate(626.253501 260.638438) scale(0.1 -0.1)">
       <defs>
        <path id="DejaVuSans-36" d="M 2113 2584 
Q 1688 2584 1439 2293 
Q 1191 2003 1191 1497 
Q 1191 994 1439 701 
Q 1688 409 2113 409 
Q 2538 409 2786 701 
Q 3034 994 3034 1497 
Q 3034 2003 2786 2293 
Q 2538 2584 2113 2584 
z
M 3366 4563 
L 3366 3988 
Q 3128 4100 2886 4159 
Q 2644 4219 2406 4219 
Q 1781 4219 1451 3797 
Q 1122 3375 1075 2522 
Q 1259 2794 1537 2939 
Q 1816 3084 2150 3084 
Q 2853 3084 3261 2657 
Q 3669 2231 3669 1497 
Q 3669 778 3244 343 
Q 2819 -91 2113 -91 
Q 1303 -91 875 529 
Q 447 1150 447 2328 
Q 447 3434 972 4092 
Q 1497 4750 2381 4750 
Q 2619 4750 2861 4703 
Q 3103 4656 3366 4563 
z
" transform="scale(0.015625)"/>
       </defs>
       <use xlink:href="#DejaVuSans-36"/>
       <use xlink:href="#DejaVuSans-30" x="63.623047"/>
      </g>
     </g>
    </g>
    <g id="xtick_16">
     <g id="line2d_27">
      <g>
       <use xlink:href="#m004664ae5f" x="665.247128" y="246.04" style="stroke: #000000; stroke-width: 0.8"/>
      </g>
     </g>
     <g id="text_28">
      <!-- 70 -->
      <g transform="translate(658.884628 260.638438) scale(0.1 -0.1)">
       <defs>
        <path id="DejaVuSans-37" d="M 525 4666 
L 3525 4666 
L 3525 4397 
L 1831 0 
L 1172 0 
L 2766 4134 
L 525 4134 
L 525 4666 
z
" transform="scale(0.015625)"/>
       </defs>
       <use xlink:href="#DejaVuSans-37"/>
       <use xlink:href="#DejaVuSans-30" x="63.623047"/>
      </g>
     </g>
    </g>
    <g id="xtick_17">
     <g id="line2d_28">
      <g>
       <use xlink:href="#m004664ae5f" x="697.878255" y="246.04" style="stroke: #000000; stroke-width: 0.8"/>
      </g>
     </g>
     <g id="text_29">
      <!-- 80 -->
      <g transform="translate(691.515755 260.638438) scale(0.1 -0.1)">
       <defs>
        <path id="DejaVuSans-38" d="M 2034 2216 
Q 1584 2216 1326 1975 
Q 1069 1734 1069 1313 
Q 1069 891 1326 650 
Q 1584 409 2034 409 
Q 2484 409 2743 651 
Q 3003 894 3003 1313 
Q 3003 1734 2745 1975 
Q 2488 2216 2034 2216 
z
M 1403 2484 
Q 997 2584 770 2862 
Q 544 3141 544 3541 
Q 544 4100 942 4425 
Q 1341 4750 2034 4750 
Q 2731 4750 3128 4425 
Q 3525 4100 3525 3541 
Q 3525 3141 3298 2862 
Q 3072 2584 2669 2484 
Q 3125 2378 3379 2068 
Q 3634 1759 3634 1313 
Q 3634 634 3220 271 
Q 2806 -91 2034 -91 
Q 1263 -91 848 271 
Q 434 634 434 1313 
Q 434 1759 690 2068 
Q 947 2378 1403 2484 
z
M 1172 3481 
Q 1172 3119 1398 2916 
Q 1625 2713 2034 2713 
Q 2441 2713 2670 2916 
Q 2900 3119 2900 3481 
Q 2900 3844 2670 4047 
Q 2441 4250 2034 4250 
Q 1625 4250 1398 4047 
Q 1172 3844 1172 3481 
z
" transform="scale(0.015625)"/>
       </defs>
       <use xlink:href="#DejaVuSans-38"/>
       <use xlink:href="#DejaVuSans-30" x="63.623047"/>
      </g>
     </g>
    </g>
    <g id="text_30">
     <!-- Fluctuation -->
     <g transform="translate(534.48402 274.316562) scale(0.1 -0.1)">
      <use xlink:href="#DejaVuSans-46"/>
      <use xlink:href="#DejaVuSans-6c" x="57.519531"/>
      <use xlink:href="#DejaVuSans-75" x="85.302734"/>
      <use xlink:href="#DejaVuSans-63" x="148.681641"/>
      <use xlink:href="#DejaVuSans-74" x="203.662109"/>
      <use xlink:href="#DejaVuSans-75" x="242.871094"/>
      <use xlink:href="#DejaVuSans-61" x="306.25"/>
      <use xlink:href="#DejaVuSans-74" x="367.529297"/>
      <use xlink:href="#DejaVuSans-69" x="406.738281"/>
      <use xlink:href="#DejaVuSans-6f" x="434.521484"/>
      <use xlink:href="#DejaVuSans-6e" x="495.703125"/>
     </g>
    </g>
   </g>
   <g id="matplotlib.axis_4">
    <g id="ytick_8">
     <g id="line2d_29">
      <g>
       <use xlink:href="#m8e17ea49b9" x="415.674289" y="246.04" style="stroke: #000000; stroke-width: 0.8"/>
      </g>
     </g>
     <g id="text_31">
      <!-- 0.00 -->
      <g transform="translate(386.408664 249.839219) scale(0.1 -0.1)">
       <use xlink:href="#DejaVuSans-30"/>
       <use xlink:href="#DejaVuSans-2e" x="63.623047"/>
       <use xlink:href="#DejaVuSans-30" x="95.410156"/>
       <use xlink:href="#DejaVuSans-30" x="159.033203"/>
      </g>
     </g>
    </g>
    <g id="ytick_9">
     <g id="line2d_30">
      <g>
       <use xlink:href="#m8e17ea49b9" x="415.674289" y="213.650301" style="stroke: #000000; stroke-width: 0.8"/>
      </g>
     </g>
     <g id="text_32">
      <!-- 0.05 -->
      <g transform="translate(386.408664 217.449519) scale(0.1 -0.1)">
       <use xlink:href="#DejaVuSans-30"/>
       <use xlink:href="#DejaVuSans-2e" x="63.623047"/>
       <use xlink:href="#DejaVuSans-30" x="95.410156"/>
       <use xlink:href="#DejaVuSans-35" x="159.033203"/>
      </g>
     </g>
    </g>
    <g id="ytick_10">
     <g id="line2d_31">
      <g>
       <use xlink:href="#m8e17ea49b9" x="415.674289" y="181.260601" style="stroke: #000000; stroke-width: 0.8"/>
      </g>
     </g>
     <g id="text_33">
      <!-- 0.10 -->
      <g transform="translate(386.408664 185.05982) scale(0.1 -0.1)">
       <use xlink:href="#DejaVuSans-30"/>
       <use xlink:href="#DejaVuSans-2e" x="63.623047"/>
       <use xlink:href="#DejaVuSans-31" x="95.410156"/>
       <use xlink:href="#DejaVuSans-30" x="159.033203"/>
      </g>
     </g>
    </g>
    <g id="ytick_11">
     <g id="line2d_32">
      <g>
       <use xlink:href="#m8e17ea49b9" x="415.674289" y="148.870902" style="stroke: #000000; stroke-width: 0.8"/>
      </g>
     </g>
     <g id="text_34">
      <!-- 0.15 -->
      <g transform="translate(386.408664 152.670121) scale(0.1 -0.1)">
       <use xlink:href="#DejaVuSans-30"/>
       <use xlink:href="#DejaVuSans-2e" x="63.623047"/>
       <use xlink:href="#DejaVuSans-31" x="95.410156"/>
       <use xlink:href="#DejaVuSans-35" x="159.033203"/>
      </g>
     </g>
    </g>
    <g id="ytick_12">
     <g id="line2d_33">
      <g>
       <use xlink:href="#m8e17ea49b9" x="415.674289" y="116.481203" style="stroke: #000000; stroke-width: 0.8"/>
      </g>
     </g>
     <g id="text_35">
      <!-- 0.20 -->
      <g transform="translate(386.408664 120.280421) scale(0.1 -0.1)">
       <use xlink:href="#DejaVuSans-30"/>
       <use xlink:href="#DejaVuSans-2e" x="63.623047"/>
       <use xlink:href="#DejaVuSans-32" x="95.410156"/>
       <use xlink:href="#DejaVuSans-30" x="159.033203"/>
      </g>
     </g>
    </g>
    <g id="ytick_13">
     <g id="line2d_34">
      <g>
       <use xlink:href="#m8e17ea49b9" x="415.674289" y="84.091503" style="stroke: #000000; stroke-width: 0.8"/>
      </g>
     </g>
     <g id="text_36">
      <!-- 0.25 -->
      <g transform="translate(386.408664 87.890722) scale(0.1 -0.1)">
       <use xlink:href="#DejaVuSans-30"/>
       <use xlink:href="#DejaVuSans-2e" x="63.623047"/>
       <use xlink:href="#DejaVuSans-32" x="95.410156"/>
       <use xlink:href="#DejaVuSans-35" x="159.033203"/>
      </g>
     </g>
    </g>
    <g id="ytick_14">
     <g id="line2d_35">
      <g>
       <use xlink:href="#m8e17ea49b9" x="415.674289" y="51.701804" style="stroke: #000000; stroke-width: 0.8"/>
      </g>
     </g>
     <g id="text_37">
      <!-- 0.30 -->
      <g transform="translate(386.408664 55.501023) scale(0.1 -0.1)">
       <use xlink:href="#DejaVuSans-30"/>
       <use xlink:href="#DejaVuSans-2e" x="63.623047"/>
       <use xlink:href="#DejaVuSans-33" x="95.410156"/>
       <use xlink:href="#DejaVuSans-30" x="159.033203"/>
      </g>
     </g>
    </g>
    <g id="text_38">
     <!-- Density -->
     <g transform="translate(380.328977 165.548594) rotate(-90) scale(0.1 -0.1)">
      <use xlink:href="#DejaVuSans-44"/>
      <use xlink:href="#DejaVuSans-65" x="77.001953"/>
      <use xlink:href="#DejaVuSans-6e" x="138.525391"/>
      <use xlink:href="#DejaVuSans-73" x="201.904297"/>
      <use xlink:href="#DejaVuSans-69" x="254.003906"/>
      <use xlink:href="#DejaVuSans-74" x="281.787109"/>
      <use xlink:href="#DejaVuSans-79" x="320.996094"/>
     </g>
    </g>
   </g>
   <g id="line2d_36">
    <path d="M 429.016367 245.926091 
L 430.357279 245.53026 
L 431.698192 244.251372 
L 433.039104 241.076465 
L 434.380016 235.007256 
L 435.720929 226.023761 
L 438.402753 205.715398 
L 439.743666 197.540094 
L 441.084578 190.861324 
L 442.42549 185.075244 
L 443.766403 180.041512 
L 445.107315 176.099729 
L 446.448227 173.60217 
L 447.78914 172.62344 
L 449.130052 173.013479 
L 450.470964 174.552009 
L 451.811877 177.040512 
L 453.152789 180.358499 
L 454.493701 184.442587 
L 459.857351 202.91705 
L 461.198263 206.485977 
L 463.880088 212.67974 
L 466.561913 218.573623 
L 467.902825 221.196188 
L 469.243737 223.438847 
L 470.58465 225.331738 
L 473.266474 228.58367 
L 475.948299 231.498321 
L 478.630124 233.886565 
L 479.971036 234.883987 
L 481.311948 235.717374 
L 483.993773 236.967033 
L 486.675598 238.249302 
L 489.357422 239.655129 
L 492.039247 240.755711 
L 494.721072 241.452764 
L 501.425633 242.769192 
L 504.107458 243.03359 
L 506.789283 243.553061 
L 509.471107 244.089297 
L 512.152932 244.339399 
L 516.175669 244.626561 
L 520.198406 244.986762 
L 532.266617 245.405169 
L 537.630266 245.56001 
L 544.334828 245.863718 
L 553.721214 245.833247 
L 581.880374 245.962359 
L 588.584935 245.994245 
L 596.630409 245.989766 
L 695.857922 246.039766 
L 695.857922 246.039766 
" clip-path="url(#pa09e7eb81a)" style="fill: none; stroke: #0000ff; stroke-width: 1.5; stroke-linecap: square"/>
   </g>
   <g id="line2d_37">
    <path d="M 434.500721 245.854681 
L 434.889432 245.213916 
L 435.278143 243.102752 
L 435.666854 237.644761 
L 436.055565 226.542911 
L 436.832987 185.802536 
L 437.610408 140.853347 
L 438.38783 109.843389 
L 439.165252 87.255187 
L 439.942674 70.951476 
L 440.720096 61.126171 
L 441.108806 58.485089 
L 441.497517 57.067641 
L 441.886228 56.51619 
L 442.274939 56.737023 
L 442.66365 58.163732 
L 443.052361 61.465438 
L 443.441072 66.887147 
L 444.607204 89.670163 
L 446.93947 133.773498 
L 449.660446 182.681105 
L 450.826579 196.456279 
L 452.770133 215.090119 
L 453.936266 222.900322 
L 455.102399 229.321224 
L 455.87982 232.285911 
L 457.434664 236.543722 
L 457.823375 237.212278 
L 458.989508 238.618486 
L 460.15564 240.59016 
L 460.933062 241.443955 
L 462.099195 242.169592 
L 463.265327 243.189138 
L 465.986304 244.745294 
L 466.763725 244.813021 
L 468.318569 244.596313 
L 468.70728 244.687674 
L 470.262124 245.505837 
L 472.205678 245.467158 
L 473.371811 245.660304 
L 474.537943 245.650611 
L 476.481498 245.579063 
L 477.647631 245.799128 
L 479.979896 245.766015 
L 481.146029 245.838101 
L 482.312161 245.773405 
L 484.644427 246.03821 
L 486.587981 245.97163 
L 488.142825 245.886885 
L 491.252512 245.978808 
L 493.584777 246.039922 
L 511.854189 246.039216 
L 511.854189 246.039216 
" clip-path="url(#pa09e7eb81a)" style="fill: none; stroke: #ff0000; stroke-width: 1.5; stroke-linecap: square"/>
   </g>
   <g id="patch_9">
    <path d="M 415.674289 246.04 
L 415.674289 47.04 
" style="fill: none; stroke: #000000; stroke-width: 0.8; stroke-linejoin: miter; stroke-linecap: square"/>
   </g>
   <g id="patch_10">
    <path d="M 709.2 246.04 
L 709.2 47.04 
" style="fill: none; stroke: #000000; stroke-width: 0.8; stroke-linejoin: miter; stroke-linecap: square"/>
   </g>
   <g id="patch_11">
    <path d="M 415.674289 246.04 
L 709.2 246.04 
" style="fill: none; stroke: #000000; stroke-width: 0.8; stroke-linejoin: miter; stroke-linecap: square"/>
   </g>
   <g id="patch_12">
    <path d="M 415.674289 47.04 
L 709.2 47.04 
" style="fill: none; stroke: #000000; stroke-width: 0.8; stroke-linejoin: miter; stroke-linecap: square"/>
   </g>
   <g id="text_39">
    <!-- PPL Fluctuation KDE -->
    <g transform="translate(502.154957 41.04) scale(0.12 -0.12)">
     <defs>
      <path id="DejaVuSans-50" d="M 1259 4147 
L 1259 2394 
L 2053 2394 
Q 2494 2394 2734 2622 
Q 2975 2850 2975 3272 
Q 2975 3691 2734 3919 
Q 2494 4147 2053 4147 
L 1259 4147 
z
M 628 4666 
L 2053 4666 
Q 2838 4666 3239 4311 
Q 3641 3956 3641 3272 
Q 3641 2581 3239 2228 
Q 2838 1875 2053 1875 
L 1259 1875 
L 1259 0 
L 628 0 
L 628 4666 
z
" transform="scale(0.015625)"/>
     </defs>
     <use xlink:href="#DejaVuSans-50"/>
     <use xlink:href="#DejaVuSans-50" x="60.302734"/>
     <use xlink:href="#DejaVuSans-4c" x="120.605469"/>
     <use xlink:href="#DejaVuSans-20" x="176.318359"/>
     <use xlink:href="#DejaVuSans-46" x="208.105469"/>
     <use xlink:href="#DejaVuSans-6c" x="265.625"/>
     <use xlink:href="#DejaVuSans-75" x="293.408203"/>
     <use xlink:href="#DejaVuSans-63" x="356.787109"/>
     <use xlink:href="#DejaVuSans-74" x="411.767578"/>
     <use xlink:href="#DejaVuSans-75" x="450.976562"/>
     <use xlink:href="#DejaVuSans-61" x="514.355469"/>
     <use xlink:href="#DejaVuSans-74" x="575.634766"/>
     <use xlink:href="#DejaVuSans-69" x="614.84375"/>
     <use xlink:href="#DejaVuSans-6f" x="642.626953"/>
     <use xlink:href="#DejaVuSans-6e" x="703.808594"/>
     <use xlink:href="#DejaVuSans-20" x="767.1875"/>
     <use xlink:href="#DejaVuSans-4b" x="798.974609"/>
     <use xlink:href="#DejaVuSans-44" x="864.550781"/>
     <use xlink:href="#DejaVuSans-45" x="941.552734"/>
    </g>
   </g>
   <g id="legend_2">
    <g id="patch_13">
     <path d="M 496.56875 84.39625 
L 702.2 84.39625 
Q 704.2 84.39625 704.2 82.39625 
L 704.2 54.04 
Q 704.2 52.04 702.2 52.04 
L 496.56875 52.04 
Q 494.56875 52.04 494.56875 54.04 
L 494.56875 82.39625 
Q 494.56875 84.39625 496.56875 84.39625 
z
" style="fill: #ffffff; opacity: 0.8; stroke: #cccccc; stroke-linejoin: miter"/>
    </g>
    <g id="line2d_38">
     <path d="M 498.56875 60.138437 
L 508.56875 60.138437 
L 518.56875 60.138437 
" style="fill: none; stroke: #0000ff; stroke-width: 1.5; stroke-linecap: square"/>
    </g>
    <g id="text_40">
     <!-- Init vs Init Random -->
     <g transform="translate(526.56875 63.638437) scale(0.1 -0.1)">
      <use xlink:href="#DejaVuSans-49"/>
      <use xlink:href="#DejaVuSans-6e" x="29.492188"/>
      <use xlink:href="#DejaVuSans-69" x="92.871094"/>
      <use xlink:href="#DejaVuSans-74" x="120.654297"/>
      <use xlink:href="#DejaVuSans-20" x="159.863281"/>
      <use xlink:href="#DejaVuSans-76" x="191.650391"/>
      <use xlink:href="#DejaVuSans-73" x="250.830078"/>
      <use xlink:href="#DejaVuSans-20" x="302.929688"/>
      <use xlink:href="#DejaVuSans-49" x="334.716797"/>
      <use xlink:href="#DejaVuSans-6e" x="364.208984"/>
      <use xlink:href="#DejaVuSans-69" x="427.587891"/>
      <use xlink:href="#DejaVuSans-74" x="455.371094"/>
      <use xlink:href="#DejaVuSans-20" x="494.580078"/>
      <use xlink:href="#DejaVuSans-52" x="526.367188"/>
      <use xlink:href="#DejaVuSans-61" x="593.599609"/>
      <use xlink:href="#DejaVuSans-6e" x="654.878906"/>
      <use xlink:href="#DejaVuSans-64" x="718.257812"/>
      <use xlink:href="#DejaVuSans-6f" x="781.734375"/>
      <use xlink:href="#DejaVuSans-6d" x="842.916016"/>
     </g>
    </g>
    <g id="line2d_39">
     <path d="M 498.56875 74.816562 
L 508.56875 74.816562 
L 518.56875 74.816562 
" style="fill: none; stroke: #ff0000; stroke-width: 1.5; stroke-linecap: square"/>
    </g>
    <g id="text_41">
     <!-- Generation vs Generation Random -->
     <g transform="translate(526.56875 78.316562) scale(0.1 -0.1)">
      <use xlink:href="#DejaVuSans-47"/>
      <use xlink:href="#DejaVuSans-65" x="77.490234"/>
      <use xlink:href="#DejaVuSans-6e" x="139.013672"/>
      <use xlink:href="#DejaVuSans-65" x="202.392578"/>
      <use xlink:href="#DejaVuSans-72" x="263.916016"/>
      <use xlink:href="#DejaVuSans-61" x="305.029297"/>
      <use xlink:href="#DejaVuSans-74" x="366.308594"/>
      <use xlink:href="#DejaVuSans-69" x="405.517578"/>
      <use xlink:href="#DejaVuSans-6f" x="433.300781"/>
      <use xlink:href="#DejaVuSans-6e" x="494.482422"/>
      <use xlink:href="#DejaVuSans-20" x="557.861328"/>
      <use xlink:href="#DejaVuSans-76" x="589.648438"/>
      <use xlink:href="#DejaVuSans-73" x="648.828125"/>
      <use xlink:href="#DejaVuSans-20" x="700.927734"/>
      <use xlink:href="#DejaVuSans-47" x="732.714844"/>
      <use xlink:href="#DejaVuSans-65" x="810.205078"/>
      <use xlink:href="#DejaVuSans-6e" x="871.728516"/>
      <use xlink:href="#DejaVuSans-65" x="935.107422"/>
      <use xlink:href="#DejaVuSans-72" x="996.630859"/>
      <use xlink:href="#DejaVuSans-61" x="1037.744141"/>
      <use xlink:href="#DejaVuSans-74" x="1099.023438"/>
      <use xlink:href="#DejaVuSans-69" x="1138.232422"/>
      <use xlink:href="#DejaVuSans-6f" x="1166.015625"/>
      <use xlink:href="#DejaVuSans-6e" x="1227.197266"/>
      <use xlink:href="#DejaVuSans-20" x="1290.576172"/>
      <use xlink:href="#DejaVuSans-52" x="1322.363281"/>
      <use xlink:href="#DejaVuSans-61" x="1389.595703"/>
      <use xlink:href="#DejaVuSans-6e" x="1450.875"/>
      <use xlink:href="#DejaVuSans-64" x="1514.253906"/>
      <use xlink:href="#DejaVuSans-6f" x="1577.730469"/>
      <use xlink:href="#DejaVuSans-6d" x="1638.912109"/>
     </g>
    </g>
   </g>
  </g>
  <g id="text_42">
   <!-- LLScore and PPL Fluctuation KDE Plot -->
   <g transform="translate(247.911563 14.878125) scale(0.12 -0.12)">
    <use xlink:href="#DejaVuSans-4c"/>
    <use xlink:href="#DejaVuSans-4c" x="55.712891"/>
    <use xlink:href="#DejaVuSans-53" x="111.425781"/>
    <use xlink:href="#DejaVuSans-63" x="174.902344"/>
    <use xlink:href="#DejaVuSans-6f" x="229.882812"/>
    <use xlink:href="#DejaVuSans-72" x="291.064453"/>
    <use xlink:href="#DejaVuSans-65" x="329.927734"/>
    <use xlink:href="#DejaVuSans-20" x="391.451172"/>
    <use xlink:href="#DejaVuSans-61" x="423.238281"/>
    <use xlink:href="#DejaVuSans-6e" x="484.517578"/>
    <use xlink:href="#DejaVuSans-64" x="547.896484"/>
    <use xlink:href="#DejaVuSans-20" x="611.373047"/>
    <use xlink:href="#DejaVuSans-50" x="643.160156"/>
    <use xlink:href="#DejaVuSans-50" x="703.462891"/>
    <use xlink:href="#DejaVuSans-4c" x="763.765625"/>
    <use xlink:href="#DejaVuSans-20" x="819.478516"/>
    <use xlink:href="#DejaVuSans-46" x="851.265625"/>
    <use xlink:href="#DejaVuSans-6c" x="908.785156"/>
    <use xlink:href="#DejaVuSans-75" x="936.568359"/>
    <use xlink:href="#DejaVuSans-63" x="999.947266"/>
    <use xlink:href="#DejaVuSans-74" x="1054.927734"/>
    <use xlink:href="#DejaVuSans-75" x="1094.136719"/>
    <use xlink:href="#DejaVuSans-61" x="1157.515625"/>
    <use xlink:href="#DejaVuSans-74" x="1218.794922"/>
    <use xlink:href="#DejaVuSans-69" x="1258.003906"/>
    <use xlink:href="#DejaVuSans-6f" x="1285.787109"/>
    <use xlink:href="#DejaVuSans-6e" x="1346.96875"/>
    <use xlink:href="#DejaVuSans-20" x="1410.347656"/>
    <use xlink:href="#DejaVuSans-4b" x="1442.134766"/>
    <use xlink:href="#DejaVuSans-44" x="1507.710938"/>
    <use xlink:href="#DejaVuSans-45" x="1584.712891"/>
    <use xlink:href="#DejaVuSans-20" x="1647.896484"/>
    <use xlink:href="#DejaVuSans-50" x="1679.683594"/>
    <use xlink:href="#DejaVuSans-6c" x="1739.986328"/>
    <use xlink:href="#DejaVuSans-6f" x="1767.769531"/>
    <use xlink:href="#DejaVuSans-74" x="1828.951172"/>
   </g>
  </g>
 </g>
 <defs>
  <clipPath id="p95b76f584c">
   <rect x="60.59" y="47.04" width="293.525711" height="199"/>
  </clipPath>
  <clipPath id="pa09e7eb81a">
   <rect x="415.674289" y="47.04" width="293.525711" height="199"/>
  </clipPath>
 </defs>
</svg>
